fira-sans_ultra.sfdir
StartChar: exclam
Encoding: 33 33 2122
Width: 240
Flags: MW
HStem: 678 20G<4 236 236 236>
VStem: 4 232<698 698> 9 221<59 119>
LayerCount: 2
Back
Fore
SplineSet
236 698 m 1xc0
 207 279 l 1
 34 279 l 1
 4 698 l 1
 236 698 l 1xc0
120 199 m 0xa0
 181 199 230 149 230 89 c 0
 230 29 181 -22 120 -22 c 0
 59 -22 9 29 9 89 c 0
 9 149 59 199 120 199 c 0xa0
EndSplineSet
EndChar

StartChar: quotedbl
Encoding: 34 34 991
Width: 479
Flags: MW
HStem: 401 297<59 198 59 59 281 281 281 420>
VStem: 35 408<698 698>
LayerCount: 2
Fore
SplineSet
35 698 m 1
 222 698 l 1
 198 401 l 1
 59 401 l 1
 35 698 l 1
257 698 m 1
 443 698 l 1
 420 401 l 1
 281 401 l 1
 257 698 l 1
EndSplineSet
EndChar

StartChar: numbersign
Encoding: 35 35 987
Width: 594
Flags: MW
HStem: 0 263<46 81 15 228 46 46 277 312 15 459 277 277> 124 139<15 62 15 81 263 293 494 542> 434 138<52 103 52 121 303 334 534 579> 434 248<52 318 52 318 285 285 285 318 136 334 516 549 136 579 516 516>
VStem: 15 564<124 572 263 572>
LayerCount: 2
Fore
SplineSet
516 434 m 1xa8
 494 263 l 1
 542 263 l 1xa8
 542 124 l 1
 475 124 l 1x68
 459 0 l 1
 277 0 l 1xa8
 293 124 l 1
 244 124 l 1x68
 228 0 l 1
 46 0 l 1xa8
 62 124 l 1
 15 124 l 1x68
 15 263 l 1
 81 263 l 1
 103 434 l 1
 52 434 l 1
 52 572 l 1
 121 572 l 1xa8
 136 682 l 1
 318 682 l 1x98
 303 572 l 1
 352 572 l 1xa8
 367 682 l 1
 549 682 l 1x98
 534 572 l 1
 579 572 l 1
 579 434 l 1
 516 434 l 1xa8
334 434 m 1
 285 434 l 1
 263 263 l 1
 312 263 l 1
 334 434 l 1
EndSplineSet
Substitution2: "'onum' Oldstyle Figures lookup 22 subtable" numbersign.osf
Substitution2: "'tnum' Tabular Numbers lookup 21 subtable" numbersign.tf
AlternateSubs2: "'aalt' Access All Alternates lookup 1 subtable" numbersign.tf numbersign.osf
EndChar
StartChar: ampersand
Encoding: 38 38 2373
Width: 817
GlyphClass: 2
Flags: MW
HStem: -22 150<327.5 346> 584 135<315 337>
VStem: 39 235<175.5 205 175.5 219> 76 212<531.5 555 531.5 584> 358 210<532 558>
LayerCount: 2
Back
Fore
SplineSet
323 719 m 0xd8
 483 719 568 646 568 551 c 0
 568 469 523 414 444 357 c 1
 539 267 l 1
 554 300 565 339 575 386 c 1
 752 334 l 1
 726 265 694 207 657 159 c 1
 787 51 l 1
 586 -22 l 1
 526 35 l 1
 456 -7 382 -22 310 -22 c 0
 146 -22 39 59 39 180 c 0xe8
 39 258 76 309 171 372 c 1
 92 449 76 484 76 541 c 0
 76 627 150 719 323 719 c 0xd8
326 584 m 0
 304 584 288 569 288 541 c 0
 288 522 287 510 324 471 c 1
 353 495 358 516 358 548 c 0
 358 568 348 584 326 584 c 0
297 252 m 1xe0
 279 236 274 216 274 194 c 0
 274 157 302 128 353 128 c 0
 378 128 401 130 421 134 c 1
 297 252 l 1xe0
EndSplineSet
Substitution2: "'ss03' Style Set 3 lookup 35 subtable" ampersand.ss03
Substitution2: "'aalt' Access All Alternates lookup 0 subtable" ampersand.ss03
EndChar

StartChar: quotesingle
Encoding: 39 39 992
Width: 257
Flags: MW
HStem: 401 297<59 198 59 59> 678 20G<35 222 222 222>
VStem: 35 187<698 698>
LayerCount: 2
Fore
SplineSet
35 698 m 1x60
 222 698 l 1
 198 401 l 1
 59 401 l 1xa0
 35 698 l 1x60
EndSplineSet
EndChar

StartChar: parenleft
Encoding: 40 40 1007
Width: 325
Flags: MW
HStem: -172 1044<198 198>
VStem: -3 221<272 428 272 470.5>
LayerCount: 2
Fore
SplineSet
340 777 m 1
 246 645 218 506 218 350 c 0
 218 194 246 55 340 -77 c 1
 198 -172 l 1
 95 -34 -3 109 -3 350 c 0
 -3 591 95 734 198 872 c 1
 340 777 l 1
EndSplineSet
Substitution2: "'case' Case-Sensitive Forms lookup 25 subtable" parenleft.case
Substitution2: "'dnom' Denominators lookup 14 subtable" parenleft.dnom
Substitution2: "'numr' Numerators lookup 13 subtable" parenleft.numr
Substitution2: "'sups' Superscript lookup 12 subtable" parenleftsuperior
Substitution2: "'subs' Subscript lookup 11 subtable" uni208D
AlternateSubs2: "'aalt' Access All Alternates lookup 1 subtable" uni208D parenleftsuperior parenleft.numr parenleft.dnom parenleft.case
EndChar
StartChar: parenright
Encoding: 41 41 2155
Width: 325
Flags: MW
HStem: -172 1044<127 127>
VStem: 107 221<272 428>
LayerCount: 2
Back
Fore
SplineSet
127 872 m 1
 230 734 328 591 328 350 c 0
 328 109 230 -34 127 -172 c 1
 -15 -77 l 1
 80 55 107 194 107 350 c 0
 107 506 80 645 -15 777 c 1
 127 872 l 1
EndSplineSet
Substitution2: "'case' Case-Sensitive Forms lookup 28 subtable" parenright.case
Substitution2: "'dnom' Denominators lookup 16 subtable" parenright.dnom
Substitution2: "'numr' Numerators lookup 15 subtable" parenright.numr
Substitution2: "'sups' Superscript lookup 14 subtable" uni207E
Substitution2: "'subs' Subscript lookup 13 subtable" uni208E
AlternateSubs2: "'aalt' Access All Alternates lookup 1 subtable" uni208E uni207E parenright.numr parenright.dnom parenright.case
EndChar

StartChar: asterisk
Encoding: 42 42 978
Width: 459
Flags: MW
HStem: 725 20G<140 320 320 320>
VStem: -5 468<509 511>
LayerCount: 2
Fore
SplineSet
334 496 m 1
 431 408 l 1
 285 301 l 1
 229 422 l 1
 177 300 l 1
 30 407 l 1
 126 496 l 1
 -5 509 l 1
 52 679 l 1
 165 615 l 1
 140 745 l 1
 320 745 l 1
 294 614 l 1
 407 680 l 1
 463 511 l 1
 334 496 l 1
EndSplineSet
EndChar
StartChar: plus
Encoding: 43 43 2296
Width: 562
GlyphClass: 2
Flags: MW
HStem: 249 167<35 192 35 192 369 527> 558 20G<192 369 369 369>
VStem: 192 177<86 249 86 249 416 578>
LayerCount: 2
Back
Fore
SplineSet
369 578 m 1
 369 416 l 1
 527 416 l 1
 527 249 l 1
 369 249 l 1
 369 86 l 1
 192 86 l 1
 192 249 l 1
 35 249 l 1
 35 416 l 1
 192 416 l 1
 192 578 l 1
 369 578 l 1
EndSplineSet
Substitution2: "'onum' Oldstyle Figures lookup 25 subtable" plus.osf
Substitution2: "'tnum' Tabular Numbers lookup 24 subtable" plus.tf
Substitution2: "'dnom' Denominators lookup 16 subtable" plus.dnom
Substitution2: "'numr' Numerators lookup 15 subtable" plus.numr
Substitution2: "'sups' Superscript lookup 14 subtable" uni207A
Substitution2: "'subs' Subscript lookup 13 subtable" uni208A
AlternateSubs2: "'aalt' Access All Alternates lookup 1 subtable" uni208A uni207A plus.numr plus.dnom plus.tf plus.osf
EndChar
StartChar: comma
Encoding: 44 44 2119
Width: 240
Flags: MW
HStem: -1 21G<60 60>
VStem: 10 221<70.5 120.5 70 121>
LayerCount: 2
Back
Fore
SplineSet
120 199 m 0
 184 199 231 152 231 89 c 0
 231 51 216 17 186 -51 c 2
 125 -188 l 1
 15 -188 l 1
 60 -1 l 1
 27 19 10 51 10 90 c 0
 10 152 57 199 120 199 c 0
EndSplineSet
EndChar
StartChar: hyphen
Encoding: 45 45 2166
Width: 412
Flags: MW
HStem: 230 166<29 382 29 382>
VStem: 29 353<230 396 230 396>
LayerCount: 2
Back
Fore
SplineSet
29 230 m 1
 29 396 l 1
 382 396 l 1
 382 230 l 1
 29 230 l 1
EndSplineSet
Substitution2: "'case' Case-Sensitive Forms lookup 28 subtable" hyphen.case
Substitution2: "'aalt' Access All Alternates lookup 0 subtable" hyphen.case
EndChar
StartChar: period
Encoding: 46 46 2126
Width: 240
Flags: MW
HStem: -22 221<89.5 150.5>
VStem: 10 221<59 119>
LayerCount: 2
Back
Fore
SplineSet
120 199 m 0
 181 199 231 149 231 89 c 0
 231 29 181 -22 120 -22 c 0
 59 -22 10 29 10 89 c 0
 10 149 59 199 120 199 c 0
EndSplineSet
EndChar

StartChar: slash
Encoding: 47 47 994
Width: 520
Flags: MW
HStem: -120 945<239 282>
VStem: 42 436
LayerCount: 2
Fore
SplineSet
478 780 m 1
 239 -120 l 1
 42 -75 l 1
 282 825 l 1
 478 780 l 1
EndSplineSet
Substitution2: "'frac' Diagonal Fractions lookup 15 subtable" fraction
Substitution2: "'aalt' Access All Alternates lookup 0 subtable" fraction
EndChar

StartChar: zero
Encoding: 48 48 877
Width: 612
Flags: MW
HStem: -22 160<282 330.5 282 397> 541 159<282 330.5>
VStem: 21 226<258.5 421 258.5 456> 365 226<255 426>
LayerCount: 2
Fore
SplineSet
306 700 m 0
 488 700 591 572 591 340 c 0
 591 110 488 -22 306 -22 c 0
 124 -22 21 110 21 340 c 0
 21 572 124 700 306 700 c 0
306 541 m 0
 258 541 247 502 247 340 c 0
 247 177 258 138 306 138 c 0
 355 138 365 170 365 340 c 0
 365 512 355 541 306 541 c 0
EndSplineSet
Substitution2: "'zero' Slashed Zero lookup 28 subtable" zero.zero
Substitution2: "'onum' Oldstyle Figures lookup 22 subtable" zero.osf
Substitution2: "'tnum' Tabular Numbers lookup 21 subtable" zero.tf
Substitution2: "'frac' Diagonal Fractions lookup 16 subtable" zero.numr
Substitution2: "'dnom' Denominators lookup 14 subtable" zero.dnom
Substitution2: "'numr' Numerators lookup 13 subtable" zero.numr
Substitution2: "'sups' Superscript lookup 12 subtable" zerosuperior
Substitution2: "'subs' Subscript lookup 11 subtable" zeroinferior
AlternateSubs2: "'aalt' Access All Alternates lookup 1 subtable" zeroinferior zerosuperior zero.numr zero.dnom zero.tf zero.osf zero.zero
EndChar
StartChar: one
Encoding: 49 49 2012
Width: 493
Flags: MW
HStem: 0 21G<224 438 224 224>
VStem: 224 214<0 474 474 474>
LayerCount: 2
Back
Fore
SplineSet
438 682 m 1
 438 0 l 1
 224 0 l 1
 224 474 l 1
 88 391 l 1
 -8 535 l 1
 241 682 l 1
 438 682 l 1
EndSplineSet
Substitution2: "'onum' Oldstyle Figures lookup 25 subtable" one.osf
Substitution2: "'tnum' Tabular Numbers lookup 24 subtable" one.tf
Substitution2: "'frac' Diagonal Fractions lookup 18 subtable" one.numr
Substitution2: "'dnom' Denominators lookup 16 subtable" one.dnom
Substitution2: "'numr' Numerators lookup 15 subtable" one.numr
Substitution2: "'sups' Superscript lookup 14 subtable" uni00B9
Substitution2: "'subs' Subscript lookup 13 subtable" uni2081
AlternateSubs2: "'aalt' Access All Alternates lookup 1 subtable" uni2081 uni00B9 one.numr one.dnom one.tf one.osf
EndChar
StartChar: two
Encoding: 50 50 2013
Width: 538
Flags: MW
HStem: 0 164<270 503> 536 164<200.5 242>
VStem: 285 226<454 490.5>
LayerCount: 2
Back
Fore
SplineSet
248 700 m 0
 426 700 511 604 511 497 c 0
 511 411 488 343 270 164 c 1
 525 164 l 1
 503 0 l 1
 19 0 l 1
 19 150 l 1
 237 352 285 411 285 471 c 0
 285 510 262 536 222 536 c 0
 179 536 147 514 113 469 c 1
 -12 568 l 1
 42 644 131 700 248 700 c 0
EndSplineSet
Substitution2: "'onum' Oldstyle Figures lookup 25 subtable" two.osf
Substitution2: "'tnum' Tabular Numbers lookup 24 subtable" two.tf
Substitution2: "'frac' Diagonal Fractions lookup 18 subtable" two.numr
Substitution2: "'dnom' Denominators lookup 16 subtable" two.dnom
Substitution2: "'numr' Numerators lookup 15 subtable" two.numr
Substitution2: "'sups' Superscript lookup 14 subtable" uni00B2
Substitution2: "'subs' Subscript lookup 13 subtable" uni2082
AlternateSubs2: "'aalt' Access All Alternates lookup 1 subtable" uni2082 uni00B2 two.numr two.dnom two.tf two.osf
EndChar
StartChar: three
Encoding: 51 51 2014
Width: 539
Flags: MW
HStem: -22 165<199 244.5 199 338> 283 146<175 213 150 217> 541 159<199 243.5>
VStem: 292 212<487 505> 301 226<186 233.5>
LayerCount: 2
Back
Fore
SplineSet
252 700 m 0xf0
 417 700 504 627 504 527 c 0xf0
 504 447 460 389 369 360 c 1
 453 349 527 303 527 188 c 0
 527 80 435 -22 241 -22 c 0
 116 -22 33 26 -22 93 c 1
 92 205 l 1
 139 161 174 143 224 143 c 0
 265 143 301 163 301 209 c 0
 301 258 275 283 213 283 c 2xe8
 150 283 l 1
 175 429 l 1
 217 429 l 2
 271 429 292 453 292 487 c 0
 292 523 265 541 222 541 c 0
 176 541 132 520 97 485 c 1
 -11 598 l 1
 57 664 146 700 252 700 c 0xf0
EndSplineSet
Substitution2: "'onum' Oldstyle Figures lookup 25 subtable" three.osf
Substitution2: "'tnum' Tabular Numbers lookup 24 subtable" three.tf
Substitution2: "'frac' Diagonal Fractions lookup 18 subtable" three.numr
Substitution2: "'dnom' Denominators lookup 16 subtable" three.dnom
Substitution2: "'numr' Numerators lookup 15 subtable" three.numr
Substitution2: "'sups' Superscript lookup 14 subtable" uni00B3
Substitution2: "'subs' Subscript lookup 13 subtable" uni2083
AlternateSubs2: "'aalt' Access All Alternates lookup 1 subtable" uni2083 uni00B3 three.numr three.dnom three.tf three.osf
EndChar
StartChar: four
Encoding: 52 52 2015
Width: 597
Flags: MW
HStem: 0 21G<301 519 301 301> 127 163<242 301 519 585> 686 20G<199 199>
VStem: 301 218<0 127 0 127>
LayerCount: 2
Back
Fore
SplineSet
585 290 m 1
 585 127 l 1
 519 127 l 1
 519 0 l 1
 301 0 l 1
 301 127 l 1
 15 127 l 1
 15 270 l 1
 199 706 l 1
 389 640 l 1
 242 290 l 1
 303 290 l 1
 329 430 l 1
 519 430 l 1
 519 290 l 1
 585 290 l 1
EndSplineSet
Substitution2: "'onum' Oldstyle Figures lookup 25 subtable" four.osf
Substitution2: "'tnum' Tabular Numbers lookup 24 subtable" four.tf
Substitution2: "'frac' Diagonal Fractions lookup 18 subtable" four.numr
Substitution2: "'dnom' Denominators lookup 16 subtable" four.dnom
Substitution2: "'numr' Numerators lookup 15 subtable" four.numr
Substitution2: "'sups' Superscript lookup 14 subtable" uni2074
Substitution2: "'subs' Subscript lookup 13 subtable" uni2084
AlternateSubs2: "'aalt' Access All Alternates lookup 1 subtable" uni2084 uni2074 four.numr four.dnom four.tf four.osf
EndChar

StartChar: five
Encoding: 53 53 882
Width: 570
Flags: MW
HStem: -22 162<215 267 215 342.5> 316 144<244.5 405.5> 530 152<258 487 258 258>
VStem: 45 213<440 530 440 682 440 682> 323 226<199 260.5>
LayerCount: 2
Fore
SplineSet
487 530 m 1
 258 530 l 1
 258 440 l 1
 291 455 323 460 351 460 c 0
 460 460 549 379 549 232 c 0
 549 80 434 -22 251 -22 c 0
 132 -22 51 31 0 98 c 1
 121 207 l 1
 149 167 190 140 240 140 c 0
 294 140 323 170 323 228 c 0
 323 293 297 316 254 316 c 0
 235 316 215 310 187 292 c 1
 45 292 l 1
 45 682 l 1
 510 682 l 1
 487 530 l 1
EndSplineSet
Substitution2: "'onum' Oldstyle Figures lookup 22 subtable" five.osf
Substitution2: "'tnum' Tabular Numbers lookup 21 subtable" five.tf
Substitution2: "'frac' Diagonal Fractions lookup 16 subtable" five.numr
Substitution2: "'dnom' Denominators lookup 14 subtable" five.dnom
Substitution2: "'numr' Numerators lookup 13 subtable" five.numr
Substitution2: "'sups' Superscript lookup 12 subtable" fivesuperior
Substitution2: "'subs' Subscript lookup 11 subtable" fiveinferior
AlternateSubs2: "'aalt' Access All Alternates lookup 1 subtable" fiveinferior fivesuperior five.numr five.dnom five.tf five.osf
EndChar
StartChar: six
Encoding: 54 54 2017
Width: 593
Flags: MW
HStem: -22 153<288 329.5 288 399.5> 325 144<302.5 443> 550 150<336 380.5>
VStem: 21 233<240.5 308 240.5 423.5> 362 222<202.5 268.5>
LayerCount: 2
Back
Fore
SplineSet
382 469 m 0
 504 469 584 379 584 234 c 0
 584 106 491 -22 308 -22 c 0
 112 -22 21 107 21 304 c 0
 21 543 149 700 356 700 c 0
 428 700 487 679 524 653 c 1
 446 525 l 1
 421 540 398 550 363 550 c 0
 309 550 269 516 255 431 c 1
 296 457 340 469 382 469 c 0
311 131 m 0
 348 131 362 171 362 234 c 0
 362 303 350 325 309 325 c 0
 296 325 277 321 254 308 c 1
 254 173 265 131 311 131 c 0
EndSplineSet
Substitution2: "'onum' Oldstyle Figures lookup 25 subtable" six.osf
Substitution2: "'tnum' Tabular Numbers lookup 24 subtable" six.tf
Substitution2: "'frac' Diagonal Fractions lookup 18 subtable" six.numr
Substitution2: "'dnom' Denominators lookup 16 subtable" six.dnom
Substitution2: "'numr' Numerators lookup 15 subtable" six.numr
Substitution2: "'sups' Superscript lookup 14 subtable" uni2076
Substitution2: "'subs' Subscript lookup 13 subtable" uni2086
AlternateSubs2: "'aalt' Access All Alternates lookup 1 subtable" uni2086 uni2076 six.numr six.dnom six.tf six.osf
EndChar

StartChar: seven
Encoding: 55 55 884
Width: 491
Flags: MW
HStem: -22 21G<239 239> 520 162<0 251 0 485>
VStem: 0 485<539 539 539 682 539 682>
LayerCount: 2
Fore
SplineSet
485 539 m 1
 239 -22 l 1
 38 45 l 1
 251 520 l 1
 0 520 l 1
 0 682 l 1
 485 682 l 1
 485 539 l 1
EndSplineSet
Substitution2: "'onum' Oldstyle Figures lookup 22 subtable" seven.osf
Substitution2: "'tnum' Tabular Numbers lookup 21 subtable" seven.tf
Substitution2: "'frac' Diagonal Fractions lookup 16 subtable" seven.numr
Substitution2: "'dnom' Denominators lookup 14 subtable" seven.dnom
Substitution2: "'numr' Numerators lookup 13 subtable" seven.numr
Substitution2: "'sups' Superscript lookup 12 subtable" sevensuperior
Substitution2: "'subs' Subscript lookup 11 subtable" seveninferior
AlternateSubs2: "'aalt' Access All Alternates lookup 1 subtable" seveninferior sevensuperior seven.numr seven.dnom seven.tf seven.osf
EndChar
StartChar: nine
Encoding: 57 57 2020
Width: 595
Flags: MW
HStem: 226 148<156 296> 550 150<275 318.5>
VStem: 8 222<427.5 496.5 427.5 527> 353 229
LayerCount: 2
Back
Fore
SplineSet
295 700 m 0
 484 700 582 587 582 436 c 0
 582 162 429 13 98 -34 c 1
 55 117 l 1
 226 150 292 184 338 273 c 1
 301 240 267 226 209 226 c 0
 103 226 8 312 8 456 c 0
 8 598 130 700 295 700 c 0
230 468 m 0
 230 387 259 374 286 374 c 0
 306 374 332 383 353 410 c 1
 355 515 345 550 292 550 c 0
 258 550 230 525 230 468 c 0
EndSplineSet
Substitution2: "'onum' Oldstyle Figures lookup 25 subtable" nine.osf
Substitution2: "'tnum' Tabular Numbers lookup 24 subtable" nine.tf
Substitution2: "'frac' Diagonal Fractions lookup 18 subtable" nine.numr
Substitution2: "'dnom' Denominators lookup 16 subtable" nine.dnom
Substitution2: "'numr' Numerators lookup 15 subtable" nine.numr
Substitution2: "'sups' Superscript lookup 14 subtable" uni2079
Substitution2: "'subs' Subscript lookup 13 subtable" uni2089
AlternateSubs2: "'aalt' Access All Alternates lookup 1 subtable" uni2089 uni2079 nine.numr nine.dnom nine.tf nine.osf
EndChar

StartChar: colon
Encoding: 58 58 982
Width: 240
Flags: MW
HStem: -22 21G<89.5 150.5> -22 221<89.5 150.5> 302 221<89.5 150.5>
VStem: 10 221<59 119 383 443>
LayerCount: 2
Fore
SplineSet
120 523 m 0xb0
 181 523 231 473 231 413 c 0
 231 353 181 302 120 302 c 0
 59 302 10 353 10 413 c 0
 10 473 59 523 120 523 c 0xb0
120 199 m 0x70
 181 199 231 149 231 89 c 0
 231 29 181 -22 120 -22 c 0
 59 -22 10 29 10 89 c 0
 10 149 59 199 120 199 c 0x70
EndSplineSet
EndChar
StartChar: less
Encoding: 60 60 2259
Width: 537
GlyphClass: 2
Flags: MW
HStem: 66 534<451 451>
VStem: 19 498<221 424 221 424>
LayerCount: 2
Back
Fore
SplineSet
451 600 m 1
 517 455 l 1
 213 333 l 1
 517 221 l 1
 451 66 l 1
 19 241 l 1
 19 424 l 1
 451 600 l 1
EndSplineSet
Substitution2: "'onum' Oldstyle Figures lookup 25 subtable" less.osf
Substitution2: "'tnum' Tabular Numbers lookup 24 subtable" less.tf
AlternateSubs2: "'aalt' Access All Alternates lookup 1 subtable" less.tf less.osf
EndChar
StartChar: equal
Encoding: 61 61 2251
Width: 537
GlyphClass: 2
Flags: MW
HStem: 136 166<35 502 35 502> 362 167<35 502 35 502>
VStem: 35 467<136 302 136 302 362 529 136 529>
LayerCount: 2
Back
Fore
SplineSet
35 362 m 1
 35 529 l 1
 502 529 l 1
 502 362 l 1
 35 362 l 1
35 136 m 1
 35 302 l 1
 502 302 l 1
 502 136 l 1
 35 136 l 1
EndSplineSet
Substitution2: "'onum' Oldstyle Figures lookup 25 subtable" equal.osf
Substitution2: "'tnum' Tabular Numbers lookup 24 subtable" equal.tf
Substitution2: "'dnom' Denominators lookup 16 subtable" equal.dnom
Substitution2: "'numr' Numerators lookup 15 subtable" equal.numr
Substitution2: "'sups' Superscript lookup 14 subtable" uni207C
AlternateSubs2: "'aalt' Access All Alternates lookup 1 subtable" uni207C equal.numr equal.dnom equal.tf equal.osf
EndChar

StartChar: greater
Encoding: 62 62 1096
Width: 537
Flags: MW
HStem: 66 534<85 85>
VStem: 19 498<221 424 241 455>
LayerCount: 2
Fore
SplineSet
517 424 m 1
 517 241 l 1
 85 66 l 1
 19 221 l 1
 324 333 l 1
 19 455 l 1
 85 600 l 1
 517 424 l 1
EndSplineSet
Substitution2: "'onum' Oldstyle Figures lookup 22 subtable" greater.osf
Substitution2: "'tnum' Tabular Numbers lookup 21 subtable" greater.tf
AlternateSubs2: "'aalt' Access All Alternates lookup 1 subtable" greater.tf greater.osf
EndChar

StartChar: question
Encoding: 63 63 989
Width: 503
Flags: MW
HStem: -22 21G<197.5 258.5> -22 221<197.5 258.5> 548 171<216 245>
VStem: 118 221<59 119> 130 195<279 285 279 291 279 380> 272 232<491 528.5>
LayerCount: 2
Fore
SplineSet
258 719 m 0xa4
 423 719 504 638 504 541 c 0xa4
 504 376 325 379 325 285 c 2
 325 279 l 1
 130 279 l 1
 130 291 l 2xa8
 130 469 272 463 272 519 c 0
 272 538 258 548 232 548 c 0
 200 548 167 529 136 498 c 1
 -1 604 l 1
 55 670 135 719 258 719 c 0xa4
228 199 m 0x70
 289 199 339 149 339 89 c 0
 339 29 289 -22 228 -22 c 0
 167 -22 118 29 118 89 c 0
 118 149 167 199 228 199 c 0x70
EndSplineSet
EndChar

StartChar: at
Encoding: 64 64 1218
Width: 1020
Flags: MW
HStem: -230 156<424.5 559.5 424.5 566> -1 125<731 758 731 819> 5 131<491.5 506.5> 381 132<505.5 517> 566 153<423.5 626>
VStem: 27 191<142 342.5 142 385.5> 281 193<191 297 191 313> 534 183<188 229 229 377 377 377> 804 189<238.5 400>
LayerCount: 2
Fore
SplineSet
528 513 m 0xdf80
 585 513 664 493 717 463 c 1
 717 229 l 2
 717 147 718 124 744 124 c 0
 772 124 804 155 804 322 c 0
 804 478 726 566 526 566 c 0
 321 566 218 440 218 245 c 0
 218 39 321 -74 528 -74 c 0
 591 -74 680 -58 729 -39 c 1
 779 -185 l 1
 719 -210 605 -230 527 -230 c 0
 217 -230 27 -46 27 244 c 0
 27 527 243 719 527 719 c 0
 817 719 993 526 993 324 c 0
 993 126 884 -1 754 -1 c 0xdf80
 678 -1 626 48 616 100 c 1
 589 38 539 5 474 5 c 0xbf80
 326 5 281 109 281 235 c 0
 281 391 358 513 528 513 c 0xdf80
503 136 m 0xbf80
 512 136 525 139 534 152 c 1
 534 377 l 1
 524 381 520 381 514 381 c 0
 497 381 474 361 474 233 c 0
 474 149 480 136 503 136 c 0xbf80
EndSplineSet
EndChar

StartChar: A
Encoding: 65 65 1
Width: 607
GlyphClass: 2
Flags: MW
HStem: 0 21G<-32 210 -32 -32 395 395 395 639> 126 160<258 345 258 373 231 345> 539 159<301 301> 678 20G<167 441 441 441>
VStem: -32 671<0 0>
AnchorPoint: "Anchor-11" 0 0 basechar 0
AnchorPoint: "Anchor-10" 152 698 basechar 0
AnchorPoint: "Anchor-9" 304 698 basechar 0
AnchorPoint: "Anchor-8" 524 0 basechar 0
LayerCount: 2
Fore
SplineSet
373 126 m 1xd8
 231 126 l 1
 210 0 l 1
 -32 0 l 1
 167 698 l 1
 441 698 l 1
 639 0 l 1
 395 0 l 1
 373 126 l 1xd8
345 286 m 1
 301 539 l 1xe8
 258 286 l 1
 345 286 l 1
EndSplineSet
Substitution2: "Single Substitution lookup 30 subtable" ordfeminine
Substitution2: "'c2sc' Capitals to Small Capitals lookup 23 subtable" a.sc
AlternateSubs2: "'aalt' Access All Alternates lookup 1 subtable" ordfeminine a.sc
Position2: "'cpsp' Capital Spacing lookup 0 subtable" dx=5 dy=0 dh=10 dv=0
EndChar

StartChar: B
Encoding: 66 66 13
Width: 625
GlyphClass: 2
Flags: MW
HStem: 0 161<261 286> 291 143<261 281 281 295 261 281> 542 156<261 261 261 280>
VStem: 30 231<161 291 434 542> 354 234<470.5 507.5> 380 237<198.5 247.5>
LayerCount: 2
Fore
SplineSet
463 370 m 1xf4
 538 354 617 315 617 208 c 0xf4
 617 39 475 0 286 0 c 2
 30 0 l 1
 30 698 l 1
 259 698 l 2
 460 698 588 656 588 516 c 0xf8
 588 425 524 387 463 370 c 1xf4
261 542 m 1
 261 434 l 1
 281 434 l 2
 340 434 354 448 354 492 c 0
 354 523 338 542 280 542 c 2xf8
 261 542 l 1
289 161 m 2xf4
 343 161 380 172 380 225 c 0
 380 270 354 291 295 291 c 2
 261 291 l 1
 261 161 l 1
 289 161 l 2xf4
EndSplineSet
Substitution2: "'c2sc' Capitals to Small Capitals lookup 23 subtable" b.sc
Substitution2: "'aalt' Access All Alternates lookup 0 subtable" b.sc
Position2: "'cpsp' Capital Spacing lookup 0 subtable" dx=5 dy=0 dh=10 dv=0
EndChar
StartChar: E
Encoding: 69 69 67
Width: 517
GlyphClass: 2
Flags: MW
HStem: 0 159<261 498 261 498> 278 153<261 456 261 456> 539 159<261 483 261 261>
VStem: 30 231<159 278 431 539>
AnchorPoint: "Anchor-14" 0 0 basechar 0
AnchorPoint: "Anchor-13" 0 0 basechar 0
AnchorPoint: "Anchor-12" 268 698 basechar 0
AnchorPoint: "Anchor-11" 468 0 basechar 0
AnchorPoint: "Anchor-10" 264 0 basechar 0
LayerCount: 2
Back
Fore
SplineSet
506 698 m 1
 483 539 l 1
 261 539 l 1
 261 431 l 1
 456 431 l 1
 456 278 l 1
 261 278 l 1
 261 159 l 1
 498 159 l 1
 498 0 l 1
 30 0 l 1
 30 698 l 1
 506 698 l 1
EndSplineSet
Substitution2: "'c2sc' Capitals to Small Capitals lookup 26 subtable" e.sc
Substitution2: "'aalt' Access All Alternates lookup 0 subtable" e.sc
Position2: "'cpsp' Capital Spacing lookup 0 subtable" dx=5 dy=0 dh=10 dv=0
EndChar
StartChar: F
Encoding: 70 70 95
Width: 484
GlyphClass: 2
Flags: MW
HStem: 0 21G<30 261 30 30> 248 158<261 442 261 442> 539 159<261 466 261 261>
VStem: 30 231<0 248 406 539>
AnchorPoint: "Anchor-14" 0 0 basechar 0
AnchorPoint: "Anchor-13" 0 0 basechar 0
AnchorPoint: "Anchor-12" 270 698 basechar 0
AnchorPoint: "Anchor-11" 0 0 basechar 0
AnchorPoint: "Anchor-10" 0 0 basechar 0
LayerCount: 2
Back
Fore
SplineSet
489 698 m 1
 466 539 l 1
 261 539 l 1
 261 406 l 1
 442 406 l 1
 442 248 l 1
 261 248 l 1
 261 0 l 1
 30 0 l 1
 30 698 l 1
 489 698 l 1
EndSplineSet
Substitution2: "'c2sc' Capitals to Small Capitals lookup 26 subtable" f.sc
Substitution2: "'aalt' Access All Alternates lookup 0 subtable" f.sc
Position2: "'cpsp' Capital Spacing lookup 0 subtable" dx=5 dy=0 dh=10 dv=0
EndChar
StartChar: G
Encoding: 71 71 98
Width: 658
GlyphClass: 2
Flags: MW
HStem: -22 162<314 361.5 314 401.5> 262 153<349 408 349 349> 560 159<342 415.5>
VStem: 12 237<266 419.5 266 468.5> 408 221<153 262 262 262>
AnchorPoint: "Anchor-14" 0 0 basechar 0
AnchorPoint: "Anchor-13" 0 0 basechar 0
AnchorPoint: "Anchor-12" 349 698 basechar 0
AnchorPoint: "Anchor-11" 0 0 basechar 0
AnchorPoint: "Anchor-10" 352 0 basechar 0
LayerCount: 2
Back
Fore
SplineSet
375 719 m 0
 483 719 576 676 631 625 c 1
 516 507 l 1
 475 542 441 560 390 560 c 0
 294 560 249 490 249 349 c 0
 249 183 278 140 350 140 c 0
 373 140 389 145 408 153 c 1
 408 262 l 1
 349 262 l 1
 329 415 l 1
 629 415 l 1
 629 62 l 1
 551 8 444 -22 359 -22 c 0
 112 -22 12 113 12 350 c 0
 12 587 164 719 375 719 c 0
EndSplineSet
Substitution2: "'c2sc' Capitals to Small Capitals lookup 26 subtable" g.sc
Substitution2: "'aalt' Access All Alternates lookup 0 subtable" g.sc
Position2: "'cpsp' Capital Spacing lookup 0 subtable" dx=5 dy=0 dh=10 dv=0
EndChar

StartChar: H
Encoding: 72 72 40
Width: 652
GlyphClass: 2
Flags: MW
HStem: 0 21G<30 261 30 30 391 391 391 622> 271 177<261 391 261 391> 678 20G<30 261 261 261 391 622 622 622>
VStem: 30 231<0 271 0 448 448 698> 391 231<0 271 271 271 448 698 0 698>
AnchorPoint: "Anchor-11" 0 0 basechar 0
AnchorPoint: "Anchor-10" 32 698 basechar 0
AnchorPoint: "Anchor-9" 327 698 basechar 0
AnchorPoint: "Anchor-8" 0 0 basechar 0
LayerCount: 2
Fore
SplineSet
391 271 m 1
 261 271 l 1
 261 0 l 1
 30 0 l 1
 30 698 l 1
 261 698 l 1
 261 448 l 1
 391 448 l 1
 391 698 l 1
 622 698 l 1
 622 0 l 1
 391 0 l 1
 391 271 l 1
EndSplineSet
Substitution2: "'c2sc' Capitals to Small Capitals lookup 23 subtable" h.sc
Substitution2: "'aalt' Access All Alternates lookup 0 subtable" h.sc
Position2: "'cpsp' Capital Spacing lookup 0 subtable" dx=5 dy=0 dh=10 dv=0
EndChar
StartChar: I
Encoding: 73 73 118
Width: 291
GlyphClass: 2
Flags: MW
HStem: 0 21G<30 261 30 30> 678 20G<30 261 261 261>
VStem: 30 231<0 698 0 698>
AnchorPoint: "Anchor-14" 0 0 basechar 0
AnchorPoint: "Anchor-13" 0 0 basechar 0
AnchorPoint: "Anchor-12" 146 698 basechar 0
AnchorPoint: "Anchor-11" 215 0 basechar 0
AnchorPoint: "Anchor-10" 146 0 basechar 0
LayerCount: 2
Back
Fore
SplineSet
261 698 m 1
 261 0 l 1
 30 0 l 1
 30 698 l 1
 261 698 l 1
EndSplineSet
Substitution2: "'c2sc' Capitals to Small Capitals lookup 26 subtable" i.sc
Substitution2: "'aalt' Access All Alternates lookup 0 subtable" i.sc
Position2: "'cpsp' Capital Spacing lookup 0 subtable" dx=5 dy=0 dh=10 dv=0
EndChar
StartChar: J
Encoding: 74 74 137
Width: 329
GlyphClass: 2
Flags: MW
HStem: 678 20G<70 301 301 301>
VStem: 70 231<122 698>
AnchorPoint: "Anchor-14" 0 0 basechar 0
AnchorPoint: "Anchor-13" 0 0 basechar 0
AnchorPoint: "Anchor-12" 185 698 basechar 0
AnchorPoint: "Anchor-11" 0 0 basechar 0
AnchorPoint: "Anchor-10" 0 0 basechar 0
LayerCount: 2
Back
Fore
SplineSet
301 698 m 1
 301 114 l 2
 301 -91 159 -160 36 -201 c 1
 -26 -39 l 1
 63 -5 70 48 70 122 c 2
 70 698 l 1
 301 698 l 1
EndSplineSet
Substitution2: "'c2sc' Capitals to Small Capitals lookup 26 subtable" j.sc
Substitution2: "'aalt' Access All Alternates lookup 0 subtable" j.sc
Position2: "'cpsp' Capital Spacing lookup 0 subtable" dx=5 dy=0 dh=10 dv=0
EndChar

StartChar: K
Encoding: 75 75 56
Width: 675
GlyphClass: 2
Flags: MW
HStem: 0 21G<30 261 30 30 439 439 439 699> 678 20G<30 261 261 261 446 682 682 682>
VStem: 30 231<0 698>
AnchorPoint: "Anchor-11" 333 0 basechar 0
AnchorPoint: "Anchor-10" 0 0 basechar 0
AnchorPoint: "Anchor-9" 330 698 basechar 0
AnchorPoint: "Anchor-8" 0 0 basechar 0
LayerCount: 2
Fore
SplineSet
261 0 m 1
 30 0 l 1
 30 698 l 1
 261 698 l 1
 261 0 l 1
499 390 m 1
 699 0 l 1
 439 0 l 1
 267 372 l 1
 446 698 l 1
 682 698 l 1
 499 390 l 1
EndSplineSet
Substitution2: "'c2sc' Capitals to Small Capitals lookup 23 subtable" k.sc
Substitution2: "'aalt' Access All Alternates lookup 0 subtable" k.sc
Position2: "'cpsp' Capital Spacing lookup 0 subtable" dx=5 dy=0 dh=10 dv=0
EndChar
StartChar: L
Encoding: 76 76 144
Width: 527
GlyphClass: 2
Flags: MW
HStem: 0 175<261 496> 678 20G<30 261 261 261>
VStem: 30 231<175 698 175 698 175 698>
AnchorPoint: "Anchor-14" 406 407 basechar 0
AnchorPoint: "Anchor-13" 269 698 basechar 0
AnchorPoint: "Anchor-12" 146 698 basechar 0
AnchorPoint: "Anchor-11" 0 0 basechar 0
AnchorPoint: "Anchor-10" 263 0 basechar 0
LayerCount: 2
Back
Fore
SplineSet
261 698 m 1
 261 175 l 1
 520 175 l 1
 496 0 l 1
 30 0 l 1
 30 698 l 1
 261 698 l 1
EndSplineSet
Substitution2: "'c2sc' Capitals to Small Capitals lookup 26 subtable" l.sc
Substitution2: "'aalt' Access All Alternates lookup 0 subtable" l.sc
Position2: "'cpsp' Capital Spacing lookup 0 subtable" dx=5 dy=0 dh=10 dv=0
EndChar

StartChar: M
Encoding: 77 77 64
Width: 790
GlyphClass: 2
Flags: MW
HStem: 0 21G<4 233 4 4 561 790 561 561> 517 181<215 215 573 573> 678 20G<53 335 335 335 458 741 741 741>
VStem: 4 786<0 0>
LayerCount: 2
Fore
SplineSet
790 0 m 1xb0
 561 0 l 1
 561 233 l 1
 560 318 562 403 573 517 c 1
 506 68 l 1
 287 68 l 1
 215 517 l 1xd0
 228 394 235 328 234 235 c 2
 233 0 l 1
 4 0 l 1
 53 698 l 1
 335 698 l 1
 401 258 l 1
 458 698 l 1
 741 698 l 1
 790 0 l 1xb0
EndSplineSet
Substitution2: "'c2sc' Capitals to Small Capitals lookup 23 subtable" m.sc
Substitution2: "'aalt' Access All Alternates lookup 0 subtable" m.sc
Position2: "'cpsp' Capital Spacing lookup 0 subtable" dx=5 dy=0 dh=10 dv=0
EndChar

StartChar: N
Encoding: 78 78 65
Width: 644
GlyphClass: 2
Flags: MW
HStem: 0 21G<30 233 30 30 326 614 326 326> 678 20G<30 312 312 312 411 614 614 614>
VStem: 30 203<0 193 0 698> 411 203<509 698>
AnchorPoint: "Anchor-11" 322 0 basechar 0
AnchorPoint: "Anchor-10" 0 0 basechar 0
AnchorPoint: "Anchor-9" 320 698 basechar 0
AnchorPoint: "Anchor-8" 0 0 basechar 0
LayerCount: 2
Fore
SplineSet
614 0 m 1
 326 0 l 1
 203 491 l 1
 214 421 233 323 233 193 c 2
 233 0 l 1
 30 0 l 1
 30 698 l 1
 312 698 l 1
 442 205 l 1
 427 301 411 374 411 509 c 2
 411 698 l 1
 614 698 l 1
 614 0 l 1
EndSplineSet
Substitution2: "'c2sc' Capitals to Small Capitals lookup 23 subtable" n.sc
Substitution2: "'aalt' Access All Alternates lookup 0 subtable" n.sc
Position2: "'cpsp' Capital Spacing lookup 0 subtable" dx=5 dy=0 dh=10 dv=0
EndChar

StartChar: U
Encoding: 85 85 101
Width: 640
GlyphClass: 2
Flags: MW
HStem: -22 164<294.5 345.5 294.5 422.5> 678 20G<20 251 251 251 389 620 620 620>
VStem: 20 231<239 245 245 698> 389 231<245 698>
AnchorPoint: "Anchor-11" 0 0 basechar 0
AnchorPoint: "Anchor-10" 0 0 basechar 0
AnchorPoint: "Anchor-9" 320 698 basechar 0
AnchorPoint: "Anchor-8" 467 0 basechar 0
LayerCount: 2
Fore
SplineSet
620 239 m 2
 620 96 525 -22 320 -22 c 0
 115 -22 20 84 20 239 c 2
 20 698 l 1
 251 698 l 1
 251 245 l 2
 251 175 269 142 320 142 c 0
 371 142 389 175 389 245 c 2
 389 698 l 1
 620 698 l 1
 620 239 l 2
EndSplineSet
Substitution2: "'c2sc' Capitals to Small Capitals lookup 23 subtable" u.sc
Substitution2: "'aalt' Access All Alternates lookup 0 subtable" u.sc
Position2: "'cpsp' Capital Spacing lookup 0 subtable" dx=5 dy=0 dh=10 dv=0
EndChar

StartChar: V
Encoding: 86 86 112
Width: 584
GlyphClass: 2
Flags: MW
HStem: 0 21G<147 450 147 147> 0 152<302 302 302 450> 678 20G<-32 211 211 211 379 616 616 616>
VStem: -32 648<698 698>
LayerCount: 2
Fore
SplineSet
450 0 m 1xb0
 147 0 l 1
 -32 698 l 1
 211 698 l 1
 302 152 l 1x70
 379 698 l 1
 616 698 l 1
 450 0 l 1xb0
EndSplineSet
Substitution2: "'c2sc' Capitals to Small Capitals lookup 23 subtable" v.sc
Substitution2: "'aalt' Access All Alternates lookup 0 subtable" v.sc
Position2: "'cpsp' Capital Spacing lookup 0 subtable" dx=5 dy=0 dh=10 dv=0
EndChar
StartChar: X
Encoding: 88 88 301
Width: 621
GlyphClass: 2
Flags: MW
HStem: 0 21G<-13 231 -13 -13 387 634 387 387> 678 20G<-2 245 245 245 379 622 622 622>
VStem: -13 647<0 0>
LayerCount: 2
Back
Fore
SplineSet
444 376 m 1
 634 0 l 1
 387 0 l 1
 305 224 l 1
 231 0 l 1
 -13 0 l 1
 168 369 l 1
 -2 698 l 1
 245 698 l 1
 307 511 l 1
 379 698 l 1
 622 698 l 1
 444 376 l 1
EndSplineSet
Substitution2: "'c2sc' Capitals to Small Capitals lookup 26 subtable" x.sc
Substitution2: "'aalt' Access All Alternates lookup 0 subtable" x.sc
Position2: "'cpsp' Capital Spacing lookup 0 subtable" dx=5 dy=0 dh=10 dv=0
EndChar
StartChar: Y
Encoding: 89 89 302
Width: 636
GlyphClass: 2
Flags: MW
HStem: 0 21G<202 433 202 202> 678 20G<-20 233 233 233 410 655 655 655>
VStem: 202 231<0 254 254 254>
AnchorPoint: "Anchor-14" 0 0 basechar 0
AnchorPoint: "Anchor-13" 0 0 basechar 0
AnchorPoint: "Anchor-12" 318 698 basechar 0
AnchorPoint: "Anchor-11" 0 0 basechar 0
AnchorPoint: "Anchor-10" 318 0 basechar 0
LayerCount: 2
Back
Fore
SplineSet
655 698 m 1
 433 255 l 1
 433 0 l 1
 202 0 l 1
 202 254 l 1
 -20 698 l 1
 233 698 l 1
 321 426 l 1
 410 698 l 1
 655 698 l 1
EndSplineSet
Substitution2: "'c2sc' Capitals to Small Capitals lookup 26 subtable" y.sc
Substitution2: "'aalt' Access All Alternates lookup 0 subtable" y.sc
Position2: "'cpsp' Capital Spacing lookup 0 subtable" dx=5 dy=0 dh=10 dv=0
EndChar

StartChar: Z
Encoding: 90 90 124
Width: 565
GlyphClass: 2
Flags: MW
HStem: 0 179<283 535> 524 174<32 278 32 546>
VStem: 5 552<0 179 168 179>
AnchorPoint: "Anchor-11" 0 0 basechar 0
AnchorPoint: "Anchor-10" 0 0 basechar 0
AnchorPoint: "Anchor-9" 281 698 basechar 0
AnchorPoint: "Anchor-8" 0 0 basechar 0
LayerCount: 2
Fore
SplineSet
546 527 m 1
 283 179 l 1
 557 179 l 1
 535 0 l 1
 5 0 l 1
 5 168 l 1
 278 524 l 1
 32 524 l 1
 32 698 l 1
 546 698 l 1
 546 527 l 1
EndSplineSet
Substitution2: "'c2sc' Capitals to Small Capitals lookup 23 subtable" z.sc
Substitution2: "'aalt' Access All Alternates lookup 0 subtable" z.sc
Position2: "'cpsp' Capital Spacing lookup 0 subtable" dx=5 dy=0 dh=10 dv=0
EndChar

StartChar: bracketleft
Encoding: 91 91 1005
Width: 326
Flags: MW
HStem: -129 156<215 325 215 325> 672 157<215 325 215 215>
VStem: 4 211<27 672 27 829 27 829>
LayerCount: 2
Fore
SplineSet
325 672 m 1
 215 672 l 1
 215 27 l 1
 325 27 l 1
 325 -129 l 1
 4 -129 l 1
 4 829 l 1
 325 829 l 1
 325 672 l 1
EndSplineSet
Substitution2: "'case' Case-Sensitive Forms lookup 25 subtable" bracketleft.case
Substitution2: "'aalt' Access All Alternates lookup 0 subtable" bracketleft.case
EndChar

StartChar: backslash
Encoding: 92 92 979
Width: 520
Flags: MW
HStem: -120 945<238 281>
VStem: 42 436
LayerCount: 2
Fore
SplineSet
478 -75 m 1
 281 -120 l 1
 42 780 l 1
 238 825 l 1
 478 -75 l 1
EndSplineSet
EndChar

StartChar: bracketright
Encoding: 93 93 1006
Width: 326
Flags: MW
HStem: -129 158<1 111 1 322 1 111> 673 156<1 111 1 322>
VStem: 111 211<29 673 673 673>
LayerCount: 2
Fore
SplineSet
322 -129 m 1
 1 -129 l 1
 1 29 l 1
 111 29 l 1
 111 673 l 1
 1 673 l 1
 1 829 l 1
 322 829 l 1
 322 -129 l 1
EndSplineSet
Substitution2: "'case' Case-Sensitive Forms lookup 25 subtable" bracketright.case
Substitution2: "'aalt' Access All Alternates lookup 0 subtable" bracketright.case
EndChar
StartChar: asciicircum
Encoding: 94 94 2383
Width: 577
GlyphClass: 2
Flags: MW
HStem: 527 322<186 212 -3 391 370 391 186 580 370 370>
VStem: -3 583<527 527>
LayerCount: 2
Back
Fore
SplineSet
391 849 m 1
 580 527 l 1
 370 527 l 1
 287 693 l 1
 212 527 l 1
 -3 527 l 1
 186 849 l 1
 391 849 l 1
EndSplineSet
EndChar
StartChar: underscore
Encoding: 95 95 2136
Width: 520
Flags: MW
HStem: -198 166<2 518 2 518>
VStem: 2 516<-198 -32 -198 -32>
LayerCount: 2
Back
Fore
SplineSet
2 -198 m 1
 2 -32 l 1
 518 -32 l 1
 518 -198 l 1
 2 -198 l 1
EndSplineSet
EndChar
StartChar: grave
Encoding: 96 96 2531
Width: 378
Flags: MW
HStem: 689 20G<30 30> 698 20G<348 348>
VStem: 30 318<709 718>
LayerCount: 2
Back
Fore
SplineSet
111 868 m 1x60
 348 718 l 1x60
 290 607 l 1
 30 709 l 1xa0
 111 868 l 1x60
EndSplineSet
Substitution2: "Single Substitution lookup 41 subtable" grave.case
Substitution2: "'case' Case-Sensitive Forms lookup 28 subtable" grave.case
Substitution2: "'smcp' Lowercase to Small Capitals lookup 27 subtable" grave.sc
Substitution2: "'c2sc' Capitals to Small Capitals lookup 26 subtable" grave.sc
AlternateSubs2: "'aalt' Access All Alternates lookup 1 subtable" grave.sc grave.case
EndChar

StartChar: b
Encoding: 98 98 146
Width: 600
GlyphClass: 2
Flags: MW
HStem: -22 21G<342 440> 0 135<30 321> 400 157<301.5 455> 537 20G<360.5 455> 725 20G<30 30> 747 20G<252 252>
VStem: 30 222<171 358 493 745 745 745> 361 226<214 326>
LayerCount: 2
Fore
SplineSet
384 557 m 0x97
 526 557 587 446 587 266 c 0
 587 104 508 -22 372 -22 c 0
 312 -22 264 3 234 44 c 1x97
 228 0 l 1
 30 0 l 1
 30 745 l 1x5b
 252 767 l 1
 252 493 l 1
 280 531 337 557 384 557 c 0x97
305 135 m 0x67
 337 135 361 162 361 266 c 0
 361 386 337 400 311 400 c 0
 292 400 271 391 252 358 c 1
 252 171 l 1
 251 167 l 1
 265 144 282 135 305 135 c 0x67
EndSplineSet
Substitution2: "'smcp' Lowercase to Small Capitals lookup 24 subtable" b.sc
Substitution2: "'aalt' Access All Alternates lookup 0 subtable" b.sc
EndChar

StartChar: d
Encoding: 100 100 153
Width: 602
GlyphClass: 2
Flags: MW
HStem: -22 21G<146 257> 0 21G<374 572 374 374> 0 136<282.5 572 282.5 374> 401 156<173.5 315> 537 20G<173.5 263> 725 20G<572 572> 747 20G<350 350>
VStem: 13 226<206.5 320 206.5 355.5> 350 222<175 379 379 379 521 745 0 767 0 767>
LayerCount: 2
Fore
SplineSet
572 745 m 1x4d80
 572 0 l 1
 374 0 l 1x4b80
 367 52 l 1
 341 18 297 -22 217 -22 c 0
 75 -22 13 93 13 272 c 0
 13 439 101 557 246 557 c 0
 280 557 321 545 350 521 c 1
 350 767 l 1x8b80
 572 745 l 1x4d80
297 136 m 0x3380
 314 136 334 147 350 175 c 1
 350 379 l 1
 336 393 324 401 306 401 c 0
 270 401 239 371 239 269 c 0
 239 144 268 136 297 136 c 0x3380
EndSplineSet
Substitution2: "'smcp' Lowercase to Small Capitals lookup 24 subtable" d.sc
Substitution2: "'aalt' Access All Alternates lookup 0 subtable" d.sc
EndChar

StartChar: g
Encoding: 103 103 168
Width: 581
GlyphClass: 2
Flags: MW
HStem: -230 137<238.5 313 238.5 369> -230 182<154.5 186 -12 369> -24 146<166.5 351 276 308> 154 141<280.5 298.5 269.5 366.5> 415 142<269.5 275 195 299.5>
VStem: -12 198<-65 -48 -65 -48> 13 220<334 377.5 334 419> 332 204<337.5 367.5 279 381> 353 223<-62.5 -49>
AnchorPoint: "Anchor-11" 0 0 basechar 0
AnchorPoint: "Anchor-10" 0 0 basechar 0
AnchorPoint: "Anchor-9" 293 536 basechar 0
AnchorPoint: "Anchor-8" 0 0 basechar 0
LayerCount: 2
Fore
SplineSet
581 497 m 1xbb
 551 482 502 471 430 471 c 1
 502 442 536 406 536 329 c 0xbb
 536 229 442 154 291 154 c 0
 270 154 254 153 236 156 c 1
 230 153 228 149 228 143 c 0
 228 137 228 122 276 122 c 2
 351 122 l 2
 491 122 576 56 576 -40 c 0
 576 -155 469 -230 269 -230 c 0xbc80
 40 -230 -12 -151 -12 -48 c 1
 186 -48 l 1x7d
 186 -82 200 -93 277 -93 c 0
 349 -93 353 -70 353 -55 c 0
 353 -43 347 -24 308 -24 c 2xba80
 236 -24 l 2
 97 -24 46 24 46 84 c 0
 46 128 76 171 115 195 c 1
 40 235 13 284 13 353 c 0
 13 485 115 557 275 557 c 1
 382 553 468 598 535 647 c 1
 581 497 l 1xbb
283 415 m 0
 256 415 233 398 233 357 c 0
 233 311 257 295 282 295 c 0
 315 295 332 314 332 361 c 0
 332 401 316 415 283 415 c 0
EndSplineSet
Substitution2: "'smcp' Lowercase to Small Capitals lookup 24 subtable" g.sc
Substitution2: "'aalt' Access All Alternates lookup 0 subtable" g.sc
EndChar

StartChar: i
Encoding: 105 105 176
Width: 282
GlyphClass: 2
Flags: MW
HStem: 0 21G<30 252 30 30> 516 20G<30 252 252 252> 608 232<106.5 177.5>
VStem: 20 243<691.5 757> 30 222<0 536>
AnchorPoint: "Anchor-11" 0 0 basechar 0
AnchorPoint: "Anchor-10" 0 0 basechar 0
AnchorPoint: "Anchor-9" 141 536 basechar 0
AnchorPoint: "Anchor-8" 213 0 basechar 0
LayerCount: 2
Fore
SplineSet
142 840 m 0xf0
 213 840 263 790 263 724 c 0
 263 659 213 608 142 608 c 0
 71 608 20 659 20 724 c 0
 20 790 71 840 142 840 c 0xf0
252 0 m 1xe8
 30 0 l 1
 30 536 l 1
 252 536 l 1
 252 0 l 1xe8
EndSplineSet
Substitution2: "'smcp' Lowercase to Small Capitals lookup 24 subtable" i.sc
Substitution2: "'locl' Localized Forms in Latin lookup 10 subtable" i.loclTRK
Substitution2: "'locl' Localized Forms in Latin lookup 8 subtable" i.loclTRK
Substitution2: "'locl' Localized Forms in Latin lookup 6 subtable" i.loclTRK
Substitution2: "'locl' Localized Forms in Latin lookup 3 subtable" i.loclTRK
Substitution2: "'locl' Localized Forms in Latin lookup 2 subtable" i.loclTRK
AlternateSubs2: "'aalt' Access All Alternates lookup 1 subtable" i.loclTRK i.sc
EndChar
StartChar: j
Encoding: 106 106 498
Width: 282
GlyphClass: 2
Flags: MW
HStem: 516 20G<30 252 252 252> 608 232<106.5 177.5>
VStem: 20 243<691.5 757> 30 222<74 87 87 536>
AnchorPoint: "Anchor-14" 0 0 basechar 0
AnchorPoint: "Anchor-13" 0 0 basechar 0
AnchorPoint: "Anchor-12" 143 840 basechar 0
AnchorPoint: "Anchor-11" 0 0 basechar 0
AnchorPoint: "Anchor-10" 141 -218 basechar 0
LayerCount: 2
Back
Fore
SplineSet
142 840 m 0xe0
 213 840 263 790 263 724 c 0
 263 659 213 608 142 608 c 0
 71 608 20 659 20 724 c 0
 20 790 71 840 142 840 c 0xe0
252 536 m 1xd0
 252 87 l 2
 252 -110 130 -189 -7 -230 c 1
 -84 -69 l 1
 -17 -38 30 -7 30 74 c 2
 30 536 l 1
 252 536 l 1xd0
EndSplineSet
Substitution2: "'smcp' Lowercase to Small Capitals lookup 27 subtable" j.sc
Substitution2: "'aalt' Access All Alternates lookup 0 subtable" j.sc
EndChar
StartChar: k
Encoding: 107 107 506
Width: 590
GlyphClass: 2
Flags: MW
HStem: 0 21G<30 252 30 30 365 365 365 609> 516 20G<387 604 604 604> 725 20G<30 30>
VStem: 30 222<0 745 745 745>
AnchorPoint: "Anchor-14" 0 0 basechar 0
AnchorPoint: "Anchor-13" 0 0 basechar 0
AnchorPoint: "Anchor-12" 313 745 basechar 0
AnchorPoint: "Anchor-11" 0 0 basechar 0
AnchorPoint: "Anchor-10" 295 0 basechar 0
LayerCount: 2
Back
Fore
SplineSet
252 767 m 1
 252 0 l 1
 30 0 l 1
 30 745 l 1
 252 767 l 1
604 536 m 1
 475 301 l 1
 609 0 l 1
 365 0 l 1
 256 293 l 1
 387 536 l 1
 604 536 l 1
EndSplineSet
Substitution2: "'smcp' Lowercase to Small Capitals lookup 27 subtable" k.sc
Substitution2: "'aalt' Access All Alternates lookup 0 subtable" k.sc
EndChar
StartChar: l
Encoding: 108 108 512
Width: 302
GlyphClass: 2
Flags: MW
HStem: -4 21G<325 325> 725 20G<25 25>
VStem: 25 222<167 175 175 745 745 745>
AnchorPoint: "Anchor-14" 410 371 basechar 0
AnchorPoint: "Anchor-13" 257 745 basechar 0
AnchorPoint: "Anchor-12" 136 745 basechar 0
AnchorPoint: "Anchor-11" 0 0 basechar 0
AnchorPoint: "Anchor-10" 188 0 basechar 0
LayerCount: 2
Back
Fore
SplineSet
206 -22 m 0
 89 -22 25 46 25 165 c 2
 25 745 l 1
 247 767 l 1
 247 175 l 2
 247 159 255 151 269 151 c 0
 277 151 283 153 287 155 c 1
 325 -4 l 1
 297 -14 255 -22 206 -22 c 0
EndSplineSet
Substitution2: "'smcp' Lowercase to Small Capitals lookup 27 subtable" l.sc
Substitution2: "'sups' Superscript lookup 14 subtable" uni02E1
AlternateSubs2: "'aalt' Access All Alternates lookup 1 subtable" uni02E1 l.sc
EndChar
StartChar: m
Encoding: 109 109 530
Width: 832
GlyphClass: 2
Flags: MW
HStem: 0 21G<30 252 30 30 308 530 308 308 585 807 585 585> 397 139<30 296> 516 20G<30 224 224 224> 537 20G<364 421.5 640.5 712.5>
VStem: 30 222<0 353 0 536 0 536> 308 222<0 353 0 356 0 373> 585 222<0 356 356 373>
AnchorPoint: "Anchor-14" 0 0 basechar 0
AnchorPoint: "Anchor-13" 0 0 basechar 0
AnchorPoint: "Anchor-12" 417 536 basechar 0
AnchorPoint: "Anchor-11" 0 0 basechar 0
AnchorPoint: "Anchor-10" 417 0 basechar 0
LayerCount: 2
Back
Fore
SplineSet
673 557 m 0x9e
 752 557 807 500 807 398 c 2
 807 0 l 1
 585 0 l 1
 585 356 l 2
 585 390 578 397 569 397 c 0
 559 397 541 385 530 353 c 1
 530 0 l 1
 308 0 l 1
 308 356 l 2
 308 390 301 397 291 397 c 0
 281 397 264 385 252 353 c 1xce
 252 0 l 1
 30 0 l 1
 30 536 l 1
 224 536 l 1xae
 239 487 l 1
 285 538 333 557 395 557 c 0
 448 557 491 532 513 484 c 1
 559 538 608 557 673 557 c 0x9e
EndSplineSet
Substitution2: "'smcp' Lowercase to Small Capitals lookup 27 subtable" m.sc
Substitution2: "'aalt' Access All Alternates lookup 0 subtable" m.sc
EndChar
StartChar: n
Encoding: 110 110 536
Width: 569
GlyphClass: 2
Flags: MW
HStem: 0 21G<30 252 30 30 322 544 322 322> 397 139<30 309> 516 20G<30 224 224 224> 537 20G<370.5 445.5>
VStem: 30 222<0 353 0 536 0 536> 322 222<0 356 356 373>
AnchorPoint: "Anchor-14" 0 0 basechar 0
AnchorPoint: "Anchor-13" 0 0 basechar 0
AnchorPoint: "Anchor-12" 289 536 basechar 0
AnchorPoint: "Anchor-11" 0 0 basechar 0
AnchorPoint: "Anchor-10" 284 0 basechar 0
LayerCount: 2
Back
Fore
SplineSet
402 557 m 0x9c
 489 557 544 500 544 398 c 2
 544 0 l 1
 322 0 l 1
 322 356 l 2
 322 390 314 397 304 397 c 0
 291 397 272 385 252 353 c 1xcc
 252 0 l 1
 30 0 l 1
 30 536 l 1
 224 536 l 1xac
 239 485 l 1
 292 538 339 557 402 557 c 0x9c
EndSplineSet
Substitution2: "'smcp' Lowercase to Small Capitals lookup 27 subtable" n.sc
Substitution2: "'aalt' Access All Alternates lookup 0 subtable" n.sc
EndChar
StartChar: p
Encoding: 112 112 596
Width: 600
GlyphClass: 2
Flags: MW
HStem: -208 21G<252 252> -22 156<289 436> 400 136<30 319.5> 516 20G<30 228 228 228> 537 20G<361.5 451>
VStem: 30 222<-208 30 -208 165 165 358> 361 226<215.5 330>
AnchorPoint: "Anchor-14" 0 0 basechar 0
AnchorPoint: "Anchor-13" 0 0 basechar 0
AnchorPoint: "Anchor-12" 301 536 basechar 0
AnchorPoint: "Anchor-11" 0 0 basechar 0
AnchorPoint: "Anchor-10" 301 -218 basechar 0
LayerCount: 2
Back
Fore
SplineSet
381 557 m 0xce
 521 557 587 448 587 270 c 0
 587 103 499 -22 373 -22 c 0
 324 -22 284 -5 252 30 c 1
 252 -208 l 1
 30 -230 l 1
 30 536 l 1
 228 536 l 1xd6
 236 488 l 1
 284 544 342 557 381 557 c 0xce
298 134 m 0
 333 134 361 165 361 266 c 0
 361 394 335 400 304 400 c 0
 290 400 270 391 252 358 c 1xe6
 252 165 l 1
 267 142 280 134 298 134 c 0
EndSplineSet
Substitution2: "'smcp' Lowercase to Small Capitals lookup 27 subtable" p.sc
Substitution2: "'aalt' Access All Alternates lookup 0 subtable" p.sc
EndChar

StartChar: q
Encoding: 113 113 222
Width: 597
GlyphClass: 2
Flags: MW
HStem: -230 21G<567 567> -208 21G<345 345> -22 21G<141 244> -22 158<141 300.5> 401 135<283 567> 537 20G<168.5 259>
VStem: 8 226<206.5 320 206.5 355.5> 345 222<-208 34 34 34 175 379 379 379>
LayerCount: 2
Fore
SplineSet
567 536 m 1x6b
 567 -230 l 1x9b
 345 -208 l 1
 345 34 l 1
 318 4 276 -22 212 -22 c 0
 70 -22 8 93 8 272 c 0
 8 439 96 557 241 557 c 0
 277 557 323 545 363 504 c 1x67
 372 536 l 1
 567 536 l 1x6b
292 136 m 0
 309 136 329 147 345 175 c 1
 345 379 l 1
 331 393 319 401 301 401 c 0
 265 401 234 371 234 269 c 0
 234 144 263 136 292 136 c 0
EndSplineSet
Substitution2: "'smcp' Lowercase to Small Capitals lookup 24 subtable" q.sc
Substitution2: "'aalt' Access All Alternates lookup 0 subtable" q.sc
EndChar
StartChar: t
Encoding: 116 116 638
Width: 410
GlyphClass: 2
Flags: MW
HStem: -22 173<259 319> 387 149<-4 53 -4 53 275 372>
VStem: 53 222<210 212 212 387 187.5 387 536 646 646 646>
AnchorPoint: "Anchor-14" 202 268 basechar 0
AnchorPoint: "Anchor-13" 267 811 basechar 0
AnchorPoint: "Anchor-12" 164 646 basechar 0
AnchorPoint: "Anchor-11" 0 0 basechar 0
AnchorPoint: "Anchor-10" 234 0 basechar 0
LayerCount: 2
Back
Fore
SplineSet
358 163 m 1
 428 26 l 1
 382 -6 310 -22 259 -22 c 0
 115 -21 53 60 53 210 c 2
 53 387 l 1
 -4 387 l 1
 -4 536 l 1
 53 536 l 1
 53 646 l 1
 275 672 l 1
 275 536 l 1
 394 536 l 1
 372 387 l 1
 275 387 l 1
 275 212 l 2
 275 163 292 151 312 151 c 0
 326 151 342 154 358 163 c 1
EndSplineSet
Substitution2: "'smcp' Lowercase to Small Capitals lookup 27 subtable" t.sc
Substitution2: "'aalt' Access All Alternates lookup 0 subtable" t.sc
EndChar
StartChar: v
Encoding: 118 118 690
Width: 534
GlyphClass: 2
Flags: MW
HStem: 0 21G<138 400 138 138> 0 157<271 271 271 400 138 271> 516 20G<-21 220 220 220 331 554 554 554>
VStem: -21 575<536 536>
AnchorPoint: "Anchor-14" 0 0 basechar 0
AnchorPoint: "Anchor-13" 0 0 basechar 0
AnchorPoint: "Anchor-12" 276 536 basechar 0
AnchorPoint: "Anchor-11" 0 0 basechar 0
AnchorPoint: "Anchor-10" 269 0 basechar 0
LayerCount: 2
Back
Fore
SplineSet
554 536 m 1xb0
 400 0 l 1
 138 0 l 1
 -21 536 l 1
 220 536 l 1
 271 157 l 1x70
 331 536 l 1
 554 536 l 1xb0
EndSplineSet
Substitution2: "'smcp' Lowercase to Small Capitals lookup 27 subtable" v.sc
Substitution2: "'aalt' Access All Alternates lookup 0 subtable" v.sc
EndChar

StartChar: x
Encoding: 120 120 256
Width: 538
GlyphClass: 2
Flags: MW
HStem: 0 21G<-26 212 -26 -26 317 563 317 317> 516 20G<-13 231 231 231 302 533 533 533>
VStem: -26 589<0 0>
LayerCount: 2
Fore
SplineSet
563 0 m 1
 317 0 l 1
 261 175 l 1
 212 0 l 1
 -26 0 l 1
 133 280 l 1
 -13 536 l 1
 231 536 l 1
 270 387 l 1
 302 536 l 1
 533 536 l 1
 402 287 l 1
 563 0 l 1
EndSplineSet
Substitution2: "'smcp' Lowercase to Small Capitals lookup 24 subtable" x.sc
Substitution2: "'aalt' Access All Alternates lookup 0 subtable" x.sc
EndChar
StartChar: z
Encoding: 122 122 716
Width: 480
GlyphClass: 2
Flags: MW
HStem: 0 162<260 456> 377 159<20 211 20 467>
VStem: 0 474<0 162 154 162>
AnchorPoint: "Anchor-14" 0 0 basechar 0
AnchorPoint: "Anchor-13" 0 0 basechar 0
AnchorPoint: "Anchor-12" 246 536 basechar 0
AnchorPoint: "Anchor-11" 0 0 basechar 0
AnchorPoint: "Anchor-10" 230 0 basechar 0
LayerCount: 2
Back
Fore
SplineSet
467 536 m 1
 467 383 l 1
 260 162 l 1
 474 162 l 1
 456 0 l 1
 0 0 l 1
 0 154 l 1
 211 377 l 1
 20 377 l 1
 20 536 l 1
 467 536 l 1
EndSplineSet
Substitution2: "'smcp' Lowercase to Small Capitals lookup 27 subtable" z.sc
Substitution2: "'aalt' Access All Alternates lookup 0 subtable" z.sc
EndChar

StartChar: braceleft
Encoding: 123 123 1003
Width: 326
Flags: MW
HStem: -143 148<291.5 317 291.5 317> 259 182<-6 19.5> 695 148<291 317>
VStem: 55 207<37.5 56 56 174 174 190 37.5 204.5>
LayerCount: 2
Fore
SplineSet
317 695 m 1
 265 695 260 681 260 644 c 2
 260 510 l 2
 260 405 213 366 129 349 c 1
 210 337 262 293 262 190 c 2
 262 56 l 2
 262 19 266 5 317 5 c 1
 317 -143 l 1
 94 -143 55 -75 55 36 c 2
 55 174 l 2
 55 235 45 259 -6 259 c 1
 -6 441 l 1
 45 441 55 465 55 526 c 2
 55 664 l 2
 55 776 94 843 317 843 c 1
 317 695 l 1
EndSplineSet
Substitution2: "'case' Case-Sensitive Forms lookup 25 subtable" braceleft.case
Substitution2: "'aalt' Access All Alternates lookup 0 subtable" braceleft.case
EndChar
StartChar: bar
Encoding: 124 124 2370
Width: 350
GlyphClass: 2
Flags: MW
HStem: -108 921<70 280 70 280>
VStem: 70 210<-108 813 -108 813>
LayerCount: 2
Back
Fore
SplineSet
280 813 m 1
 280 -108 l 1
 70 -108 l 1
 70 813 l 1
 280 813 l 1
EndSplineSet
EndChar
StartChar: braceright
Encoding: 125 125 2141
Width: 326
Flags: MW
HStem: -143 148<8 33.5 8 120> 259 182<306 331> 695 148<8 34>
VStem: 65 206<510 526 526 644 644 662.5>
LayerCount: 2
Back
Fore
SplineSet
8 843 m 1
 232 843 271 776 271 664 c 2
 271 526 l 2
 271 465 281 441 331 441 c 1
 331 259 l 1
 281 259 271 235 271 174 c 2
 271 36 l 2
 271 -75 232 -143 8 -143 c 1
 8 5 l 1
 59 5 64 19 64 56 c 2
 64 190 l 2
 64 293 115 337 197 349 c 1
 113 366 65 405 65 510 c 2
 65 644 l 2
 65 681 60 695 8 695 c 1
 8 843 l 1
EndSplineSet
Substitution2: "'case' Case-Sensitive Forms lookup 28 subtable" braceright.case
Substitution2: "'aalt' Access All Alternates lookup 0 subtable" braceright.case
EndChar
StartChar: asciitilde
Encoding: 126 126 2241
Width: 540
GlyphClass: 2
Flags: MW
HStem: 214 162<336.5 383 336.5 404> 274 162<156 203>
VStem: -2 543<280 372>
LayerCount: 2
Back
Fore
SplineSet
357 214 m 0xa0
 256 214 231 274 175 274 c 0
 137 274 128 251 108 225 c 1
 -2 280 l 1
 38 361 88 436 182 436 c 0x60
 283 436 309 376 364 376 c 0
 402 376 411 400 432 424 c 1
 541 372 l 1
 502 290 451 214 357 214 c 0xa0
EndSplineSet
Substitution2: "'onum' Oldstyle Figures lookup 25 subtable" asciitilde.osf
Substitution2: "'tnum' Tabular Numbers lookup 24 subtable" asciitilde.tf
AlternateSubs2: "'aalt' Access All Alternates lookup 1 subtable" asciitilde.tf asciitilde.osf
EndChar
StartChar: exclamdown
Encoding: 161 161 2123
Width: 240
Flags: MW
HStem: -208 21G<4 236 4 4> 302 221<89.5 150.5>
VStem: 9 221<383 443>
LayerCount: 2
Back
Fore
SplineSet
120 523 m 0
 181 523 230 473 230 413 c 0
 230 353 181 302 120 302 c 0
 59 302 9 353 9 413 c 0
 9 473 59 523 120 523 c 0
206 224 m 1
 236 -208 l 1
 4 -208 l 1
 33 224 l 1
 206 224 l 1
EndSplineSet
Substitution2: "'case' Case-Sensitive Forms lookup 28 subtable" exclamdown.case
Substitution2: "'aalt' Access All Alternates lookup 0 subtable" exclamdown.case
EndChar
StartChar: cent
Encoding: 162 162 2198
Width: 479
GlyphClass: 2
Flags: MW
HStem: -17 21G<362 362> -12 21G<215 215> 528 20G<216 216> 531 20G<362 362> 679 20G<216 362 362 362>
VStem: 8 230<213 314 213 334.5> 215 147<-167 -17 -167 -12 -167 -12>
LayerCount: 2
Back
Fore
SplineSet
404 181 m 1x5a
 498 46 l 1
 461 16 417 -7 362 -17 c 1x9a
 362 -167 l 1
 215 -167 l 1
 215 -12 l 1x5a
 84 21 8 126 8 264 c 0x6c
 8 405 87 515 216 548 c 1x6a
 216 699 l 1
 362 699 l 1
 362 551 l 1x5a
 417 541 461 517 498 483 c 1
 408 355 l 1
 377 381 347 392 318 392 c 0
 266 392 238 365 238 263 c 0
 238 163 272 148 316 148 c 0x5c
 346 148 367 158 404 181 c 1x5a
EndSplineSet
Substitution2: "'onum' Oldstyle Figures lookup 25 subtable" cent.osf
Substitution2: "'tnum' Tabular Numbers lookup 24 subtable" cent.tf
AlternateSubs2: "'aalt' Access All Alternates lookup 1 subtable" cent.tf cent.osf
EndChar
StartChar: brokenbar
Encoding: 166 166 2371
Width: 350
GlyphClass: 2
Flags: MW
HStem: -108 921<70 280 70 280>
VStem: 70 210<-108 262 -108 262 443 813>
LayerCount: 2
Back
Fore
SplineSet
280 813 m 1
 280 443 l 1
 70 443 l 1
 70 813 l 1
 280 813 l 1
280 262 m 1
 280 -108 l 1
 70 -108 l 1
 70 262 l 1
 280 262 l 1
EndSplineSet
EndChar

StartChar: dieresis
Encoding: 168 168 1255
Width: 525
Flags: MW
HStem: 628 201<108 165.5 360.5 418.5>
VStem: 32 207<701 757> 285 207<701 757>
AnchorPoint: "Anchor-12" 258 757 basemark 0
LayerCount: 2
Fore
SplineSet
136 829 m 0
 195 829 239 785 239 729 c 0
 239 673 195 628 136 628 c 0
 80 628 32 673 32 729 c 0
 32 785 80 829 136 829 c 0
389 829 m 0
 448 829 492 785 492 729 c 0
 492 673 448 628 389 628 c 0
 332 628 285 673 285 729 c 0
 285 785 332 829 389 829 c 0
EndSplineSet
Substitution2: "'case' Case-Sensitive Forms lookup 25 subtable" dieresis.case
Substitution2: "'smcp' Lowercase to Small Capitals lookup 24 subtable" dieresis.sc
Substitution2: "'c2sc' Capitals to Small Capitals lookup 23 subtable" dieresis.sc
AlternateSubs2: "'aalt' Access All Alternates lookup 1 subtable" dieresis.sc dieresis.case
EndChar

StartChar: ordfeminine
Encoding: 170 170 415
Width: 500
GlyphClass: 2
Flags: MW
HStem: 0 167<33 471 33 471> 436 95<246.5 260> 566 132<213 230.5>
VStem: 29 193<402.5 416.5 402.5 434.5> 33 438<0 167 0 167> 260 187<413.5 426 426 436 436 436 531 541 413.5 546.5>
LayerCount: 2
Fore
SplineSet
29 389 m 0xf4
 29 480 103 531 244 531 c 2
 260 531 l 1
 260 562 252 566 209 566 c 0
 188 566 143 558 101 545 c 1
 59 663 l 1
 114 685 188 698 238 698 c 0
 387 698 447 649 447 541 c 2
 447 426 l 2
 447 401 451 389 469 383 c 1
 431 262 l 1
 376 265 336 279 304 314 c 1
 272 273 221 258 173 258 c 0
 87 258 29 314 29 389 c 0xf4
222 407 m 0
 222 398 226 391 240 391 c 0
 247 391 254 394 260 396 c 1
 260 436 l 1
 233 436 222 426 222 407 c 0
471 167 m 1xe8
 471 0 l 1
 33 0 l 1
 33 167 l 1
 471 167 l 1xe8
EndSplineSet
EndChar
StartChar: guillemotleft
Encoding: 171 171 2175
Width: 679
Flags: MW
HStem: -13 21G<221 221 523 523> 557 20G<221 221 523 523>
VStem: 18 643<78 350 78 350>
LayerCount: 2
Back
Fore
SplineSet
523 577 m 1
 661 486 l 1
 538 282 l 1
 661 78 l 1
 523 -13 l 1
 319 215 l 1
 319 350 l 1
 523 577 l 1
221 577 m 1
 360 486 l 1
 237 282 l 1
 360 78 l 1
 221 -13 l 1
 18 215 l 1
 18 350 l 1
 221 577 l 1
EndSplineSet
Substitution2: "'case' Case-Sensitive Forms lookup 28 subtable" guillemotleft.case
Substitution2: "'aalt' Access All Alternates lookup 0 subtable" guillemotleft.case
EndChar
StartChar: logicalnot
Encoding: 172 172 2261
Width: 561
GlyphClass: 2
Flags: MW
HStem: 251 166<35 349 35 526>
VStem: 349 177<87 251 251 251>
LayerCount: 2
Back
Fore
SplineSet
526 417 m 1
 526 87 l 1
 349 87 l 1
 349 251 l 1
 35 251 l 1
 35 417 l 1
 526 417 l 1
EndSplineSet
Substitution2: "'onum' Oldstyle Figures lookup 25 subtable" logicalnot.osf
Substitution2: "'tnum' Tabular Numbers lookup 24 subtable" logicalnot.tf
AlternateSubs2: "'aalt' Access All Alternates lookup 1 subtable" logicalnot.tf logicalnot.osf
EndChar
StartChar: uni00AD
Encoding: 173 173 2168
Width: 412
Flags: MW
HStem: 230 166<29 382 29 382>
VStem: 29 353<230 396 230 396>
LayerCount: 2
Back
Fore
SplineSet
29 230 m 1
 29 396 l 1
 382 396 l 1
 382 230 l 1
 29 230 l 1
EndSplineSet
Substitution2: "'case' Case-Sensitive Forms lookup 28 subtable" uni00AD.case
Substitution2: "'aalt' Access All Alternates lookup 0 subtable" uni00AD.case
EndChar

StartChar: registered
Encoding: 174 174 1222
Width: 634
Flags: MW
HStem: 186 85<261.5 375.5 261.5 404> 444 71<287 306 287 316> 570 63<287 293 293 315 287 287> 683 84<261.5 375.5>
VStem: 22 100<416 536 416 560.5> 202 85<344 444 515 570> 349 88<534 553.5> 512 100<416 536>
LayerCount: 2
Fore
SplineSet
319 767 m 0
 489 767 612 645 612 476 c 0
 612 308 489 186 319 186 c 0
 147 186 22 308 22 476 c 0
 22 645 147 767 319 767 c 0
319 271 m 0
 432 271 512 356 512 476 c 0
 512 596 432 683 319 683 c 0
 204 683 122 596 122 476 c 0
 122 356 204 271 319 271 c 0
437 541 m 0
 437 506 416 479 385 463 c 1
 458 344 l 1
 361 344 l 1
 306 444 l 1
 287 444 l 1
 287 344 l 1
 202 344 l 1
 202 633 l 1
 293 633 l 2
 387 633 437 605 437 541 c 0
287 515 m 1
 316 515 l 2
 333 515 349 523 349 545 c 0
 349 562 335 570 315 570 c 2
 287 570 l 1
 287 515 l 1
EndSplineSet
EndChar

StartChar: macron
Encoding: 175 175 1259
Width: 397
Flags: MW
HStem: 644 148<30 367 30 367>
VStem: 30 337<644 792 644 792>
LayerCount: 2
Fore
SplineSet
30 644 m 1
 30 792 l 1
 367 792 l 1
 367 644 l 1
 30 644 l 1
EndSplineSet
Substitution2: "'case' Case-Sensitive Forms lookup 25 subtable" macron.case
Substitution2: "'smcp' Lowercase to Small Capitals lookup 24 subtable" macron.sc
Substitution2: "'c2sc' Capitals to Small Capitals lookup 23 subtable" macron.sc
AlternateSubs2: "'aalt' Access All Alternates lookup 1 subtable" macron.sc macron.case
EndChar
StartChar: plusminus
Encoding: 177 177 2298
Width: 561
GlyphClass: 2
Flags: MW
HStem: 0 167<47 514 47 514> 370 167<35 192 35 192 369 526> 679 20G<192 369 369 369>
VStem: 192 177<207 370 207 370 537 699>
LayerCount: 2
Back
Fore
SplineSet
369 699 m 1
 369 537 l 1
 526 537 l 1
 526 370 l 1
 369 370 l 1
 369 207 l 1
 192 207 l 1
 192 370 l 1
 35 370 l 1
 35 537 l 1
 192 537 l 1
 192 699 l 1
 369 699 l 1
47 0 m 1
 47 167 l 1
 514 167 l 1
 514 0 l 1
 47 0 l 1
EndSplineSet
Substitution2: "'onum' Oldstyle Figures lookup 25 subtable" plusminus.osf
Substitution2: "'tnum' Tabular Numbers lookup 24 subtable" plusminus.tf
AlternateSubs2: "'aalt' Access All Alternates lookup 1 subtable" plusminus.tf plusminus.osf
EndChar
StartChar: uni00B2
Encoding: 178 178 2104
Width: 400
Flags: MW
HStem: 320 116<215 365> 644 113<161 186>
VStem: 210 162<599.5 622>
LayerCount: 2
Back
Fore
SplineSet
194 757 m 0
 316 757 372 691 372 626 c 0
 372 573 354 533 215 436 c 1
 381 436 l 1
 365 320 l 1
 40 320 l 1
 40 426 l 1
 180 544 210 579 210 612 c 0
 210 632 198 644 174 644 c 0
 148 644 126 631 104 604 c 1
 18 671 l 1
 53 719 114 757 194 757 c 0
EndSplineSet
EndChar

StartChar: threesuperior
Encoding: 179 179 971
Width: 400
Flags: MW
HStem: 305 117<163.5 191 163.5 258.5> 490 103<146 170 128 175> 523 20G 645 112<163 190>
VStem: 218 152<626 627.5> 223 163<440.5 465>
LayerCount: 2
Fore
SplineSet
199 757 m 0xd8
 312 757 370 713 370 650 c 0xd8
 370 602 344 561 270 543 c 1xb4
 339 540 386 509 386 435 c 0
 386 370 325 305 192 305 c 0
 106 305 50 337 14 380 c 1
 98 461 l 1
 124 433 147 422 180 422 c 0
 202 422 223 428 223 453 c 0
 223 477 209 490 170 490 c 2
 128 490 l 1
 146 593 l 1xd4
 175 593 l 2
 209 593 218 603 218 618 c 0
 218 637 202 645 178 645 c 0
 148 645 119 631 97 611 c 1
 20 690 l 1
 65 733 126 757 199 757 c 0xd8
EndSplineSet
EndChar
StartChar: acute
Encoding: 180 180 2511
Width: 378
Flags: MW
HStem: 607 261<89 267>
VStem: 30 318<709 718>
LayerCount: 2
Back
Fore
SplineSet
267 868 m 1
 348 709 l 1
 89 607 l 1
 30 718 l 1
 267 868 l 1
EndSplineSet
Substitution2: "Single Substitution lookup 41 subtable" acute.case
Substitution2: "'case' Case-Sensitive Forms lookup 28 subtable" acute.case
Substitution2: "'smcp' Lowercase to Small Capitals lookup 27 subtable" acute.sc
Substitution2: "'c2sc' Capitals to Small Capitals lookup 26 subtable" acute.sc
Substitution2: "'locl' Localized Forms in Latin lookup 7 subtable" acute.loclPLK
AlternateSubs2: "'aalt' Access All Alternates lookup 1 subtable" acute.loclPLK acute.sc acute.case
EndChar

StartChar: uni00B5
Encoding: 181 181 1104
Width: 577
Flags: MW
HStem: -228 21G<30 30> -208 21G<236 236> -22 21G<358 358> -5 21G<242 269.5> 0 21G<561 561> 516 20G<30 252 252 252 317 539 539 539>
VStem: 30 222<163.5 177 177 536> 317 222<178 185 185 536>
LayerCount: 2
Fore
SplineSet
358 -22 m 1x67
 348 0 344 17 337 51 c 1
 309 8 283 -5 256 -5 c 0
 228 -5 203 1 175 31 c 1
 209 -16 236 -53 236 -129 c 2
 236 -208 l 1x57
 30 -228 l 1
 30 536 l 1
 252 536 l 1
 252 177 l 2
 252 150 263 144 275 144 c 0
 287 144 303 154 317 178 c 1
 317 536 l 1
 539 536 l 1
 539 185 l 2
 539 102 549 41 561 0 c 1x8f
 358 -22 l 1x67
EndSplineSet
EndChar
StartChar: paragraph
Encoding: 182 182 2374
Width: 839
GlyphClass: 2
Flags: MW
HStem: -208 21G<487 487 749 749> 551 147<487 556 487 487>
VStem: 294 193<-208 245 245 245> 556 193<-208 551 551 551>
LayerCount: 2
Back
Fore
SplineSet
332 698 m 1
 749 698 l 1
 749 -208 l 1
 556 -231 l 1
 556 551 l 1
 487 551 l 1
 487 -208 l 1
 294 -231 l 1
 294 245 l 1
 132 245 41 337 41 470 c 0
 41 609 140 706 332 698 c 1
EndSplineSet
EndChar
StartChar: periodcentered
Encoding: 183 183 2114
Width: 240
Flags: MW
HStem: 194 222<89.5 150.5>
VStem: 10 221<275 335>
LayerCount: 2
Back
Fore
SplineSet
120 416 m 0
 181 416 231 365 231 305 c 0
 231 245 181 194 120 194 c 0
 59 194 10 245 10 305 c 0
 10 365 59 416 120 416 c 0
EndSplineSet
EndChar
StartChar: cedilla
Encoding: 184 184 2527
Width: 366
Flags: MW
HStem: -283 112<135.5 155 129.5 219.5> -125 141<108 122.5>
VStem: 185 151<-158.5 -140.5>
LayerCount: 2
Back
Fore
SplineSet
222 16 m 1
 222 -40 l 1
 296 -50 336 -87 336 -153 c 0
 336 -223 276 -283 163 -283 c 0
 108 -283 60 -265 30 -246 c 1
 77 -153 l 1
 97 -164 118 -171 141 -171 c 0
 169 -171 185 -166 185 -151 c 0
 185 -130 155 -125 90 -125 c 1
 108 16 l 1
 222 16 l 1
EndSplineSet
Substitution2: "Single Substitution lookup 41 subtable" cedilla.case
Substitution2: "'case' Case-Sensitive Forms lookup 28 subtable" cedilla.case
Substitution2: "'smcp' Lowercase to Small Capitals lookup 27 subtable" cedilla.sc
Substitution2: "'c2sc' Capitals to Small Capitals lookup 26 subtable" cedilla.sc
AlternateSubs2: "'aalt' Access All Alternates lookup 1 subtable" cedilla.sc cedilla.case
EndChar

StartChar: onesuperior
Encoding: 185 185 969
Width: 400
Flags: MW
HStem: 726 20G<182 324 324 324>
VStem: 170 154<320 604 604 604>
LayerCount: 2
Fore
SplineSet
324 320 m 1
 170 320 l 1
 170 604 l 1
 84 548 l 1
 15 650 l 1
 182 746 l 1
 324 746 l 1
 324 320 l 1
EndSplineSet
EndChar
StartChar: uni00B9
Encoding: 185 185 2103
Width: 400
Flags: MW
HStem: 726 20G<182 324 324 324>
VStem: 170 154<320 604 604 604>
LayerCount: 2
Back
Fore
SplineSet
324 746 m 1
 324 320 l 1
 170 320 l 1
 170 604 l 1
 84 548 l 1
 15 650 l 1
 182 746 l 1
 324 746 l 1
EndSplineSet
EndChar

StartChar: ordmasculine
Encoding: 186 186 416
Width: 500
GlyphClass: 2
Flags: MW
HStem: 0 167<17 483 17 483> 258 134<237 264.5 237 322.5> 564 134<236.5 264>
VStem: 18 196<445.5 509 445.5 546.5> 288 195<446 509.5>
LayerCount: 2
Fore
SplineSet
250 698 m 0
 390 698 483 624 483 476 c 0
 483 341 394 258 251 258 c 0
 111 258 18 331 18 479 c 0
 18 614 108 698 250 698 c 0
250 564 m 0
 223 564 214 539 214 479 c 0
 214 412 223 392 251 392 c 0
 278 392 288 416 288 476 c 0
 288 543 278 564 250 564 c 0
17 167 m 1
 483 167 l 1
 483 0 l 1
 17 0 l 1
 17 167 l 1
EndSplineSet
EndChar
StartChar: guillemotright
Encoding: 187 187 2176
Width: 683
Flags: MW
HStem: -13 21G<157 157 461 461> 557 20G<157 157 461 461>
VStem: 18 646<78 350 215 486>
LayerCount: 2
Back
Fore
SplineSet
461 577 m 1
 664 350 l 1
 664 215 l 1
 461 -13 l 1
 323 78 l 1
 445 282 l 1
 323 486 l 1
 461 577 l 1
157 577 m 1
 360 350 l 1
 360 215 l 1
 157 -13 l 1
 18 78 l 1
 141 282 l 1
 18 486 l 1
 157 577 l 1
EndSplineSet
Substitution2: "'case' Case-Sensitive Forms lookup 28 subtable" guillemotright.case
Substitution2: "'aalt' Access All Alternates lookup 0 subtable" guillemotright.case
EndChar
StartChar: onequarter
Encoding: 188 188 2060
Width: 1004
Flags: MW
HStem: 0 184<809 810 771 955 809 809> 73 111<771 808 955 995> 678 20G<182 324 324 324> 686 20G<771 771>
VStem: 170 154<272 556 556 556> 808.5 146.5
LayerCount: 2
Back
Fore
SplineSet
649 767 m 1x9c
 771 706 l 1
 356 -93 l 1
 233 -32 l 1
 649 767 l 1x9c
324 272 m 1
 170 272 l 1
 170 556 l 1
 84 500 l 1
 15 602 l 1
 182 698 l 1
 324 698 l 1xac
 324 272 l 1
995 184 m 1
 995 73 l 1
 955 73 l 1x5c
 955 0 l 1
 809 0 l 1x9c
 808 73 l 1
 612 73 l 1x5c
 612 175 l 1
 726 437 l 1
 857 390 l 1
 771 184 l 1
 810 184 l 1
 845 268 l 1
 955 268 l 1
 955 184 l 1
 995 184 l 1
EndSplineSet
EndChar
StartChar: onehalf
Encoding: 189 189 2057
Width: 1004
Flags: MW
HStem: 0 116<819 969> 324 113<765 790> 678 20G<182 324 324 324> 686 20G<771 771>
VStem: 170 154<272 556 556 556> 814 162<279.5 302>
LayerCount: 2
Back
Fore
SplineSet
649 767 m 1xd8
 771 706 l 1
 356 -93 l 1
 233 -32 l 1
 649 767 l 1xd8
324 698 m 1xec
 324 272 l 1
 170 272 l 1
 170 556 l 1
 84 500 l 1
 15 602 l 1
 182 698 l 1
 324 698 l 1xec
798 437 m 0
 920 437 976 371 976 306 c 0
 976 253 958 213 819 116 c 1
 985 116 l 1
 969 0 l 1
 644 0 l 1
 644 106 l 1
 784 224 814 259 814 292 c 0
 814 312 802 324 778 324 c 0
 752 324 730 311 708 284 c 1
 622 351 l 1
 657 399 718 437 798 437 c 0
EndSplineSet
EndChar
StartChar: threequarters
Encoding: 190 190 2061
Width: 1004
Flags: MW
HStem: 0 184<809 810 771 955 809 809> 73 111<771 808 955 995> 257 117<163.5 191 163.5 258.5> 442 53 442 103<146 170 128 175> 597 112<163 190> 686 20G<771 771>
VStem: 218 152<578 579.5> 223 163<392.5 417> 808.5 146.5
LayerCount: 2
Back
Fore
SplineSet
649 767 m 1xaac0
 771 706 l 1
 356 -93 l 1
 233 -32 l 1
 649 767 l 1xaac0
386 387 m 0
 386 322 325 257 192 257 c 0
 106 257 50 289 14 332 c 1
 98 413 l 1
 124 385 147 374 180 374 c 0
 202 374 223 380 223 405 c 0
 223 429 209 442 170 442 c 2
 128 442 l 1
 146 545 l 1xaac0
 175 545 l 2
 209 545 218 555 218 570 c 0
 218 589 202 597 178 597 c 0
 148 597 119 583 97 563 c 1
 20 642 l 1
 65 685 126 709 199 709 c 0
 312 709 370 665 370 602 c 0xad40
 370 554 344 513 270 495 c 1xb2c0
 339 492 386 461 386 387 c 0
995 184 m 1
 995 73 l 1
 955 73 l 1x6ac0
 955 0 l 1
 809 0 l 1xaac0
 808 73 l 1
 612 73 l 1x6ac0
 612 175 l 1
 726 437 l 1
 857 390 l 1
 771 184 l 1
 810 184 l 1
 845 268 l 1
 955 268 l 1
 955 184 l 1
 995 184 l 1
EndSplineSet
EndChar

StartChar: questiondown
Encoding: 191 191 990
Width: 503
Flags: MW
HStem: -230 172<258 287 258 307> 302 221<244.5 305.5>
VStem: -1 232<-39 -1.5 -39 30.5> 164 222<383 443> 178 195<206 225 110.5 225>
LayerCount: 2
Fore
SplineSet
275 302 m 0xd0
 214 302 164 353 164 413 c 0
 164 473 214 523 275 523 c 0
 336 523 386 473 386 413 c 0
 386 353 336 302 275 302 c 0xd0
246 -230 m 0xe0
 80 -230 -1 -149 -1 -52 c 0xe0
 -1 113 178 111 178 206 c 2
 178 225 l 1
 373 225 l 1
 373 200 l 2xc8
 373 21 231 27 231 -30 c 0
 231 -48 245 -58 271 -58 c 0
 303 -58 336 -40 367 -8 c 1
 504 -115 l 1
 448 -181 368 -230 246 -230 c 0xe0
EndSplineSet
Substitution2: "'case' Case-Sensitive Forms lookup 25 subtable" questiondown.case
Substitution2: "'aalt' Access All Alternates lookup 0 subtable" questiondown.case
EndChar
StartChar: Agrave
Encoding: 192 192 23
Width: 607
GlyphClass: 2
Flags: MW
HStem: 0 21G<-32 210 -32 -32 395 639 395 395> 126 160<258 345 258 373 231 345> 539 159<301 301> 678 20G<167 441 441 441>
VStem: -32 671<0 0>
AnchorPoint: "Anchor-14" 0 0 basechar 0
AnchorPoint: "Anchor-13" 0 0 basechar 0
AnchorPoint: "Anchor-12" 306 1001 basechar 0
AnchorPoint: "Anchor-11" 524 0 basechar 0
AnchorPoint: "Anchor-10" 304 0 basechar 0
LayerCount: 2
Back
Fore
SplineSet
465 858 m 1xd8
 410 748 l 1
 147 841 l 1
 228 1001 l 1
 465 858 l 1xd8
395 0 m 1
 373 126 l 1
 231 126 l 1
 210 0 l 1
 -32 0 l 1
 167 698 l 1
 441 698 l 1
 639 0 l 1
 395 0 l 1
258 286 m 1
 345 286 l 1
 301 539 l 1xe8
 258 286 l 1
EndSplineSet
Substitution2: "'c2sc' Capitals to Small Capitals lookup 26 subtable" agrave.sc
Substitution2: "'aalt' Access All Alternates lookup 0 subtable" agrave.sc
Position2: "'cpsp' Capital Spacing lookup 0 subtable" dx=5 dy=0 dh=10 dv=0
EndChar

StartChar: Aacute
Encoding: 193 193 2
Width: 607
GlyphClass: 2
Flags: MW
HStem: 0 21G<-32 210 -32 -32 395 395 395 639> 126 160<258 345 258 373 231 345> 539 159<301 301> 678 20G<167 441 441 441>
VStem: -32 671<0 0>
AnchorPoint: "Anchor-11" 0 0 basechar 0
AnchorPoint: "Anchor-10" 152 698 basechar 0
AnchorPoint: "Anchor-9" 304 698 basechar 0
AnchorPoint: "Anchor-8" 524 0 basechar 0
LayerCount: 2
Fore
SplineSet
194 748 m 1xd8
 138 858 l 1
 376 1001 l 1
 456 841 l 1
 194 748 l 1xd8
373 126 m 1
 231 126 l 1
 210 0 l 1
 -32 0 l 1
 167 698 l 1
 441 698 l 1
 639 0 l 1
 395 0 l 1
 373 126 l 1
345 286 m 1
 301 539 l 1xe8
 258 286 l 1
 345 286 l 1
EndSplineSet
Substitution2: "'c2sc' Capitals to Small Capitals lookup 23 subtable" aacute.sc
Substitution2: "'aalt' Access All Alternates lookup 0 subtable" aacute.sc
Position2: "'cpsp' Capital Spacing lookup 0 subtable" dx=5 dy=0 dh=10 dv=0
EndChar
StartChar: Acircumflex
Encoding: 194 194 11
Width: 607
GlyphClass: 2
Flags: MW
HStem: 0 21G<-32 210 -32 -32 395 639 395 395> 126 160<258 345 258 373 231 345> 539 159<301 301> 678 20G<167 441 441 441>
VStem: -32 671<0 0>
AnchorPoint: "Anchor-14" 0 0 basechar 0
AnchorPoint: "Anchor-13" 407 872 basechar 0
AnchorPoint: "Anchor-12" 304 983 basechar 0
AnchorPoint: "Anchor-11" 524 0 basechar 0
AnchorPoint: "Anchor-10" 304 0 basechar 0
LayerCount: 2
Back
Fore
SplineSet
305 838 m 1xd8
 165 750 l 1
 92 835 l 1
 239 983 l 1
 370 983 l 1
 517 835 l 1
 444 750 l 1
 305 838 l 1xd8
395 0 m 1
 373 126 l 1
 231 126 l 1
 210 0 l 1
 -32 0 l 1
 167 698 l 1
 441 698 l 1
 639 0 l 1
 395 0 l 1
258 286 m 1
 345 286 l 1
 301 539 l 1xe8
 258 286 l 1
EndSplineSet
Substitution2: "'c2sc' Capitals to Small Capitals lookup 26 subtable" acircumflex.sc
Substitution2: "'aalt' Access All Alternates lookup 0 subtable" acircumflex.sc
Position2: "'cpsp' Capital Spacing lookup 0 subtable" dx=5 dy=0 dh=10 dv=0
EndChar
StartChar: Atilde
Encoding: 195 195 32
Width: 607
GlyphClass: 2
Flags: MW
HStem: 0 21G<-32 210 -32 -32 395 639 395 395> 126 160<258 345 258 373 231 345> 539 159<301 301> 678 20G<167 441 441 441> 740 154<196 371.5 344.5 371.5 344.5 398.5> 782 154<236.5 264>
VStem: -32 671<0 0>
AnchorPoint: "Anchor-14" 0 0 basechar 0
AnchorPoint: "Anchor-13" 0 0 basechar 0
AnchorPoint: "Anchor-12" 306 936 basechar 0
AnchorPoint: "Anchor-11" 524 0 basechar 0
AnchorPoint: "Anchor-10" 304 0 basechar 0
LayerCount: 2
Back
Fore
SplineSet
249 782 m 0xd6
 224 782 212 767 196 740 c 1
 95 789 l 1
 122 867 174 936 243 936 c 0xd6
 309 936 330 894 359 894 c 0
 384 894 395 909 411 936 c 1
 512 888 l 1
 486 811 435 740 362 740 c 0xda
 299 740 279 782 249 782 c 0xd6
395 0 m 1
 373 126 l 1
 231 126 l 1
 210 0 l 1
 -32 0 l 1
 167 698 l 1
 441 698 l 1
 639 0 l 1
 395 0 l 1
258 286 m 1
 345 286 l 1
 301 539 l 1xe6
 258 286 l 1
EndSplineSet
Substitution2: "'c2sc' Capitals to Small Capitals lookup 26 subtable" atilde.sc
Substitution2: "'aalt' Access All Alternates lookup 0 subtable" atilde.sc
Position2: "'cpsp' Capital Spacing lookup 0 subtable" dx=5 dy=0 dh=10 dv=0
EndChar

StartChar: Aring
Encoding: 197 197 9
Width: 607
GlyphClass: 2
Flags: MW
HStem: 0 21G<-32 210 -32 -32 395 395 395 639> 126 160<258 345 258 373 231 345> 539 159<301 301> 678 20G<167 441 441 441> 712 113<293.5 314.5 293.5 356> 912 111<293.5 314.5>
VStem: 141 126<852.5 884 852.5 909.5> 341 126<852.5 884>
AnchorPoint: "Anchor-11" 0 0 basechar 0
AnchorPoint: "Anchor-10" 152 698 basechar 0
AnchorPoint: "Anchor-9" 304 698 basechar 0
AnchorPoint: "Anchor-8" 524 0 basechar 0
LayerCount: 2
Fore
SplineSet
304 712 m 0xdf
 200 712 141 786 141 868 c 0
 141 951 200 1023 304 1023 c 0
 408 1023 467 951 467 868 c 0
 467 786 408 712 304 712 c 0xdf
304 912 m 0
 283 912 267 900 267 868 c 0
 267 837 283 825 304 825 c 0
 325 825 341 837 341 868 c 0
 341 900 325 912 304 912 c 0
373 126 m 1
 231 126 l 1
 210 0 l 1
 -32 0 l 1
 167 698 l 1
 441 698 l 1xd7
 639 0 l 1
 395 0 l 1
 373 126 l 1
345 286 m 1
 301 539 l 1xe7
 258 286 l 1
 345 286 l 1
EndSplineSet
Substitution2: "'c2sc' Capitals to Small Capitals lookup 23 subtable" aring.sc
Substitution2: "'aalt' Access All Alternates lookup 0 subtable" aring.sc
Position2: "'cpsp' Capital Spacing lookup 0 subtable" dx=5 dy=0 dh=10 dv=0
EndChar
StartChar: AE
Encoding: 198 198 33
Width: 874
GlyphClass: 2
Flags: MW
HStem: 0 159<627 861 627 861> 126 160<301 400 301 417 255 400> 275 154<610 819 610 610> 539 159<571 804 571 571>
VStem: -34 895<0 159>
AnchorPoint: "Anchor-14" 0 0 basechar 0
AnchorPoint: "Anchor-13" 0 0 basechar 0
AnchorPoint: "Anchor-12" 492 698 basechar 0
AnchorPoint: "Anchor-11" 0 0 basechar 0
AnchorPoint: "Anchor-10" 0 0 basechar 0
LayerCount: 2
Back
Fore
SplineSet
627 159 m 1xb8
 861 159 l 1
 861 0 l 1
 431 0 l 1xb8
 417 126 l 1
 255 126 l 1x58
 219 0 l 1
 -34 0 l 1
 236 698 l 1
 828 698 l 1
 804 539 l 1
 571 539 l 1
 588 429 l 1
 819 429 l 1
 819 275 l 1
 610 275 l 1
 627 159 l 1xb8
301 286 m 1x58
 400 286 l 1
 372 535 l 1
 301 286 l 1x58
EndSplineSet
Substitution2: "'c2sc' Capitals to Small Capitals lookup 26 subtable" ae.sc
Substitution2: "'aalt' Access All Alternates lookup 0 subtable" ae.sc
Position2: "'cpsp' Capital Spacing lookup 0 subtable" dx=5 dy=0 dh=10 dv=0
EndChar
StartChar: Ccedilla
Encoding: 199 199 47
Width: 589
GlyphClass: 2
Flags: MW
HStem: -283 112<304.5 324 298.5 388.5> -20 21G<391 391> -14 21G<273 273> 556 163<327 387>
VStem: 12 240<283.5 417.5 283.5 467> 354 151<-158.5 -140.5>
AnchorPoint: "Anchor-14" 383 356 basechar 0
AnchorPoint: "Anchor-13" 0 0 basechar 0
AnchorPoint: "Anchor-12" 360 698 basechar 0
AnchorPoint: "Anchor-11" 0 0 basechar 0
AnchorPoint: "Anchor-10" 354 -283 basechar 0
LayerCount: 2
Back
Fore
SplineSet
391 -40 m 1xdc
 465 -50 505 -87 505 -153 c 0
 505 -223 445 -283 332 -283 c 0
 277 -283 229 -265 199 -246 c 1
 246 -153 l 1
 266 -164 287 -171 310 -171 c 0
 338 -171 354 -166 354 -151 c 0
 354 -130 324 -125 259 -125 c 1
 273 -14 l 1xbc
 111 16 12 142 12 351 c 0
 12 583 149 719 350 719 c 0
 449 719 526 687 586 634 c 1
 478 507 l 1
 447 536 411 556 363 556 c 0
 291 556 252 484 252 351 c 0
 252 216 293 150 371 150 c 0
 416 150 453 175 494 208 c 1
 594 80 l 1
 546 32 475 -10 391 -20 c 1
 391 -40 l 1xdc
EndSplineSet
Substitution2: "'c2sc' Capitals to Small Capitals lookup 26 subtable" ccedilla.sc
Substitution2: "'aalt' Access All Alternates lookup 0 subtable" ccedilla.sc
Position2: "'cpsp' Capital Spacing lookup 0 subtable" dx=5 dy=0 dh=10 dv=0
EndChar

StartChar: Ecircumflex
Encoding: 202 202 28
Width: 517
GlyphClass: 2
Flags: MW
HStem: 0 159<261 498 261 498> 278 153<261 456 261 456> 539 159<261 483 261 261>
VStem: 30 231<159 278 431 539>
AnchorPoint: "Anchor-11" 264 0 basechar 0
AnchorPoint: "Anchor-10" 32 698 basechar 0
AnchorPoint: "Anchor-9" 268 698 basechar 0
AnchorPoint: "Anchor-8" 468 0 basechar 0
LayerCount: 2
Fore
SplineSet
268 838 m 1
 128 750 l 1
 55 835 l 1
 202 983 l 1
 333 983 l 1
 480 835 l 1
 407 750 l 1
 268 838 l 1
483 539 m 1
 261 539 l 1
 261 431 l 1
 456 431 l 1
 456 278 l 1
 261 278 l 1
 261 159 l 1
 498 159 l 1
 498 0 l 1
 30 0 l 1
 30 698 l 1
 506 698 l 1
 483 539 l 1
EndSplineSet
Substitution2: "'c2sc' Capitals to Small Capitals lookup 23 subtable" ecircumflex.sc
Substitution2: "'aalt' Access All Alternates lookup 0 subtable" ecircumflex.sc
Position2: "'cpsp' Capital Spacing lookup 0 subtable" dx=5 dy=0 dh=10 dv=0
EndChar

StartChar: Edieresis
Encoding: 203 203 29
Width: 517
GlyphClass: 2
Flags: MW
HStem: 0 159<261 498 261 498> 278 153<261 456 261 456> 539 159<261 483 261 261> 754 201<113 170.5 365.5 423.5>
VStem: 30 231<159 278 431 539> 37 207<827 883> 290 207<827 883>
AnchorPoint: "Anchor-11" 264 0 basechar 0
AnchorPoint: "Anchor-10" 32 698 basechar 0
AnchorPoint: "Anchor-9" 263 883 basechar 0
AnchorPoint: "Anchor-8" 468 0 basechar 0
LayerCount: 2
Fore
SplineSet
141 955 m 0xf8
 200 955 244 911 244 855 c 0xf8
 244 799 200 754 141 754 c 0
 85 754 37 799 37 855 c 0xf4
 37 911 85 955 141 955 c 0xf8
394 955 m 0xfa
 453 955 497 911 497 855 c 0
 497 799 453 754 394 754 c 0
 337 754 290 799 290 855 c 0
 290 911 337 955 394 955 c 0xfa
483 539 m 1
 261 539 l 1
 261 431 l 1
 456 431 l 1
 456 278 l 1
 261 278 l 1
 261 159 l 1
 498 159 l 1
 498 0 l 1
 30 0 l 1
 30 698 l 1xf8
 506 698 l 1
 483 539 l 1
EndSplineSet
Substitution2: "'c2sc' Capitals to Small Capitals lookup 23 subtable" edieresis.sc
Substitution2: "'aalt' Access All Alternates lookup 0 subtable" edieresis.sc
Position2: "'cpsp' Capital Spacing lookup 0 subtable" dx=5 dy=0 dh=10 dv=0
EndChar

StartChar: Iacute
Encoding: 205 205 45
Width: 291
GlyphClass: 2
Flags: MW
HStem: 0 21G<30 261 30 30> 678 20G<30 261 261 261>
VStem: 30 231<0 698>
AnchorPoint: "Anchor-11" 0 0 basechar 0
AnchorPoint: "Anchor-10" 32 698 basechar 0
AnchorPoint: "Anchor-9" 146 698 basechar 0
AnchorPoint: "Anchor-8" 215 0 basechar 0
LayerCount: 2
Fore
SplineSet
298 841 m 1
 36 748 l 1
 -20 858 l 1
 218 1001 l 1
 298 841 l 1
261 0 m 1
 30 0 l 1
 30 698 l 1
 261 698 l 1
 261 0 l 1
EndSplineSet
Substitution2: "'c2sc' Capitals to Small Capitals lookup 23 subtable" iacute.sc
Substitution2: "'aalt' Access All Alternates lookup 0 subtable" iacute.sc
Position2: "'cpsp' Capital Spacing lookup 0 subtable" dx=5 dy=0 dh=10 dv=0
EndChar

StartChar: Icircumflex
Encoding: 206 206 47
Width: 291
GlyphClass: 2
Flags: MW
HStem: 0 21G<30 261 30 30> 678 20G<30 261 261 261>
VStem: 30 231<0 698>
AnchorPoint: "Anchor-11" 0 0 basechar 0
AnchorPoint: "Anchor-10" 32 698 basechar 0
AnchorPoint: "Anchor-9" 146 698 basechar 0
AnchorPoint: "Anchor-8" 215 0 basechar 0
LayerCount: 2
Fore
SplineSet
146 838 m 1
 6 750 l 1
 -67 835 l 1
 80 983 l 1
 211 983 l 1
 358 835 l 1
 285 750 l 1
 146 838 l 1
261 0 m 1
 30 0 l 1
 30 698 l 1
 261 698 l 1
 261 0 l 1
EndSplineSet
Substitution2: "'c2sc' Capitals to Small Capitals lookup 23 subtable" icircumflex.sc
Substitution2: "'aalt' Access All Alternates lookup 0 subtable" icircumflex.sc
Position2: "'cpsp' Capital Spacing lookup 0 subtable" dx=5 dy=0 dh=10 dv=0
EndChar
StartChar: Idieresis
Encoding: 207 207 125
Width: 291
GlyphClass: 2
Flags: MW
HStem: 0 21G<30 261 30 30> 678 20G<30 261 261 261> 754 201<-9 48.5 243.5 301.5>
VStem: -85 207<827 883> 30 231<0 698 0 698> 168 207<827 883>
AnchorPoint: "Anchor-14" 0 0 basechar 0
AnchorPoint: "Anchor-13" 0 0 basechar 0
AnchorPoint: "Anchor-12" 148 955 basechar 0
AnchorPoint: "Anchor-11" 215 0 basechar 0
AnchorPoint: "Anchor-10" 146 0 basechar 0
LayerCount: 2
Back
Fore
SplineSet
19 955 m 0xe8
 78 955 122 911 122 855 c 0xe8
 122 799 78 754 19 754 c 0
 -37 754 -85 799 -85 855 c 0xf0
 -85 911 -37 955 19 955 c 0xe8
272 955 m 0xe4
 331 955 375 911 375 855 c 0xe4
 375 799 331 754 272 754 c 0
 215 754 168 799 168 855 c 0xe8
 168 911 215 955 272 955 c 0xe4
261 698 m 1xe8
 261 0 l 1
 30 0 l 1
 30 698 l 1
 261 698 l 1xe8
EndSplineSet
Substitution2: "'c2sc' Capitals to Small Capitals lookup 26 subtable" idieresis.sc
Substitution2: "'aalt' Access All Alternates lookup 0 subtable" idieresis.sc
Position2: "'cpsp' Capital Spacing lookup 0 subtable" dx=5 dy=0 dh=10 dv=0
EndChar
StartChar: Eth
Encoding: 208 208 56
Width: 674
GlyphClass: 2
Flags: MW
HStem: 0 161<277 297> 290 126<8 46 8 46 277 390> 537 161<277 287 287 313 277 277>
VStem: 46 231<161 290 161 290 161 290 416 537> 425 237<280.5 422.5>
AnchorPoint: "Anchor-14" 345 349 basechar 0
AnchorPoint: "Anchor-13" 0 0 basechar 0
AnchorPoint: "Anchor-12" 304 698 basechar 0
AnchorPoint: "Anchor-11" 0 0 basechar 0
AnchorPoint: "Anchor-10" 328 0 basechar 0
LayerCount: 2
Back
Fore
SplineSet
287 698 m 2
 481 698 662 638 662 352 c 0
 662 74 501 0 297 0 c 2
 46 0 l 1
 46 290 l 1
 8 290 l 1
 8 416 l 1
 46 416 l 1
 46 698 l 1
 287 698 l 2
310 161 m 2
 399 161 425 209 425 352 c 0
 425 493 396 537 313 537 c 2
 277 537 l 1
 277 416 l 1
 390 416 l 1
 390 290 l 1
 277 290 l 1
 277 161 l 1
 310 161 l 2
EndSplineSet
Substitution2: "'c2sc' Capitals to Small Capitals lookup 26 subtable" eth.sc
Substitution2: "'aalt' Access All Alternates lookup 0 subtable" eth.sc
Position2: "'cpsp' Capital Spacing lookup 0 subtable" dx=5 dy=0 dh=10 dv=0
EndChar

StartChar: Ntilde
Encoding: 209 209 70
Width: 644
GlyphClass: 2
Flags: MW
HStem: 0 21G<30 233 30 30 326 614 326 326> 678 20G<30 312 312 312 411 614 614 614> 740 154<212 387.5 360.5 387.5 360.5 416> 782 154<252.5 280>
VStem: 30 203<0 193 0 698> 411 203<509 698>
AnchorPoint: "Anchor-11" 322 0 basechar 0
AnchorPoint: "Anchor-10" 0 0 basechar 0
AnchorPoint: "Anchor-9" 320 698 basechar 0
AnchorPoint: "Anchor-8" 0 0 basechar 0
LayerCount: 2
Fore
SplineSet
381 740 m 0xec
 312 740 295 782 265 782 c 0
 240 782 228 767 212 740 c 1
 111 789 l 1
 138 867 190 936 259 936 c 0xdc
 329 936 346 894 375 894 c 0
 400 894 411 909 427 936 c 1
 528 888 l 1
 502 811 451 740 381 740 c 0xec
614 0 m 1xdc
 326 0 l 1
 203 491 l 1
 214 421 233 323 233 193 c 2
 233 0 l 1
 30 0 l 1
 30 698 l 1
 312 698 l 1
 442 205 l 1
 427 301 411 374 411 509 c 2
 411 698 l 1
 614 698 l 1
 614 0 l 1xdc
EndSplineSet
Substitution2: "'c2sc' Capitals to Small Capitals lookup 23 subtable" ntilde.sc
Substitution2: "'aalt' Access All Alternates lookup 0 subtable" ntilde.sc
Position2: "'cpsp' Capital Spacing lookup 0 subtable" dx=5 dy=0 dh=10 dv=0
EndChar
StartChar: Ocircumflex
Encoding: 212 212 183
Width: 690
GlyphClass: 2
Flags: MW
HStem: -22 162<309.5 381 309.5 453.5> 558 161<310 379.5>
VStem: 12 240<274 426.5 274 463> 438 239<274 426.5>
AnchorPoint: "Anchor-14" 0 0 basechar 0
AnchorPoint: "Anchor-13" 447 872 basechar 0
AnchorPoint: "Anchor-12" 344 983 basechar 0
AnchorPoint: "Anchor-11" 490 0 basechar 0
AnchorPoint: "Anchor-10" 345 0 basechar 0
LayerCount: 2
Back
Fore
SplineSet
484 750 m 1
 345 838 l 1
 205 750 l 1
 132 835 l 1
 279 983 l 1
 410 983 l 1
 557 835 l 1
 484 750 l 1
345 719 m 0
 562 719 677 581 677 350 c 0
 677 125 562 -22 345 -22 c 0
 127 -22 12 119 12 350 c 0
 12 576 127 719 345 719 c 0
345 558 m 0
 275 558 252 503 252 350 c 0
 252 198 274 140 345 140 c 0
 417 140 438 198 438 350 c 0
 438 503 414 558 345 558 c 0
EndSplineSet
Substitution2: "'c2sc' Capitals to Small Capitals lookup 26 subtable" ocircumflex.sc
Substitution2: "'aalt' Access All Alternates lookup 0 subtable" ocircumflex.sc
Position2: "'cpsp' Capital Spacing lookup 0 subtable" dx=5 dy=0 dh=10 dv=0
EndChar
StartChar: Otilde
Encoding: 213 213 214
Width: 690
GlyphClass: 2
Flags: MW
HStem: -22 162<309.5 381 309.5 453.5> 558 161<310 379.5> 740 154<237 412.5 385.5 412.5 385.5 439.5> 782 154<277.5 305>
VStem: 12 240<274 426.5 274 463> 438 239<274 426.5>
AnchorPoint: "Anchor-14" 0 0 basechar 0
AnchorPoint: "Anchor-13" 598 698 basechar 0
AnchorPoint: "Anchor-12" 347 936 basechar 0
AnchorPoint: "Anchor-11" 490 0 basechar 0
AnchorPoint: "Anchor-10" 345 0 basechar 0
LayerCount: 2
Back
Fore
SplineSet
403 740 m 0xec
 340 740 320 782 290 782 c 0
 265 782 253 767 237 740 c 1
 136 789 l 1
 163 867 215 936 284 936 c 0xdc
 350 936 371 894 400 894 c 0
 425 894 436 909 452 936 c 1
 553 888 l 1
 527 811 476 740 403 740 c 0xec
345 719 m 0xdc
 562 719 677 581 677 350 c 0
 677 125 562 -22 345 -22 c 0
 127 -22 12 119 12 350 c 0
 12 576 127 719 345 719 c 0xdc
345 558 m 0
 275 558 252 503 252 350 c 0
 252 198 274 140 345 140 c 0
 417 140 438 198 438 350 c 0
 438 503 414 558 345 558 c 0
EndSplineSet
Substitution2: "'c2sc' Capitals to Small Capitals lookup 26 subtable" otilde.sc
Substitution2: "'aalt' Access All Alternates lookup 0 subtable" otilde.sc
Position2: "'cpsp' Capital Spacing lookup 0 subtable" dx=5 dy=0 dh=10 dv=0
EndChar
StartChar: Odieresis
Encoding: 214 214 190
Width: 690
GlyphClass: 2
Flags: MW
HStem: -22 162<309.5 381 309.5 453.5> 558 161<310 379.5> 754 201<190 247.5 442.5 500.5>
VStem: 12 240<274 426.5 274 463> 114 207<827 883> 367 207<827 883> 438 239<274 426.5>
AnchorPoint: "Anchor-14" 0 0 basechar 0
AnchorPoint: "Anchor-13" 598 698 basechar 0
AnchorPoint: "Anchor-12" 347 955 basechar 0
AnchorPoint: "Anchor-11" 490 0 basechar 0
AnchorPoint: "Anchor-10" 345 0 basechar 0
LayerCount: 2
Back
Fore
SplineSet
218 955 m 0xec
 277 955 321 911 321 855 c 0
 321 799 277 754 218 754 c 0
 162 754 114 799 114 855 c 0
 114 911 162 955 218 955 c 0xec
471 955 m 0
 530 955 574 911 574 855 c 0
 574 799 530 754 471 754 c 0
 414 754 367 799 367 855 c 0
 367 911 414 955 471 955 c 0
345 719 m 0xf2
 562 719 677 581 677 350 c 0
 677 125 562 -22 345 -22 c 0
 127 -22 12 119 12 350 c 0
 12 576 127 719 345 719 c 0xf2
345 558 m 0
 275 558 252 503 252 350 c 0
 252 198 274 140 345 140 c 0
 417 140 438 198 438 350 c 0
 438 503 414 558 345 558 c 0
EndSplineSet
Substitution2: "'c2sc' Capitals to Small Capitals lookup 26 subtable" odieresis.sc
Substitution2: "'aalt' Access All Alternates lookup 0 subtable" odieresis.sc
Position2: "'cpsp' Capital Spacing lookup 0 subtable" dx=5 dy=0 dh=10 dv=0
EndChar
StartChar: multiply
Encoding: 215 215 2266
Width: 537
GlyphClass: 2
Flags: MW
HStem: 77 457<157 157 157 379>
VStem: 40 457<195 195 195 417>
LayerCount: 2
Back
Fore
SplineSet
379 534 m 1
 497 417 l 1
 382 306 l 1
 497 195 l 1
 379 77 l 1
 268 192 l 1
 157 77 l 1
 40 195 l 1
 155 306 l 1
 40 417 l 1
 157 534 l 1
 268 419 l 1
 379 534 l 1
EndSplineSet
Substitution2: "'onum' Oldstyle Figures lookup 25 subtable" multiply.osf
Substitution2: "'tnum' Tabular Numbers lookup 24 subtable" multiply.tf
AlternateSubs2: "'aalt' Access All Alternates lookup 1 subtable" multiply.tf multiply.osf
EndChar
StartChar: Ucircumflex
Encoding: 219 219 267
Width: 640
GlyphClass: 2
Flags: MW
HStem: -22 164<294.5 345.5 294.5 422.5> 678 20G<20 251 251 251 389 620 620 620>
VStem: 20 231<239 245 245 698> 389 231<245 698>
AnchorPoint: "Anchor-14" 0 0 basechar 0
AnchorPoint: "Anchor-13" 423 872 basechar 0
AnchorPoint: "Anchor-12" 320 983 basechar 0
AnchorPoint: "Anchor-11" 467 0 basechar 0
AnchorPoint: "Anchor-10" 320 0 basechar 0
LayerCount: 2
Back
Fore
SplineSet
460 750 m 1
 321 838 l 1
 181 750 l 1
 108 835 l 1
 255 983 l 1
 386 983 l 1
 533 835 l 1
 460 750 l 1
620 698 m 1
 620 239 l 2
 620 96 525 -22 320 -22 c 0
 115 -22 20 84 20 239 c 2
 20 698 l 1
 251 698 l 1
 251 245 l 2
 251 175 269 142 320 142 c 0
 371 142 389 175 389 245 c 2
 389 698 l 1
 620 698 l 1
EndSplineSet
Substitution2: "'c2sc' Capitals to Small Capitals lookup 26 subtable" ucircumflex.sc
Substitution2: "'aalt' Access All Alternates lookup 0 subtable" ucircumflex.sc
Position2: "'cpsp' Capital Spacing lookup 0 subtable" dx=5 dy=0 dh=10 dv=0
EndChar

StartChar: Thorn
Encoding: 222 222 84
Width: 618
GlyphClass: 2
Flags: MW
HStem: 0 21G<30 261 30 30> 101 161<261 301 301 325 261 301> 439 159<261 293 261 297> 678 20G<30 261 261 261>
VStem: 30 231<0 101 0 262 262 439 598 698> 372 235<327 382.5>
AnchorPoint: "Anchor-11" 0 0 basechar 0
AnchorPoint: "Anchor-10" 0 0 basechar 0
AnchorPoint: "Anchor-9" 179 854 basechar 0
AnchorPoint: "Anchor-8" 0 0 basechar 0
LayerCount: 2
Fore
SplineSet
297 598 m 2
 489 598 607 518 607 359 c 0
 607 187 493 101 325 101 c 2
 261 101 l 1
 261 0 l 1
 30 0 l 1
 30 698 l 1
 261 698 l 1
 261 598 l 1
 297 598 l 2
301 262 m 2
 349 262 372 295 372 359 c 0
 372 406 354 439 293 439 c 2
 261 439 l 1
 261 262 l 1
 301 262 l 2
EndSplineSet
Substitution2: "'c2sc' Capitals to Small Capitals lookup 23 subtable" thorn.sc
Substitution2: "'aalt' Access All Alternates lookup 0 subtable" thorn.sc
Position2: "'cpsp' Capital Spacing lookup 0 subtable" dx=5 dy=0 dh=10 dv=0
EndChar

StartChar: germandbls
Encoding: 223 223 233
Width: 619
GlyphClass: 2
Flags: MW
HStem: -22 21G<373.5 463> -22 169<373.5 375 360.5 463> 0 9 618 149<278 305.5>
VStem: 30 222<0 528 528 537 0 601> 257 185<402.5 448> 324 208<560 588> 392 230<165 217.5>
LayerCount: 2
Fore
SplineSet
300 767 m 0x3a
 456 767 532 691 532 601 c 0x3a
 532 519 442 495 442 436 c 0x34
 442 369 622 347 622 169 c 0
 622 48 529 -22 397 -22 c 0x99
 350 -22 298 -9 262 9 c 1x3a
 328 157 l 1
 343 149 355 147 366 147 c 0
 384 147 392 156 392 174 c 0x59
 392 261 257 254 257 391 c 0x34
 257 505 324 500 324 577 c 0
 324 599 317 618 294 618 c 0
 262 618 252 587 252 537 c 2
 252 0 l 1
 30 0 l 1
 30 528 l 2
 30 674 123 767 300 767 c 0x3a
EndSplineSet
Substitution2: "'smcp' Lowercase to Small Capitals lookup 24 subtable" germandbls.sc
Substitution2: "'aalt' Access All Alternates lookup 0 subtable" germandbls.sc
EndChar

StartChar: agrave
Encoding: 224 224 139
Width: 553
GlyphClass: 2
Flags: MW
HStem: -22 21G<132.5 216> -22 155<132.5 265> -17 21G<501 501> 223 113<272 290 290 300> 403 154<233 259> 689 20G<131 131> 698 20G<449 449>
VStem: 8 215<161.5 190.5 161.5 210.5> 300 216<166 184 184 223 223 223 336 343 343 355 166 367.5>
AnchorPoint: "Anchor-11" 0 0 basechar 0
AnchorPoint: "Anchor-10" 0 0 basechar 0
AnchorPoint: "Anchor-9" 281 536 basechar 0
AnchorPoint: "Anchor-8" 511 -17 basechar 0
LayerCount: 2
Fore
SplineSet
391 607 m 1x3a80
 131 709 l 1x9d80
 212 868 l 1
 449 718 l 1
 391 607 l 1x3a80
516 184 m 2
 516 148 522 133 546 124 c 1
 501 -17 l 1x3a80
 430 -12 381 5 348 56 c 1
 308 -4 246 -22 186 -22 c 0
 79 -22 8 51 8 151 c 0
 8 270 99 336 272 336 c 2
 300 336 l 1
 300 343 l 2
 300 392 287 403 231 403 c 0
 202 403 147 393 94 375 c 1
 46 514 l 1
 114 542 202 557 264 557 c 0
 444 557 516 492 516 355 c 2
 516 184 l 2
256 133 m 0x5b80
 274 133 290 143 300 155 c 1
 300 223 l 1
 290 223 l 2
 244 223 223 208 223 173 c 0
 223 150 237 133 256 133 c 0x5b80
EndSplineSet
Substitution2: "'smcp' Lowercase to Small Capitals lookup 24 subtable" agrave.sc
Substitution2: "'aalt' Access All Alternates lookup 0 subtable" agrave.sc
EndChar

StartChar: adieresis
Encoding: 228 228 138
Width: 553
GlyphClass: 2
Flags: MW
HStem: -22 21G<132.5 216> -22 155<132.5 265> -17 21G<501 501> 223 113<272 290 290 300> 403 154<233 259> 628 201<126 183.5 378.5 436.5>
VStem: 8 215<161.5 190.5 161.5 210.5> 50 207<701 757> 300 216<166 184 184 223 223 223 336 343 343 355 166 367.5> 303 207<701 757>
AnchorPoint: "Anchor-11" 0 0 basechar 0
AnchorPoint: "Anchor-10" 0 0 basechar 0
AnchorPoint: "Anchor-9" 276 757 basechar 0
AnchorPoint: "Anchor-8" 511 -17 basechar 0
LayerCount: 2
Fore
SplineSet
154 628 m 0x3d80
 98 628 50 673 50 729 c 0
 50 785 98 829 154 829 c 0
 213 829 257 785 257 729 c 0
 257 673 213 628 154 628 c 0x3d80
407 628 m 0x3d40
 350 628 303 673 303 729 c 0
 303 785 350 829 407 829 c 0
 466 829 510 785 510 729 c 0
 510 673 466 628 407 628 c 0x3d40
516 184 m 2x9e80
 516 148 522 133 546 124 c 1
 501 -17 l 1x3d80
 430 -12 381 5 348 56 c 1
 308 -4 246 -22 186 -22 c 0
 79 -22 8 51 8 151 c 0
 8 270 99 336 272 336 c 2
 300 336 l 1
 300 343 l 2
 300 392 287 403 231 403 c 0
 202 403 147 393 94 375 c 1
 46 514 l 1
 114 542 202 557 264 557 c 0
 444 557 516 492 516 355 c 2
 516 184 l 2x9e80
256 133 m 0x5e80
 274 133 290 143 300 155 c 1
 300 223 l 1
 290 223 l 2
 244 223 223 208 223 173 c 0
 223 150 237 133 256 133 c 0x5e80
EndSplineSet
Substitution2: "'smcp' Lowercase to Small Capitals lookup 24 subtable" adieresis.sc
Substitution2: "'aalt' Access All Alternates lookup 0 subtable" adieresis.sc
EndChar
StartChar: aring
Encoding: 229 229 363
Width: 553
GlyphClass: 2
Flags: MW
HStem: -22 155<132.5 265> -17 21G<501 501> 223 113<272 290 290 300> 403 154<233 259> 586 113<270.5 291.5 270.5 333> 786 111<270.5 291.5>
VStem: 8 215<161.5 190.5 161.5 210.5> 118 126<726.5 758 726.5 783.5> 300 216<166 184 184 223 223 223 336 343 343 355 166 367.5> 318 126<726.5 758>
AnchorPoint: "Anchor-14" 0 0 basechar 0
AnchorPoint: "Anchor-13" 0 0 basechar 0
AnchorPoint: "Anchor-12" 283 897 basechar 0
AnchorPoint: "Anchor-11" 511 -17 basechar 0
AnchorPoint: "Anchor-10" 281 0 basechar 0
LayerCount: 2
Back
Fore
SplineSet
281 586 m 0x6d80
 177 586 118 660 118 742 c 0
 118 825 177 897 281 897 c 0
 385 897 444 825 444 742 c 0x6d40
 444 660 385 586 281 586 c 0x6d80
281 786 m 0x6d40
 260 786 244 774 244 742 c 0
 244 711 260 699 281 699 c 0
 302 699 318 711 318 742 c 0
 318 774 302 786 281 786 c 0x6d40
516 184 m 2xbe80
 516 148 522 133 546 124 c 1
 501 -17 l 1x6d80
 429 -13 381 5 348 56 c 1
 308 -4 247 -22 186 -22 c 0
 79 -22 8 51 8 151 c 0
 8 270 99 336 272 336 c 2
 300 336 l 1
 300 343 l 2
 300 392 287 403 231 403 c 0
 202 403 147 393 94 375 c 1
 46 514 l 1
 114 542 202 557 264 557 c 0
 444 557 516 492 516 355 c 2
 516 184 l 2xbe80
256 133 m 0
 274 133 291 143 300 155 c 1
 300 223 l 1
 290 223 l 2
 244 223 223 208 223 173 c 0
 223 150 237 133 256 133 c 0
EndSplineSet
Substitution2: "'smcp' Lowercase to Small Capitals lookup 27 subtable" aring.sc
Substitution2: "'aalt' Access All Alternates lookup 0 subtable" aring.sc
EndChar
StartChar: ccedilla
Encoding: 231 231 384
Width: 479
GlyphClass: 2
Flags: MW
HStem: -283 112<252.5 272 246.5 336.5> -20 21G<339 339> -13 21G<221 221> 392 165<292 332.5>
VStem: 8 230<213 314 213 348.5> 302 151<-158.5 -140.5>
AnchorPoint: "Anchor-14" 0 0 basechar 0
AnchorPoint: "Anchor-13" 0 0 basechar 0
AnchorPoint: "Anchor-12" 293 536 basechar 0
AnchorPoint: "Anchor-11" 0 0 basechar 0
AnchorPoint: "Anchor-10" 302 -283 basechar 0
LayerCount: 2
Back
Fore
SplineSet
498 46 m 1xdc
 456 12 405 -13 339 -20 c 1
 339 -40 l 1xdc
 413 -50 453 -87 453 -153 c 0
 453 -223 393 -283 280 -283 c 0
 225 -283 177 -265 147 -246 c 1
 194 -153 l 1
 214 -164 235 -171 258 -171 c 0
 286 -171 302 -166 302 -151 c 0
 302 -130 272 -125 207 -125 c 1
 221 -13 l 1xbc
 87 17 8 124 8 264 c 0
 8 433 122 557 297 557 c 0
 383 557 447 529 498 483 c 1
 408 355 l 1
 377 381 347 392 318 392 c 0
 266 392 238 365 238 263 c 0
 238 163 272 148 316 148 c 0
 346 148 367 158 404 181 c 1
 498 46 l 1xdc
EndSplineSet
Substitution2: "'smcp' Lowercase to Small Capitals lookup 27 subtable" ccedilla.sc
Substitution2: "'aalt' Access All Alternates lookup 0 subtable" ccedilla.sc
EndChar
StartChar: edieresis
Encoding: 235 235 422
Width: 559
GlyphClass: 2
Flags: MW
HStem: -22 155<303.5 347.5 303.5 357> 206 122<232 338 230 552 232 232> 421 136<271 311> 628 201<131 188.5 383.5 441.5>
VStem: 8 222<328 328 328 345> 55 207<701 757> 308 207<701 757>
AnchorPoint: "Anchor-14" 0 0 basechar 0
AnchorPoint: "Anchor-13" 0 0 basechar 0
AnchorPoint: "Anchor-12" 288 829 basechar 0
AnchorPoint: "Anchor-11" 468 12 basechar 0
AnchorPoint: "Anchor-10" 294 0 basechar 0
LayerCount: 2
Back
Fore
SplineSet
159 628 m 0x76
 103 628 55 673 55 729 c 0
 55 785 103 829 159 829 c 0
 218 829 262 785 262 729 c 0
 262 673 218 628 159 628 c 0x76
412 628 m 0
 355 628 308 673 308 729 c 0
 308 785 355 829 412 829 c 0
 471 829 515 785 515 729 c 0
 515 673 471 628 412 628 c 0
557 273 m 0
 557 256 555 227 552 206 c 1
 232 206 l 1
 243 141 277 133 330 133 c 0
 365 133 401 148 447 180 c 1
 537 60 l 1
 483 17 406 -22 308 -22 c 0
 101 -22 8 103 8 268 c 0xe8
 8 422 98 557 285 557 c 0
 446 557 557 456 557 273 c 0
338 328 m 1x6a
 338 335 l 2
 337 378 333 421 289 421 c 0
 253 421 235 401 230 328 c 1
 338 328 l 1x6a
EndSplineSet
Substitution2: "'smcp' Lowercase to Small Capitals lookup 27 subtable" edieresis.sc
Substitution2: "'aalt' Access All Alternates lookup 0 subtable" edieresis.sc
EndChar
StartChar: igrave
Encoding: 236 236 489
Width: 282
GlyphClass: 2
Flags: MW
HStem: 0 21G<30 252 30 30> 516 20G<30 252 252 252> 689 20G<-8 -8> 698 20G<310 310>
VStem: 30 222<0 536 0 536>
AnchorPoint: "Anchor-14" 0 0 basechar 0
AnchorPoint: "Anchor-13" 0 0 basechar 0
AnchorPoint: "Anchor-12" 153 868 basechar 0
AnchorPoint: "Anchor-11" 213 0 basechar 0
AnchorPoint: "Anchor-10" 141 0 basechar 0
LayerCount: 2
Back
Fore
SplineSet
73 868 m 1xd8
 310 718 l 1xd8
 252 607 l 1
 -8 709 l 1xe8
 73 868 l 1xd8
252 536 m 1
 252 0 l 1
 30 0 l 1
 30 536 l 1
 252 536 l 1
EndSplineSet
Substitution2: "'smcp' Lowercase to Small Capitals lookup 27 subtable" igrave.sc
Substitution2: "'aalt' Access All Alternates lookup 0 subtable" igrave.sc
EndChar
StartChar: iacute
Encoding: 237 237 480
Width: 282
GlyphClass: 2
Flags: MW
HStem: 0 21G<30 252 30 30> 516 20G<30 252 252 252>
VStem: 30 222<0 536 0 536>
AnchorPoint: "Anchor-14" 0 0 basechar 0
AnchorPoint: "Anchor-13" 0 0 basechar 0
AnchorPoint: "Anchor-12" 140 868 basechar 0
AnchorPoint: "Anchor-11" 213 0 basechar 0
AnchorPoint: "Anchor-10" 141 0 basechar 0
LayerCount: 2
Back
Fore
SplineSet
206 868 m 1
 287 709 l 1
 28 607 l 1
 -31 718 l 1
 206 868 l 1
252 536 m 1
 252 0 l 1
 30 0 l 1
 30 536 l 1
 252 536 l 1
EndSplineSet
Substitution2: "'smcp' Lowercase to Small Capitals lookup 27 subtable" iacute.sc
Substitution2: "'aalt' Access All Alternates lookup 0 subtable" iacute.sc
EndChar
StartChar: icircumflex
Encoding: 238 238 483
Width: 282
GlyphClass: 2
Flags: MW
HStem: 0 21G<30 252 30 30> 516 20G<30 252 252 252>
VStem: 30 222<0 536 0 536>
AnchorPoint: "Anchor-14" 0 0 basechar 0
AnchorPoint: "Anchor-13" 0 0 basechar 0
AnchorPoint: "Anchor-12" 143 851 basechar 0
AnchorPoint: "Anchor-11" 213 0 basechar 0
AnchorPoint: "Anchor-10" 141 0 basechar 0
LayerCount: 2
Back
Fore
SplineSet
1 607 m 1
 -72 691 l 1
 75 851 l 1
 206 851 l 1
 353 691 l 1
 280 607 l 1
 141 706 l 1
 1 607 l 1
252 536 m 1
 252 0 l 1
 30 0 l 1
 30 536 l 1
 252 536 l 1
EndSplineSet
Substitution2: "'smcp' Lowercase to Small Capitals lookup 27 subtable" icircumflex.sc
Substitution2: "'aalt' Access All Alternates lookup 0 subtable" icircumflex.sc
EndChar
StartChar: idieresis
Encoding: 239 239 485
Width: 282
GlyphClass: 2
Flags: MW
HStem: 0 21G<30 252 30 30> 516 20G<30 252 252 252> 628 201<-14 43.5 238.5 296.5>
VStem: -90 207<701 757> 30 222<0 536 0 536> 163 207<701 757>
AnchorPoint: "Anchor-14" 0 0 basechar 0
AnchorPoint: "Anchor-13" 0 0 basechar 0
AnchorPoint: "Anchor-12" 143 829 basechar 0
AnchorPoint: "Anchor-11" 213 0 basechar 0
AnchorPoint: "Anchor-10" 141 0 basechar 0
LayerCount: 2
Back
Fore
SplineSet
14 829 m 0xe8
 73 829 117 785 117 729 c 0xe8
 117 673 73 628 14 628 c 0
 -42 628 -90 673 -90 729 c 0xf0
 -90 785 -42 829 14 829 c 0xe8
267 829 m 0xe4
 326 829 370 785 370 729 c 0xe4
 370 673 326 628 267 628 c 0
 210 628 163 673 163 729 c 0xe8
 163 785 210 829 267 829 c 0xe4
252 536 m 1xe8
 252 0 l 1
 30 0 l 1
 30 536 l 1
 252 536 l 1xe8
EndSplineSet
Substitution2: "'smcp' Lowercase to Small Capitals lookup 27 subtable" idieresis.sc
Substitution2: "'aalt' Access All Alternates lookup 0 subtable" idieresis.sc
EndChar
StartChar: eth
Encoding: 240 240 392
Width: 587
GlyphClass: 2
Flags: MW
HStem: -22 157<274 317.5 274 384.5> 336 148<169.5 303> 558 20G 746 20G<94 94>
VStem: 8 225<194.5 270 194.5 310> 348 226<246 324 324 324>
AnchorPoint: "Anchor-14" 0 0 basechar 0
AnchorPoint: "Anchor-13" 0 0 basechar 0
AnchorPoint: "Anchor-12" 320 745 basechar 0
AnchorPoint: "Anchor-11" 0 0 basechar 0
AnchorPoint: "Anchor-10" 289 0 basechar 0
LayerCount: 2
Back
Fore
SplineSet
372 677 m 1
 522 575 574 445 574 288 c 0
 574 128 481 -22 288 -22 c 0
 128 -22 8 73 8 233 c 0
 8 387 117 484 222 484 c 0
 270 484 305 474 340 455 c 1
 322 495 299 525 256 558 c 1
 216 517 l 1
 81 578 l 1
 119 618 l 1
 91 624 68 628 52 630 c 1
 94 766 l 1
 136 761 174 755 235 737 c 1
 313 819 l 1
 420 725 l 1
 372 677 l 1
293 135 m 0
 342 135 348 168 348 246 c 2
 348 324 l 1
 332 331 313 336 293 336 c 0
 255 336 233 306 233 234 c 0
 233 155 255 135 293 135 c 0
EndSplineSet
Substitution2: "'smcp' Lowercase to Small Capitals lookup 27 subtable" eth.sc
Substitution2: "'aalt' Access All Alternates lookup 0 subtable" eth.sc
EndChar
StartChar: ntilde
Encoding: 241 241 552
Width: 569
GlyphClass: 2
Flags: MW
HStem: 0 21G<30 252 30 30 322 544 322 322> 397 139<30 309> 516 20G<30 224 224 224> 537 20G<370.5 445.5> 614 154<182 357.5 330.5 357.5 330.5 384.5> 656 154<222.5 250> 742 20G<498 498>
VStem: 30 222<0 353 0 536 0 536> 322 222<0 356 356 373>
AnchorPoint: "Anchor-14" 0 0 basechar 0
AnchorPoint: "Anchor-13" 0 0 basechar 0
AnchorPoint: "Anchor-12" 290 767 basechar 0
AnchorPoint: "Anchor-11" 0 0 basechar 0
AnchorPoint: "Anchor-10" 284 0 basechar 0
LayerCount: 2
Back
Fore
SplineSet
235 656 m 0x9580
 210 656 198 641 182 614 c 1
 81 663 l 1
 108 741 160 810 229 810 c 0x9580
 295 810 316 768 345 768 c 0
 370 768 381 783 397 810 c 1x9980
 498 762 l 1x9380
 472 685 421 614 348 614 c 0x9980
 285 614 265 656 235 656 c 0x9580
402 557 m 0x9380
 489 557 544 500 544 398 c 2
 544 0 l 1
 322 0 l 1
 322 356 l 2
 322 390 314 397 304 397 c 0
 291 397 272 385 252 353 c 1xc380
 252 0 l 1
 30 0 l 1
 30 536 l 1
 224 536 l 1xa380
 239 485 l 1
 292 538 339 557 402 557 c 0x9380
EndSplineSet
Substitution2: "'smcp' Lowercase to Small Capitals lookup 27 subtable" ntilde.sc
Substitution2: "'aalt' Access All Alternates lookup 0 subtable" ntilde.sc
EndChar
StartChar: otilde
Encoding: 245 245 591
Width: 584
GlyphClass: 2
Flags: MW
HStem: -22 158<271.5 312.5 271.5 379.5> 400 157<271 312.5> 614 154<184 359.5 332.5 359.5 332.5 386.5> 656 154<224.5 252> 742 20G<500 500>
VStem: 8 226<219.5 315.5 219.5 357.5> 350 226<220 315.5>
AnchorPoint: "Anchor-14" 0 0 basechar 0
AnchorPoint: "Anchor-13" 516 536 basechar 0
AnchorPoint: "Anchor-12" 292 767 basechar 0
AnchorPoint: "Anchor-11" 423 0 basechar 0
AnchorPoint: "Anchor-10" 292 0 basechar 0
LayerCount: 2
Back
Fore
SplineSet
350 614 m 0xe6
 287 614 267 656 237 656 c 0
 212 656 200 641 184 614 c 1
 83 663 l 1
 110 741 162 810 231 810 c 0xd6
 297 810 318 768 347 768 c 0
 372 768 383 783 399 810 c 1xe6
 500 762 l 1xce
 474 685 423 614 350 614 c 0xe6
292 557 m 0xce
 464 557 576 457 576 266 c 0
 576 90 467 -22 292 -22 c 0
 120 -22 8 79 8 269 c 0
 8 446 117 557 292 557 c 0xce
292 400 m 0
 250 400 234 362 234 269 c 0
 234 170 251 136 292 136 c 0
 333 136 350 174 350 266 c 0
 350 365 333 400 292 400 c 0
EndSplineSet
Substitution2: "'smcp' Lowercase to Small Capitals lookup 27 subtable" otilde.sc
Substitution2: "'aalt' Access All Alternates lookup 0 subtable" otilde.sc
EndChar

StartChar: ugrave
Encoding: 249 249 244
Width: 562
GlyphClass: 2
Flags: MW
HStem: -22 21G<121 207> 0 21G<338 532 338 338> 0 138<264 532 264 338> 516 20G<25 247 247 247 310 532 532 532> 689 20G<130 130> 698 20G<448 448>
VStem: 25 222<162.5 180 180 536> 310 222<172 536>
AnchorPoint: "Anchor-11" 0 0 basechar 0
AnchorPoint: "Anchor-10" 0 0 basechar 0
AnchorPoint: "Anchor-9" 279 536 basechar 0
AnchorPoint: "Anchor-8" 542 0 basechar 0
LayerCount: 2
Fore
SplineSet
448 718 m 1x57
 390 607 l 1
 130 709 l 1x5b
 211 868 l 1
 448 718 l 1x57
532 0 m 1
 338 0 l 1x57
 331 53 l 1
 295 3 240 -22 174 -22 c 0x97
 68 -22 25 48 25 150 c 2
 25 536 l 1
 247 536 l 1
 247 180 l 2
 247 145 259 138 269 138 c 0
 278 138 296 146 310 172 c 1x37
 310 536 l 1
 532 536 l 1
 532 0 l 1
EndSplineSet
Substitution2: "'smcp' Lowercase to Small Capitals lookup 24 subtable" ugrave.sc
Substitution2: "'aalt' Access All Alternates lookup 0 subtable" ugrave.sc
EndChar
StartChar: uacute
Encoding: 250 250 662
Width: 562
GlyphClass: 2
Flags: MW
HStem: 0 21G<338 532 338 338> 0 138<264 532 264 338> 516 20G<25 247 247 247 310 532 532 532>
VStem: 25 222<162.5 180 180 536> 310 222<172 536 0 536>
AnchorPoint: "Anchor-14" 0 0 basechar 0
AnchorPoint: "Anchor-13" 542 536 basechar 0
AnchorPoint: "Anchor-12" 279 868 basechar 0
AnchorPoint: "Anchor-11" 542 0 basechar 0
AnchorPoint: "Anchor-10" 279 0 basechar 0
LayerCount: 2
Back
Fore
SplineSet
345 868 m 1xb8
 426 709 l 1
 167 607 l 1
 108 718 l 1
 345 868 l 1xb8
532 536 m 1
 532 0 l 1
 338 0 l 1
 331 53 l 1
 295 3 240 -22 174 -22 c 0
 68 -22 25 48 25 150 c 2
 25 536 l 1
 247 536 l 1
 247 180 l 2
 247 145 259 138 269 138 c 0
 278 138 296 146 310 172 c 1x78
 310 536 l 1
 532 536 l 1
EndSplineSet
Substitution2: "'smcp' Lowercase to Small Capitals lookup 27 subtable" uacute.sc
Substitution2: "'aalt' Access All Alternates lookup 0 subtable" uacute.sc
EndChar
StartChar: ucircumflex
Encoding: 251 251 666
Width: 562
GlyphClass: 2
Flags: MW
HStem: 0 21G<338 532 338 338> 0 138<264 532 264 338> 516 20G<25 247 247 247 310 532 532 532>
VStem: 25 222<162.5 180 180 536> 310 222<172 536 0 536>
AnchorPoint: "Anchor-14" 0 0 basechar 0
AnchorPoint: "Anchor-13" 542 536 basechar 0
AnchorPoint: "Anchor-12" 282 851 basechar 0
AnchorPoint: "Anchor-11" 542 0 basechar 0
AnchorPoint: "Anchor-10" 279 0 basechar 0
LayerCount: 2
Back
Fore
SplineSet
140 607 m 1xb8
 67 691 l 1
 214 851 l 1
 345 851 l 1
 492 691 l 1
 419 607 l 1
 280 706 l 1
 140 607 l 1xb8
532 536 m 1
 532 0 l 1
 338 0 l 1
 331 53 l 1
 295 3 240 -22 174 -22 c 0
 68 -22 25 48 25 150 c 2
 25 536 l 1
 247 536 l 1
 247 180 l 2
 247 145 259 138 269 138 c 0
 278 138 296 146 310 172 c 1x78
 310 536 l 1
 532 536 l 1
EndSplineSet
Substitution2: "'smcp' Lowercase to Small Capitals lookup 27 subtable" ucircumflex.sc
Substitution2: "'aalt' Access All Alternates lookup 0 subtable" ucircumflex.sc
EndChar

StartChar: udieresis
Encoding: 252 252 243
Width: 562
GlyphClass: 2
Flags: MW
HStem: -22 21G<121 207> 0 21G<338 532 338 338> 0 138<264 532 264 338> 516 20G<25 247 247 247 310 532 532 532> 628 201<124 181.5 376.5 434.5>
VStem: 25 222<162.5 180 180 536> 48 207<701 757> 301 207<701 757> 310 222<172 536>
AnchorPoint: "Anchor-11" 0 0 basechar 0
AnchorPoint: "Anchor-10" 0 0 basechar 0
AnchorPoint: "Anchor-9" 274 757 basechar 0
AnchorPoint: "Anchor-8" 542 0 basechar 0
LayerCount: 2
Fore
SplineSet
152 829 m 0x5b
 211 829 255 785 255 729 c 0
 255 673 211 628 152 628 c 0
 96 628 48 673 48 729 c 0
 48 785 96 829 152 829 c 0x5b
405 829 m 0
 464 829 508 785 508 729 c 0
 508 673 464 628 405 628 c 0
 348 628 301 673 301 729 c 0
 301 785 348 829 405 829 c 0
532 0 m 1x5c80
 338 0 l 1x5c80
 331 53 l 1
 295 3 240 -22 174 -22 c 0x9c80
 68 -22 25 48 25 150 c 2
 25 536 l 1
 247 536 l 1
 247 180 l 2
 247 145 259 138 269 138 c 0
 278 138 296 146 310 172 c 1x3c80
 310 536 l 1
 532 536 l 1
 532 0 l 1x5c80
EndSplineSet
Substitution2: "'smcp' Lowercase to Small Capitals lookup 24 subtable" udieresis.sc
Substitution2: "'aalt' Access All Alternates lookup 0 subtable" udieresis.sc
EndChar
StartChar: yacute
Encoding: 253 253 704
Width: 544
GlyphClass: 2
Flags: MW
HStem: -231 149<28 51> 0 21G<126 202 126 126> 516 20G<-21 215 215 215 335 564 564 564>
VStem: -21 585<536 536>
AnchorPoint: "Anchor-14" 0 0 basechar 0
AnchorPoint: "Anchor-13" 0 0 basechar 0
AnchorPoint: "Anchor-12" 271 868 basechar 0
AnchorPoint: "Anchor-11" 0 0 basechar 0
AnchorPoint: "Anchor-10" 265 -218 basechar 0
LayerCount: 2
Back
Fore
SplineSet
337 868 m 1
 418 709 l 1
 159 607 l 1
 100 718 l 1
 337 868 l 1
564 536 m 1
 403 2 l 2
 356 -154 238 -229 51 -231 c 1
 28 -82 l 1
 129 -74 175 -55 202 0 c 1
 126 0 l 1
 -21 536 l 1
 215 536 l 1
 265 133 l 1
 335 536 l 1
 564 536 l 1
EndSplineSet
Substitution2: "'smcp' Lowercase to Small Capitals lookup 27 subtable" yacute.sc
Substitution2: "'aalt' Access All Alternates lookup 0 subtable" yacute.sc
EndChar

StartChar: thorn
Encoding: 254 254 221
Width: 600
GlyphClass: 2
Flags: MW
HStem: -230 21G -209 21G<252 252> -22 21G<348.5 436> -22 156<289 436> 400 157<296.5 451> 537 20G<364 451> 725 20G<30 30> 747 20G<252 252>
VStem: 30 222<-209 31 -209 164 164 359 498 745 745 745> 361 226<215.5 330>
AnchorPoint: "Anchor-11" 0 0 basechar 0
AnchorPoint: "Anchor-10" 0 0 basechar 0
AnchorPoint: "Anchor-9" 229 855 basechar 0
AnchorPoint: "Anchor-8" 0 0 basechar 0
LayerCount: 2
Fore
SplineSet
381 557 m 0x65c0
 521 557 587 448 587 270 c 0
 587 103 499 -22 373 -22 c 0
 324 -22 284 -4 252 31 c 1
 252 -209 l 1x65c0
 30 -230 l 1
 30 745 l 1xa6c0
 252 767 l 1
 252 498 l 1
 296 546 347 557 381 557 c 0x65c0
298 134 m 0x59c0
 333 134 361 165 361 266 c 0
 361 394 335 400 304 400 c 0
 289 400 270 391 252 359 c 1
 252 164 l 1
 267 141 280 134 298 134 c 0x59c0
EndSplineSet
Substitution2: "'smcp' Lowercase to Small Capitals lookup 24 subtable" thorn.sc
Substitution2: "'aalt' Access All Alternates lookup 0 subtable" thorn.sc
EndChar
StartChar: ydieresis
Encoding: 255 255 706
Width: 544
GlyphClass: 2
Flags: MW
HStem: -231 149<28 51> 0 21G<126 202 126 126> 516 20G<-21 215 215 215 335 564 564 564> 628 201<117 174.5 369.5 427.5>
VStem: 41 207<701 757> 294 207<701 757>
AnchorPoint: "Anchor-14" 0 0 basechar 0
AnchorPoint: "Anchor-13" 0 0 basechar 0
AnchorPoint: "Anchor-12" 274 829 basechar 0
AnchorPoint: "Anchor-11" 0 0 basechar 0
AnchorPoint: "Anchor-10" 265 -218 basechar 0
LayerCount: 2
Back
Fore
SplineSet
145 829 m 0
 204 829 248 785 248 729 c 0
 248 673 204 628 145 628 c 0
 89 628 41 673 41 729 c 0
 41 785 89 829 145 829 c 0
398 829 m 0
 457 829 501 785 501 729 c 0
 501 673 457 628 398 628 c 0
 341 628 294 673 294 729 c 0
 294 785 341 829 398 829 c 0
564 536 m 1
 403 2 l 2
 356 -154 238 -229 51 -231 c 1
 28 -82 l 1
 129 -74 175 -55 202 0 c 1
 126 0 l 1
 -21 536 l 1
 215 536 l 1
 265 133 l 1
 335 536 l 1
 564 536 l 1
EndSplineSet
Substitution2: "'smcp' Lowercase to Small Capitals lookup 27 subtable" ydieresis.sc
Substitution2: "'aalt' Access All Alternates lookup 0 subtable" ydieresis.sc
EndChar
StartChar: Amacron
Encoding: 256 256 27
Width: 607
GlyphClass: 2
Flags: MW
HStem: 0 21G<-32 210 -32 -32 395 639 395 395> 126 160<258 345 258 373 231 345> 539 159<301 301> 678 20G<167 441 441 441> 770 148<135 472 135 472>
VStem: 135 337<770 918 770 918>
AnchorPoint: "Anchor-14" 0 0 basechar 0
AnchorPoint: "Anchor-13" 0 0 basechar 0
AnchorPoint: "Anchor-12" 306 918 basechar 0
AnchorPoint: "Anchor-11" 524 0 basechar 0
AnchorPoint: "Anchor-10" 304 0 basechar 0
LayerCount: 2
Back
Fore
SplineSet
472 918 m 1xdc
 472 770 l 1
 135 770 l 1
 135 918 l 1
 472 918 l 1xdc
395 0 m 1
 373 126 l 1
 231 126 l 1
 210 0 l 1
 -32 0 l 1
 167 698 l 1
 441 698 l 1
 639 0 l 1
 395 0 l 1
258 286 m 1
 345 286 l 1
 301 539 l 1xec
 258 286 l 1
EndSplineSet
Substitution2: "'c2sc' Capitals to Small Capitals lookup 26 subtable" amacron.sc
Substitution2: "'aalt' Access All Alternates lookup 0 subtable" amacron.sc
Position2: "'cpsp' Capital Spacing lookup 0 subtable" dx=5 dy=0 dh=10 dv=0
EndChar
StartChar: amacron
Encoding: 257 257 361
Width: 553
GlyphClass: 2
Flags: MW
HStem: -22 155<132.5 265> -17 21G<501 501> 223 113<272 290 290 300> 403 154<233 259> 644 148<112 449 112 449>
VStem: 8 215<161.5 190.5 161.5 210.5> 112 337<644 792 644 792> 300 216<166 184 184 223 223 223 336 343 343 355 166 367.5>
AnchorPoint: "Anchor-14" 0 0 basechar 0
AnchorPoint: "Anchor-13" 0 0 basechar 0
AnchorPoint: "Anchor-12" 280 753 basechar 0
AnchorPoint: "Anchor-11" 511 -17 basechar 0
AnchorPoint: "Anchor-10" 281 0 basechar 0
LayerCount: 2
Back
Fore
SplineSet
449 792 m 1x7a
 449 644 l 1
 112 644 l 1
 112 792 l 1
 449 792 l 1x7a
516 184 m 2xbd
 516 148 522 133 546 124 c 1
 501 -17 l 1x7d
 429 -13 381 5 348 56 c 1
 308 -4 247 -22 186 -22 c 0
 79 -22 8 51 8 151 c 0
 8 270 99 336 272 336 c 2
 300 336 l 1
 300 343 l 2
 300 392 287 403 231 403 c 0
 202 403 147 393 94 375 c 1
 46 514 l 1
 114 542 202 557 264 557 c 0
 444 557 516 492 516 355 c 2
 516 184 l 2xbd
256 133 m 0
 274 133 291 143 300 155 c 1
 300 223 l 1
 290 223 l 2
 244 223 223 208 223 173 c 0
 223 150 237 133 256 133 c 0
EndSplineSet
Substitution2: "'smcp' Lowercase to Small Capitals lookup 27 subtable" amacron.sc
Substitution2: "'aalt' Access All Alternates lookup 0 subtable" amacron.sc
EndChar
StartChar: Abreve
Encoding: 258 258 4
Width: 607
GlyphClass: 2
Flags: MW
HStem: 0 21G<-32 210 -32 -32 395 639 395 395> 126 160<258 345 258 373 231 345> 539 159<301 301> 678 20G<167 441 441 441> 743 149<282.5 327 282.5 369.5>
VStem: -32 671<0 0>
AnchorPoint: "Anchor-14" 0 0 basechar 0
AnchorPoint: "Anchor-13" 0 0 basechar 0
AnchorPoint: "Anchor-12" 306 961 basechar 0
AnchorPoint: "Anchor-11" 524 0 basechar 0
AnchorPoint: "Anchor-10" 304 0 basechar 0
LayerCount: 2
Back
Fore
SplineSet
305 743 m 0xdc
 176 743 120 847 112 944 c 1
 225 961 l 1
 235 925 260 892 305 892 c 0
 349 892 374 925 385 961 c 1
 497 944 l 1
 489 847 434 743 305 743 c 0xdc
395 0 m 1
 373 126 l 1
 231 126 l 1
 210 0 l 1
 -32 0 l 1
 167 698 l 1
 441 698 l 1
 639 0 l 1
 395 0 l 1
258 286 m 1
 345 286 l 1
 301 539 l 1xec
 258 286 l 1
EndSplineSet
Substitution2: "'c2sc' Capitals to Small Capitals lookup 26 subtable" abreve.sc
Substitution2: "'aalt' Access All Alternates lookup 0 subtable" abreve.sc
Position2: "'cpsp' Capital Spacing lookup 0 subtable" dx=5 dy=0 dh=10 dv=0
EndChar

StartChar: abreve
Encoding: 259 259 136
Width: 553
GlyphClass: 2
Flags: MW
HStem: -22 21G<132.5 216> -22 155<132.5 265> -17 21G<501 501> 223 113<272 290 290 300> 403 154<233 259> 622 149<258.5 303 258.5 345.5>
VStem: 8 215<161.5 190.5 161.5 210.5> 300 216<166 184 184 223 223 223 336 343 343 355 166 367.5>
AnchorPoint: "Anchor-11" 0 0 basechar 0
AnchorPoint: "Anchor-10" 0 0 basechar 0
AnchorPoint: "Anchor-9" 281 536 basechar 0
AnchorPoint: "Anchor-8" 511 -17 basechar 0
LayerCount: 2
Fore
SplineSet
281 622 m 0x3f
 152 622 96 726 88 832 c 1
 201 850 l 1
 211 804 236 771 281 771 c 0
 325 771 350 804 361 850 c 1
 473 832 l 1
 465 726 410 622 281 622 c 0x3f
516 184 m 2
 516 148 522 133 546 124 c 1
 501 -17 l 1x3f
 430 -12 381 5 348 56 c 1
 308 -4 246 -22 186 -22 c 0x9f
 79 -22 8 51 8 151 c 0
 8 270 99 336 272 336 c 2
 300 336 l 1
 300 343 l 2
 300 392 287 403 231 403 c 0
 202 403 147 393 94 375 c 1
 46 514 l 1
 114 542 202 557 264 557 c 0
 444 557 516 492 516 355 c 2
 516 184 l 2
256 133 m 0x5f
 274 133 290 143 300 155 c 1
 300 223 l 1
 290 223 l 2
 244 223 223 208 223 173 c 0
 223 150 237 133 256 133 c 0x5f
EndSplineSet
Substitution2: "'smcp' Lowercase to Small Capitals lookup 24 subtable" abreve.sc
Substitution2: "'aalt' Access All Alternates lookup 0 subtable" abreve.sc
EndChar
StartChar: Aogonek
Encoding: 260 260 28
Width: 607
GlyphClass: 2
Flags: MW
HStem: -259 125<436 436.5> 0 21G<-32 210 -32 -32 514 639 514 514> 126 160<258 345 258 373 231 345> 539 159<301 301> 678 20G<167 441 441 441>
VStem: 255 146<-106 -86.5>
AnchorPoint: "Anchor-14" 0 0 basechar 0
AnchorPoint: "Anchor-13" 0 0 basechar 0
AnchorPoint: "Anchor-12" 304 698 basechar 0
AnchorPoint: "Anchor-11" 524 0 basechar 0
AnchorPoint: "Anchor-10" 304 0 basechar 0
LayerCount: 2
Back
Fore
SplineSet
514 0 m 1xec
 419 -29 401 -69 401 -91 c 0
 401 -121 421 -134 451 -134 c 0
 469 -134 490 -131 512 -126 c 1
 499 -251 l 1
 477 -256 450 -259 423 -259 c 0
 330 -259 255 -212 255 -127 c 0
 255 -46 311 4 388 37 c 1
 373 126 l 1
 231 126 l 1
 210 0 l 1
 -32 0 l 1
 167 698 l 1
 441 698 l 1
 639 0 l 1
 514 0 l 1xec
258 286 m 1
 345 286 l 1
 301 539 l 1xf4
 258 286 l 1
EndSplineSet
Substitution2: "'c2sc' Capitals to Small Capitals lookup 26 subtable" aogonek.sc
Substitution2: "'aalt' Access All Alternates lookup 0 subtable" aogonek.sc
Position2: "'cpsp' Capital Spacing lookup 0 subtable" dx=5 dy=0 dh=10 dv=0
EndChar

StartChar: aogonek
Encoding: 261 261 141
Width: 553
GlyphClass: 2
Flags: MW
HStem: -276 125<423 423.5> -22 21G<132.5 216> -22 155<132.5 265> 223 113<272 290 290 300> 403 154<233 259>
VStem: 8 215<161.5 190.5 161.5 210.5> 242 146<-123 -103> 300 216<166 184 184 223 223 223 336 343 343 355 166 367.5>
AnchorPoint: "Anchor-11" 0 0 basechar 0
AnchorPoint: "Anchor-10" 0 0 basechar 0
AnchorPoint: "Anchor-9" 281 536 basechar 0
AnchorPoint: "Anchor-8" 511 -17 basechar 0
LayerCount: 2
Fore
SplineSet
501 -17 m 1xdd
 406 -46 388 -86 388 -108 c 0
 388 -138 408 -151 438 -151 c 0
 456 -151 477 -148 499 -143 c 1
 486 -268 l 1
 464 -273 437 -276 410 -276 c 0
 317 -276 242 -229 242 -144 c 0xde
 242 -62 300 -12 378 21 c 1
 367 31 357 42 348 56 c 1
 308 -4 246 -22 186 -22 c 0
 79 -22 8 51 8 151 c 0
 8 270 99 336 272 336 c 2
 300 336 l 1
 300 343 l 2
 300 392 287 403 231 403 c 0
 202 403 147 393 94 375 c 1
 46 514 l 1
 114 542 202 557 264 557 c 0
 444 557 516 492 516 355 c 2
 516 184 l 2
 516 148 522 133 546 124 c 1
 501 -17 l 1xdd
256 133 m 0xbd
 274 133 290 143 300 155 c 1
 300 223 l 1
 290 223 l 2
 244 223 223 208 223 173 c 0
 223 150 237 133 256 133 c 0xbd
EndSplineSet
Substitution2: "'smcp' Lowercase to Small Capitals lookup 24 subtable" aogonek.sc
Substitution2: "'aalt' Access All Alternates lookup 0 subtable" aogonek.sc
EndChar
StartChar: Ccircumflex
Encoding: 264 264 48
Width: 589
GlyphClass: 2
Flags: MW
HStem: -22 172<332 393.5 332 406> 556 163<327 387>
VStem: 12 240<283.5 417.5 283.5 467>
AnchorPoint: "Anchor-14" 383 356 basechar 0
AnchorPoint: "Anchor-13" 463 872 basechar 0
AnchorPoint: "Anchor-12" 360 983 basechar 0
AnchorPoint: "Anchor-11" 0 0 basechar 0
AnchorPoint: "Anchor-10" 337 0 basechar 0
LayerCount: 2
Back
Fore
SplineSet
500 750 m 1
 361 838 l 1
 221 750 l 1
 148 835 l 1
 295 983 l 1
 426 983 l 1
 573 835 l 1
 500 750 l 1
350 719 m 0
 449 719 526 687 586 634 c 1
 478 507 l 1
 447 536 411 556 363 556 c 0
 291 556 252 484 252 351 c 0
 252 216 293 150 371 150 c 0
 416 150 453 175 494 208 c 1
 594 80 l 1
 540 26 456 -22 356 -22 c 0
 145 -22 12 108 12 351 c 0
 12 583 149 719 350 719 c 0
EndSplineSet
Substitution2: "'c2sc' Capitals to Small Capitals lookup 26 subtable" ccircumflex.sc
Substitution2: "'aalt' Access All Alternates lookup 0 subtable" ccircumflex.sc
Position2: "'cpsp' Capital Spacing lookup 0 subtable" dx=5 dy=0 dh=10 dv=0
EndChar
StartChar: Cdotaccent
Encoding: 266 266 49
Width: 589
GlyphClass: 2
Flags: MW
HStem: -22 172<332 393.5 332 406> 556 163<327 387> 734 232<325.5 396.5>
VStem: 12 240<283.5 417.5 283.5 467> 239 243<817.5 883>
AnchorPoint: "Anchor-14" 383 356 basechar 0
AnchorPoint: "Anchor-13" 0 0 basechar 0
AnchorPoint: "Anchor-12" 362 966 basechar 0
AnchorPoint: "Anchor-11" 0 0 basechar 0
AnchorPoint: "Anchor-10" 337 0 basechar 0
LayerCount: 2
Back
Fore
SplineSet
361 966 m 0xe8
 432 966 482 916 482 850 c 0
 482 785 432 734 361 734 c 0
 290 734 239 785 239 850 c 0
 239 916 290 966 361 966 c 0xe8
350 719 m 0xd0
 449 719 526 687 586 634 c 1
 478 507 l 1
 447 536 411 556 363 556 c 0
 291 556 252 484 252 351 c 0
 252 216 293 150 371 150 c 0
 416 150 453 175 494 208 c 1
 594 80 l 1
 540 26 456 -22 356 -22 c 0
 145 -22 12 108 12 351 c 0
 12 583 149 719 350 719 c 0xd0
EndSplineSet
Substitution2: "'c2sc' Capitals to Small Capitals lookup 26 subtable" cdotaccent.sc
Substitution2: "'aalt' Access All Alternates lookup 0 subtable" cdotaccent.sc
Position2: "'cpsp' Capital Spacing lookup 0 subtable" dx=5 dy=0 dh=10 dv=0
EndChar
StartChar: cdotaccent
Encoding: 267 267 387
Width: 479
GlyphClass: 2
Flags: MW
HStem: -22 170<294 331 294 345> 392 165<292 332.5> 608 232<257.5 328.5>
VStem: 8 230<213 314 213 348.5> 171 243<691.5 757>
AnchorPoint: "Anchor-14" 0 0 basechar 0
AnchorPoint: "Anchor-13" 0 0 basechar 0
AnchorPoint: "Anchor-12" 294 840 basechar 0
AnchorPoint: "Anchor-11" 0 0 basechar 0
AnchorPoint: "Anchor-10" 275 0 basechar 0
LayerCount: 2
Back
Fore
SplineSet
293 840 m 0xe8
 364 840 414 790 414 724 c 0
 414 659 364 608 293 608 c 0
 222 608 171 659 171 724 c 0
 171 790 222 840 293 840 c 0xe8
297 557 m 0
 383 557 447 529 498 483 c 1
 408 355 l 1
 377 381 347 392 318 392 c 0
 266 392 238 365 238 263 c 0
 238 163 272 148 316 148 c 0
 346 148 367 158 404 181 c 1
 498 46 l 1
 449 6 387 -22 303 -22 c 0
 119 -22 8 98 8 264 c 0xf0
 8 433 122 557 297 557 c 0
EndSplineSet
Substitution2: "'smcp' Lowercase to Small Capitals lookup 27 subtable" cdotaccent.sc
Substitution2: "'aalt' Access All Alternates lookup 0 subtable" cdotaccent.sc
EndChar

StartChar: Ccaron
Encoding: 268 268 16
Width: 589
GlyphClass: 2
Flags: MW
HStem: -22 172<332 393.5 332 406> 556 163<327 387>
VStem: 12 240<283.5 417.5 283.5 467>
AnchorPoint: "Anchor-11" 337 0 basechar 0
AnchorPoint: "Anchor-10" 0 0 basechar 0
AnchorPoint: "Anchor-9" 360 698 basechar 0
AnchorPoint: "Anchor-8" 0 0 basechar 0
LayerCount: 2
Fore
SplineSet
573 893 m 1
 426 745 l 1
 295 745 l 1
 148 893 l 1
 221 978 l 1
 361 891 l 1
 500 978 l 1
 573 893 l 1
350 719 m 0
 449 719 526 687 586 634 c 1
 478 507 l 1
 447 536 411 556 363 556 c 0
 291 556 252 484 252 351 c 0
 252 216 293 150 371 150 c 0
 416 150 453 175 494 208 c 1
 594 80 l 1
 540 26 456 -22 356 -22 c 0
 145 -22 12 108 12 351 c 0
 12 583 149 719 350 719 c 0
EndSplineSet
Substitution2: "'c2sc' Capitals to Small Capitals lookup 23 subtable" ccaron.sc
Substitution2: "'aalt' Access All Alternates lookup 0 subtable" ccaron.sc
Position2: "'cpsp' Capital Spacing lookup 0 subtable" dx=5 dy=0 dh=10 dv=0
EndChar

StartChar: ccaron
Encoding: 269 269 149
Width: 479
GlyphClass: 2
Flags: MW
HStem: -22 170<294 331 294 345> 392 165<292 332.5> 736 20G<80 80 505 505>
VStem: 8 230<213 314 213 348.5>
AnchorPoint: "Anchor-11" 275 0 basechar 0
AnchorPoint: "Anchor-10" 0 0 basechar 0
AnchorPoint: "Anchor-9" 293 536 basechar 0
AnchorPoint: "Anchor-8" 0 0 basechar 0
LayerCount: 2
Fore
SplineSet
505 756 m 1
 358 596 l 1
 227 596 l 1
 80 756 l 1
 153 840 l 1
 293 741 l 1
 432 840 l 1
 505 756 l 1
297 557 m 0
 383 557 447 529 498 483 c 1
 408 356 l 1
 377 381 347 392 318 392 c 0
 266 392 238 365 238 263 c 0
 238 163 272 148 316 148 c 0
 346 148 367 158 400 184 c 1
 498 46 l 1
 449 6 387 -22 303 -22 c 0
 119 -22 8 98 8 264 c 0
 8 433 122 557 297 557 c 0
EndSplineSet
Substitution2: "'smcp' Lowercase to Small Capitals lookup 24 subtable" ccaron.sc
Substitution2: "'aalt' Access All Alternates lookup 0 subtable" ccaron.sc
EndChar

StartChar: Dcaron
Encoding: 270 270 22
Width: 659
GlyphClass: 2
Flags: MW
HStem: 0 161<261 281> 537 161<261 261 261 271 271 297>
VStem: 30 231<161 537 161 698 161 698> 410 237<280.5 422.5>
AnchorPoint: "Anchor-11" 0 0 basechar 0
AnchorPoint: "Anchor-10" 0 0 basechar 0
AnchorPoint: "Anchor-9" 288 698 basechar 0
AnchorPoint: "Anchor-8" 0 0 basechar 0
LayerCount: 2
Fore
SplineSet
501 893 m 1
 354 745 l 1
 223 745 l 1
 76 893 l 1
 149 978 l 1
 289 891 l 1
 428 978 l 1
 501 893 l 1
271 698 m 2
 465 698 647 638 647 352 c 0
 647 74 485 0 281 0 c 2
 30 0 l 1
 30 698 l 1
 271 698 l 2
261 537 m 1
 261 161 l 1
 294 161 l 2
 384 161 410 209 410 352 c 0
 410 493 380 537 297 537 c 2
 261 537 l 1
EndSplineSet
Substitution2: "'c2sc' Capitals to Small Capitals lookup 23 subtable" dcaron.sc
Substitution2: "'aalt' Access All Alternates lookup 0 subtable" dcaron.sc
Position2: "'cpsp' Capital Spacing lookup 0 subtable" dx=5 dy=0 dh=10 dv=0
EndChar

StartChar: dcaron
Encoding: 271 271 155
Width: 836
GlyphClass: 2
Flags: MW
HStem: -22 21G<146 257> 0 21G<374 572 374 374> 0 136<282.5 572 282.5 374> 401 156<173.5 315> 537 20G<173.5 263> 725 20G<572 572> 743 20G<647 647> 747 20G<350 350>
VStem: 13 226<206.5 320 206.5 355.5> 350 222<175 379 379 379 521 745 0 767 0 767>
LayerCount: 2
Fore
SplineSet
350 767 m 1x49c0
 572 745 l 1
 572 0 l 1
 374 0 l 1x4cc0
 367 52 l 1
 341 18 297 -22 217 -22 c 0x89c0
 75 -22 13 93 13 272 c 0
 13 439 101 557 246 557 c 0
 280 557 321 545 350 521 c 1
 350 767 l 1x49c0
802 744 m 1x32c0
 753 499 l 1
 645 507 l 1
 647 763 l 1
 802 744 l 1x32c0
297 136 m 0
 314 136 334 147 350 175 c 1
 350 379 l 1
 336 393 324 401 306 401 c 0
 270 401 239 371 239 269 c 0
 239 144 268 136 297 136 c 0
EndSplineSet
Substitution2: "'smcp' Lowercase to Small Capitals lookup 24 subtable" dcaron.sc
Substitution2: "'aalt' Access All Alternates lookup 0 subtable" dcaron.sc
EndChar
StartChar: dcroat
Encoding: 273 273 396
Width: 612
GlyphClass: 2
Flags: MW
HStem: -22 158<146 305.5> 0 21G<374 572 374 374> 0 136<282.5 572 282.5 374> 401 156<173.5 315> 537 20G<173.5 263.5> 586 115<233 350 233 350 572 618> 725 20G<572 572>
VStem: 13 226<206.5 320 206.5 355.5> 350 222<174 379 379 379 521 586 0 586 701 745 0 767 0 767>
AnchorPoint: "Anchor-14" 301 268 basechar 0
AnchorPoint: "Anchor-13" 582 745 basechar 0
AnchorPoint: "Anchor-12" 295 745 basechar 0
AnchorPoint: "Anchor-11" 0 0 basechar 0
AnchorPoint: "Anchor-10" 308 0 basechar 0
LayerCount: 2
Back
Fore
SplineSet
572 701 m 1x4680
 618 701 l 1
 618 586 l 1
 572 586 l 1
 572 0 l 1
 374 0 l 1x4680
 367 52 l 1
 341 17 296 -22 217 -22 c 0
 75 -22 13 93 13 272 c 0
 13 439 101 557 246 557 c 0
 281 557 321 545 350 521 c 1x8f80
 350 586 l 1
 233 586 l 1
 233 701 l 1
 350 701 l 1
 350 767 l 1
 572 745 l 1
 572 701 l 1x4680
297 136 m 0x3780
 314 136 334 147 350 174 c 1
 350 379 l 1
 336 393 324 401 306 401 c 0
 270 401 239 371 239 269 c 0
 239 144 268 136 297 136 c 0x3780
EndSplineSet
Substitution2: "'smcp' Lowercase to Small Capitals lookup 27 subtable" dcroat.sc
Substitution2: "'aalt' Access All Alternates lookup 0 subtable" dcroat.sc
EndChar

StartChar: Emacron
Encoding: 274 274 32
Width: 517
GlyphClass: 2
Flags: MW
HStem: 0 159<261 498 261 498> 278 153<261 456 261 456> 539 159<261 483 261 261> 771 148<99 436 99 436>
VStem: 30 231<159 278 431 539> 99 337<771 919 771 919>
AnchorPoint: "Anchor-11" 264 0 basechar 0
AnchorPoint: "Anchor-10" 32 698 basechar 0
AnchorPoint: "Anchor-9" 268 698 basechar 0
AnchorPoint: "Anchor-8" 468 0 basechar 0
LayerCount: 2
Fore
SplineSet
99 771 m 1xf4
 99 919 l 1
 436 919 l 1
 436 771 l 1
 99 771 l 1xf4
483 539 m 1
 261 539 l 1
 261 431 l 1
 456 431 l 1
 456 278 l 1
 261 278 l 1
 261 159 l 1
 498 159 l 1
 498 0 l 1
 30 0 l 1
 30 698 l 1xf8
 506 698 l 1
 483 539 l 1
EndSplineSet
Substitution2: "'c2sc' Capitals to Small Capitals lookup 23 subtable" emacron.sc
Substitution2: "'aalt' Access All Alternates lookup 0 subtable" emacron.sc
Position2: "'cpsp' Capital Spacing lookup 0 subtable" dx=5 dy=0 dh=10 dv=0
EndChar
StartChar: emacron
Encoding: 275 275 428
Width: 559
GlyphClass: 2
Flags: MW
HStem: -22 155<303.5 347.5 303.5 357> 206 122<232 338 230 552 232 232> 421 136<271 311> 644 148<117 454 117 454>
VStem: 8 222<328 328 328 345> 117 337<644 792 644 792>
AnchorPoint: "Anchor-14" 0 0 basechar 0
AnchorPoint: "Anchor-13" 0 0 basechar 0
AnchorPoint: "Anchor-12" 285 753 basechar 0
AnchorPoint: "Anchor-11" 468 12 basechar 0
AnchorPoint: "Anchor-10" 294 0 basechar 0
LayerCount: 2
Back
Fore
SplineSet
454 792 m 1x74
 454 644 l 1
 117 644 l 1
 117 792 l 1
 454 792 l 1x74
557 273 m 0
 557 256 555 227 552 206 c 1
 232 206 l 1
 243 141 277 133 330 133 c 0
 365 133 401 148 447 180 c 1
 537 60 l 1
 483 17 406 -22 308 -22 c 0
 101 -22 8 103 8 268 c 0xf8
 8 422 98 557 285 557 c 0
 446 557 557 456 557 273 c 0
338 328 m 1
 338 335 l 2
 337 378 333 421 289 421 c 0
 253 421 235 401 230 328 c 1x78
 338 328 l 1
EndSplineSet
Substitution2: "'smcp' Lowercase to Small Capitals lookup 27 subtable" emacron.sc
Substitution2: "'aalt' Access All Alternates lookup 0 subtable" emacron.sc
EndChar

StartChar: Ebreve
Encoding: 276 276 26
Width: 517
GlyphClass: 2
Flags: MW
HStem: 0 159<261 498 261 498> 278 153<261 456 261 456> 539 159<261 483 261 261> 743 149<245.5 290 245.5 332.5>
VStem: 30 231<159 278 431 539>
AnchorPoint: "Anchor-11" 264 0 basechar 0
AnchorPoint: "Anchor-10" 32 698 basechar 0
AnchorPoint: "Anchor-9" 268 698 basechar 0
AnchorPoint: "Anchor-8" 468 0 basechar 0
LayerCount: 2
Fore
SplineSet
268 743 m 0
 139 743 83 847 75 944 c 1
 188 961 l 1
 198 925 223 892 268 892 c 0
 312 892 337 925 348 961 c 1
 460 944 l 1
 452 847 397 743 268 743 c 0
483 539 m 1
 261 539 l 1
 261 431 l 1
 456 431 l 1
 456 278 l 1
 261 278 l 1
 261 159 l 1
 498 159 l 1
 498 0 l 1
 30 0 l 1
 30 698 l 1
 506 698 l 1
 483 539 l 1
EndSplineSet
Substitution2: "'c2sc' Capitals to Small Capitals lookup 23 subtable" ebreve.sc
Substitution2: "'aalt' Access All Alternates lookup 0 subtable" ebreve.sc
Position2: "'cpsp' Capital Spacing lookup 0 subtable" dx=5 dy=0 dh=10 dv=0
EndChar
StartChar: ebreve
Encoding: 277 277 412
Width: 559
GlyphClass: 2
Flags: MW
HStem: -22 155<303.5 347.5 303.5 357> 206 122<232 338 230 552 232 232> 421 136<271 311> 622 149<264.5 309 264.5 351.5>
VStem: 8 222<328 328 328 345> 8 549<264.5 345>
AnchorPoint: "Anchor-14" 0 0 basechar 0
AnchorPoint: "Anchor-13" 0 0 basechar 0
AnchorPoint: "Anchor-12" 288 850 basechar 0
AnchorPoint: "Anchor-11" 468 12 basechar 0
AnchorPoint: "Anchor-10" 294 0 basechar 0
LayerCount: 2
Back
Fore
SplineSet
287 622 m 0x74
 158 622 102 726 94 832 c 1
 207 850 l 1
 217 804 242 771 287 771 c 0
 331 771 356 804 367 850 c 1
 479 832 l 1
 471 726 416 622 287 622 c 0x74
557 273 m 0
 557 256 555 227 552 206 c 1
 232 206 l 1
 243 141 277 133 330 133 c 0
 365 133 401 148 447 180 c 1
 537 60 l 1
 483 17 406 -22 308 -22 c 0
 101 -22 8 103 8 268 c 0xf8
 8 422 98 557 285 557 c 0
 446 557 557 456 557 273 c 0
338 328 m 1
 338 335 l 2
 337 378 333 421 289 421 c 0
 253 421 235 401 230 328 c 1x78
 338 328 l 1
EndSplineSet
Substitution2: "'smcp' Lowercase to Small Capitals lookup 27 subtable" ebreve.sc
Substitution2: "'aalt' Access All Alternates lookup 0 subtable" ebreve.sc
EndChar

StartChar: Edotaccent
Encoding: 278 278 30
Width: 517
GlyphClass: 2
Flags: MW
HStem: 0 159<261 498 261 498> 278 153<261 456 261 456> 539 159<261 483 261 261> 734 232<233.5 304.5>
VStem: 30 231<159 278 431 539> 147 243<817.5 883>
AnchorPoint: "Anchor-11" 264 0 basechar 0
AnchorPoint: "Anchor-10" 32 698 basechar 0
AnchorPoint: "Anchor-9" 268 698 basechar 0
AnchorPoint: "Anchor-8" 468 0 basechar 0
LayerCount: 2
Fore
SplineSet
269 966 m 0xf4
 340 966 390 916 390 850 c 0
 390 785 340 734 269 734 c 0
 198 734 147 785 147 850 c 0
 147 916 198 966 269 966 c 0xf4
483 539 m 1
 261 539 l 1
 261 431 l 1
 456 431 l 1
 456 278 l 1
 261 278 l 1
 261 159 l 1
 498 159 l 1
 498 0 l 1
 30 0 l 1
 30 698 l 1xe8
 506 698 l 1
 483 539 l 1
EndSplineSet
Substitution2: "'c2sc' Capitals to Small Capitals lookup 23 subtable" edotaccent.sc
Substitution2: "'aalt' Access All Alternates lookup 0 subtable" edotaccent.sc
Position2: "'cpsp' Capital Spacing lookup 0 subtable" dx=5 dy=0 dh=10 dv=0
EndChar
StartChar: edotaccent
Encoding: 279 279 423
Width: 559
GlyphClass: 2
Flags: MW
HStem: -22 155<303.5 347.5 303.5 357> 206 122<232 338 230 552 232 232> 421 136<271 311> 608 232<251.5 322.5>
VStem: 8 222<328 328 328 345> 165 243<691.5 757>
AnchorPoint: "Anchor-14" 0 0 basechar 0
AnchorPoint: "Anchor-13" 0 0 basechar 0
AnchorPoint: "Anchor-12" 288 840 basechar 0
AnchorPoint: "Anchor-11" 468 12 basechar 0
AnchorPoint: "Anchor-10" 294 0 basechar 0
LayerCount: 2
Back
Fore
SplineSet
287 608 m 0x74
 216 608 165 659 165 724 c 0
 165 790 216 840 287 840 c 0
 358 840 408 790 408 724 c 0
 408 659 358 608 287 608 c 0x74
557 273 m 0
 557 256 555 227 552 206 c 1
 232 206 l 1
 243 141 277 133 330 133 c 0
 365 133 401 148 447 180 c 1
 537 60 l 1
 483 17 406 -22 308 -22 c 0
 101 -22 8 103 8 268 c 0xe8
 8 422 98 557 285 557 c 0
 446 557 557 456 557 273 c 0
338 328 m 1x64
 338 335 l 2
 337 378 333 421 289 421 c 0
 253 421 235 401 230 328 c 1x68
 338 328 l 1x64
EndSplineSet
Substitution2: "'smcp' Lowercase to Small Capitals lookup 27 subtable" edotaccent.sc
Substitution2: "'aalt' Access All Alternates lookup 0 subtable" edotaccent.sc
EndChar
StartChar: Eogonek
Encoding: 280 280 86
Width: 517
GlyphClass: 2
Flags: MW
HStem: -259 125<380 380.5> 0 159<261 266 458 498 458 458> 278 153<261 456 261 456> 539 159<261 483 261 261>
VStem: 30 231<159 278 159 431 431 539> 199 146<-106 -99.5>
AnchorPoint: "Anchor-14" 0 0 basechar 0
AnchorPoint: "Anchor-13" 0 0 basechar 0
AnchorPoint: "Anchor-12" 268 698 basechar 0
AnchorPoint: "Anchor-11" 468 0 basechar 0
AnchorPoint: "Anchor-10" 264 0 basechar 0
LayerCount: 2
Back
Fore
SplineSet
261 278 m 1x78
 261 159 l 1x78
 498 159 l 1
 498 0 l 1
 458 0 l 1
 363 -29 345 -69 345 -91 c 0
 345 -121 365 -134 395 -134 c 0
 413 -134 434 -131 456 -126 c 1
 443 -251 l 1
 421 -256 394 -259 367 -259 c 0
 274 -259 199 -212 199 -127 c 0
 199 -72 225 -31 266 0 c 1xf4
 30 0 l 1
 30 698 l 1
 506 698 l 1
 483 539 l 1
 261 539 l 1
 261 431 l 1
 456 431 l 1
 456 278 l 1
 261 278 l 1x78
EndSplineSet
Substitution2: "'c2sc' Capitals to Small Capitals lookup 26 subtable" eogonek.sc
Substitution2: "'aalt' Access All Alternates lookup 0 subtable" eogonek.sc
Position2: "'cpsp' Capital Spacing lookup 0 subtable" dx=5 dy=0 dh=10 dv=0
EndChar
StartChar: eogonek
Encoding: 281 281 429
Width: 559
GlyphClass: 2
Flags: MW
HStem: -247 125<380 380.5> -18 21G 206 122<232 338 230 552 232 232> 421 136<271 311>
VStem: 8 222<328 328 328 345> 199 146<-157.5 -70.5> 338 219<328 335 335 335>
AnchorPoint: "Anchor-14" 0 0 basechar 0
AnchorPoint: "Anchor-13" 0 0 basechar 0
AnchorPoint: "Anchor-12" 286 536 basechar 0
AnchorPoint: "Anchor-11" 468 12 basechar 0
AnchorPoint: "Anchor-10" 294 0 basechar 0
LayerCount: 2
Back
Fore
SplineSet
557 273 m 0x7a
 557 256 555 227 552 206 c 1x72
 232 206 l 1
 243 141 277 133 330 133 c 0
 365 133 401 148 447 180 c 1
 537 60 l 1
 503 32 459 7 406 -8 c 1
 356 -34 345 -62 345 -79 c 0
 345 -109 365 -122 395 -122 c 0
 413 -122 434 -119 456 -114 c 1
 443 -239 l 1
 421 -244 394 -247 367 -247 c 0
 274 -247 199 -200 199 -115 c 0xf4
 199 -73 219 -41 251 -18 c 1
 84 3 8 119 8 268 c 0
 8 422 98 557 285 557 c 0
 446 557 557 456 557 273 c 0x7a
338 328 m 1
 338 335 l 2
 337 378 333 421 289 421 c 0
 253 421 235 401 230 328 c 1
 338 328 l 1
EndSplineSet
Substitution2: "'smcp' Lowercase to Small Capitals lookup 27 subtable" eogonek.sc
Substitution2: "'aalt' Access All Alternates lookup 0 subtable" eogonek.sc
EndChar

StartChar: Ecaron
Encoding: 282 282 27
Width: 517
GlyphClass: 2
Flags: MW
HStem: 0 159<261 498 261 498> 278 153<261 456 261 456> 539 159<261 483 261 261>
VStem: 30 231<159 278 431 539>
AnchorPoint: "Anchor-11" 264 0 basechar 0
AnchorPoint: "Anchor-10" 32 698 basechar 0
AnchorPoint: "Anchor-9" 268 698 basechar 0
AnchorPoint: "Anchor-8" 468 0 basechar 0
LayerCount: 2
Fore
SplineSet
480 893 m 1
 333 745 l 1
 202 745 l 1
 55 893 l 1
 128 978 l 1
 268 891 l 1
 407 978 l 1
 480 893 l 1
483 539 m 1
 261 539 l 1
 261 431 l 1
 456 431 l 1
 456 278 l 1
 261 278 l 1
 261 159 l 1
 498 159 l 1
 498 0 l 1
 30 0 l 1
 30 698 l 1
 506 698 l 1
 483 539 l 1
EndSplineSet
Substitution2: "'c2sc' Capitals to Small Capitals lookup 23 subtable" ecaron.sc
Substitution2: "'aalt' Access All Alternates lookup 0 subtable" ecaron.sc
Position2: "'cpsp' Capital Spacing lookup 0 subtable" dx=5 dy=0 dh=10 dv=0
EndChar

StartChar: ecaron
Encoding: 283 283 160
Width: 559
GlyphClass: 2
Flags: MW
HStem: -22 155<303.5 347.5 303.5 357> 206 122<232 338 230 552 232 232> 421 136<271 311> 736 20G<74 74 499 499>
VStem: 8 222<328 328 328 345> 338 219<328 335 335 335>
AnchorPoint: "Anchor-11" 294 0 basechar 0
AnchorPoint: "Anchor-10" 0 0 basechar 0
AnchorPoint: "Anchor-9" 286 536 basechar 0
AnchorPoint: "Anchor-8" 468 12 basechar 0
LayerCount: 2
Fore
SplineSet
221 596 m 1
 74 756 l 1
 147 840 l 1
 287 741 l 1
 426 840 l 1
 499 756 l 1
 352 596 l 1
 221 596 l 1
557 273 m 0
 557 256 555 227 552 206 c 1
 232 206 l 1
 243 141 277 133 330 133 c 0
 365 133 401 148 447 180 c 1
 537 60 l 1
 483 17 406 -22 308 -22 c 0
 101 -22 8 103 8 268 c 0
 8 422 98 557 285 557 c 0
 446 557 557 456 557 273 c 0
338 328 m 1
 338 335 l 1
 337 378 333 421 289 421 c 0
 253 421 236 401 230 328 c 1
 338 328 l 1
EndSplineSet
Substitution2: "'smcp' Lowercase to Small Capitals lookup 24 subtable" ecaron.sc
Substitution2: "'aalt' Access All Alternates lookup 0 subtable" ecaron.sc
EndChar
StartChar: Gcircumflex
Encoding: 284 284 103
Width: 658
GlyphClass: 2
Flags: MW
HStem: -22 162<314 361.5 314 401.5> 262 153<349 408 349 349> 560 159<342 415.5>
VStem: 12 237<266 419.5 266 468.5> 408 221<153 262 262 262>
AnchorPoint: "Anchor-14" 0 0 basechar 0
AnchorPoint: "Anchor-13" 451 872 basechar 0
AnchorPoint: "Anchor-12" 348 983 basechar 0
AnchorPoint: "Anchor-11" 0 0 basechar 0
AnchorPoint: "Anchor-10" 352 0 basechar 0
LayerCount: 2
Back
Fore
SplineSet
488 750 m 1
 349 838 l 1
 209 750 l 1
 136 835 l 1
 283 983 l 1
 414 983 l 1
 561 835 l 1
 488 750 l 1
375 719 m 0
 483 719 576 676 631 625 c 1
 516 507 l 1
 475 542 441 560 390 560 c 0
 294 560 249 490 249 349 c 0
 249 183 278 140 350 140 c 0
 373 140 389 145 408 153 c 1
 408 262 l 1
 349 262 l 1
 329 415 l 1
 629 415 l 1
 629 62 l 1
 551 8 444 -22 359 -22 c 0
 112 -22 12 113 12 350 c 0
 12 587 164 719 375 719 c 0
EndSplineSet
Substitution2: "'c2sc' Capitals to Small Capitals lookup 26 subtable" gcircumflex.sc
Substitution2: "'aalt' Access All Alternates lookup 0 subtable" gcircumflex.sc
Position2: "'cpsp' Capital Spacing lookup 0 subtable" dx=5 dy=0 dh=10 dv=0
EndChar
StartChar: Gbreve
Encoding: 286 286 101
Width: 658
GlyphClass: 2
Flags: MW
HStem: -22 162<314 361.5 314 401.5> 262 153<349 408 349 349> 560 159<342 415.5> 743 149<326.5 371 326.5 413.5>
VStem: 12 237<266 419.5 266 468.5> 408 221<153 262 262 262>
AnchorPoint: "Anchor-14" 0 0 basechar 0
AnchorPoint: "Anchor-13" 0 0 basechar 0
AnchorPoint: "Anchor-12" 350 961 basechar 0
AnchorPoint: "Anchor-11" 0 0 basechar 0
AnchorPoint: "Anchor-10" 352 0 basechar 0
LayerCount: 2
Back
Fore
SplineSet
349 743 m 0
 220 743 164 847 156 944 c 1
 269 961 l 1
 279 925 304 892 349 892 c 0
 393 892 418 925 429 961 c 1
 541 944 l 1
 533 847 478 743 349 743 c 0
375 719 m 0xec
 483 719 576 676 631 625 c 1
 516 507 l 1
 475 542 441 560 390 560 c 0
 294 560 249 490 249 349 c 0
 249 183 278 140 350 140 c 0
 373 140 389 145 408 153 c 1
 408 262 l 1
 349 262 l 1
 329 415 l 1
 629 415 l 1
 629 62 l 1
 551 8 444 -22 359 -22 c 0
 112 -22 12 113 12 350 c 0
 12 587 164 719 375 719 c 0xec
EndSplineSet
Substitution2: "'c2sc' Capitals to Small Capitals lookup 26 subtable" gbreve.sc
Substitution2: "'aalt' Access All Alternates lookup 0 subtable" gbreve.sc
Position2: "'cpsp' Capital Spacing lookup 0 subtable" dx=5 dy=0 dh=10 dv=0
EndChar
StartChar: gbreve
Encoding: 287 287 454
Width: 581
GlyphClass: 2
Flags: MW
HStem: -230 137<238.5 313 238.5 369> -24 146<166.5 351 276 308> 154 141<280.5 298.5 269.5 366.5> 415 142<269.5 275 195 299.5> 622 149<268.5 313 268.5 355.5>
VStem: -12 198<-65 -48 -65 -48> -12 593<-99.5 497> 13 220<334 377.5 334 419> 332 204<337.5 367.5 279 381> 353 223<-62.5 -49>
AnchorPoint: "Anchor-14" 0 0 basechar 0
AnchorPoint: "Anchor-13" 0 0 basechar 0
AnchorPoint: "Anchor-12" 292 850 basechar 0
AnchorPoint: "Anchor-11" 0 0 basechar 0
AnchorPoint: "Anchor-10" 252 -218 basechar 0
LayerCount: 2
Back
Fore
SplineSet
291 622 m 0xfa
 162 622 106 726 98 832 c 1
 211 850 l 1
 221 804 246 771 291 771 c 0
 335 771 360 804 371 850 c 1
 483 832 l 1
 475 726 420 622 291 622 c 0xfa
535 647 m 1
 581 497 l 1
 551 482 502 471 430 471 c 1
 502 442 536 406 536 329 c 0xf980
 536 229 442 154 291 154 c 0
 270 154 254 153 236 156 c 0
 230 153 228 149 228 143 c 0
 228 137 228 122 276 122 c 2
 351 122 l 2
 491 122 576 56 576 -40 c 0
 576 -155 469 -230 269 -230 c 0
 40 -230 -12 -151 -12 -48 c 1
 186 -48 l 1xfc40
 186 -82 200 -93 277 -93 c 0
 349 -93 353 -70 353 -55 c 0
 353 -43 347 -24 308 -24 c 2
 236 -24 l 2
 97 -24 46 24 46 84 c 0
 46 128 76 171 115 195 c 1
 40 235 13 284 13 353 c 0xf940
 13 485 115 557 275 557 c 1
 382 553 468 598 535 647 c 1
283 415 m 0
 256 415 233 398 233 357 c 0
 233 311 257 295 282 295 c 0
 315 295 332 314 332 361 c 0
 332 401 316 415 283 415 c 0
EndSplineSet
Substitution2: "'smcp' Lowercase to Small Capitals lookup 27 subtable" gbreve.sc
Substitution2: "'aalt' Access All Alternates lookup 0 subtable" gbreve.sc
EndChar

StartChar: Gdotaccent
Encoding: 288 288 39
Width: 658
GlyphClass: 2
Flags: MW
HStem: -22 162<314 361.5 314 401.5> 262 153<349 408 349 349> 560 159<342 415.5> 734 232<313.5 384.5>
VStem: 12 237<266 419.5 266 468.5> 227 243<817.5 883> 408 221<153 262 262 262>
AnchorPoint: "Anchor-11" 352 0 basechar 0
AnchorPoint: "Anchor-10" 0 0 basechar 0
AnchorPoint: "Anchor-9" 349 698 basechar 0
AnchorPoint: "Anchor-8" 0 0 basechar 0
LayerCount: 2
Fore
SplineSet
349 966 m 0xf4
 420 966 470 916 470 850 c 0
 470 785 420 734 349 734 c 0
 278 734 227 785 227 850 c 0
 227 916 278 966 349 966 c 0xf4
375 719 m 0xea
 483 719 576 676 631 625 c 1
 516 507 l 1
 475 542 441 560 390 560 c 0
 294 560 249 490 249 349 c 0
 249 183 278 140 350 140 c 0
 373 140 389 145 408 153 c 1
 408 262 l 1
 349 262 l 1
 329 415 l 1
 629 415 l 1
 629 62 l 1
 551 8 444 -22 359 -22 c 0
 112 -22 12 113 12 350 c 0
 12 587 164 719 375 719 c 0xea
EndSplineSet
Substitution2: "'c2sc' Capitals to Small Capitals lookup 23 subtable" gdotaccent.sc
Substitution2: "'aalt' Access All Alternates lookup 0 subtable" gdotaccent.sc
Position2: "'cpsp' Capital Spacing lookup 0 subtable" dx=5 dy=0 dh=10 dv=0
EndChar

StartChar: Gcommaaccent
Encoding: 290 290 38
Width: 658
GlyphClass: 2
Flags: MW
HStem: -22 162<314 361.5 314 401.5> 262 153<349 408 349 349> 560 159<342 415.5>
VStem: 12 237<266 419.5 266 468.5> 251 199<-175 -131.5> 408 221<153 262 262 262>
AnchorPoint: "Anchor-11" 352 0 basechar 0
AnchorPoint: "Anchor-10" 0 0 basechar 0
AnchorPoint: "Anchor-9" 349 698 basechar 0
AnchorPoint: "Anchor-8" 0 0 basechar 0
LayerCount: 2
Fore
SplineSet
375 719 m 0xf4
 483 719 576 676 631 625 c 1
 516 507 l 1
 475 542 441 560 390 560 c 0
 294 560 249 490 249 349 c 0
 249 183 278 140 350 140 c 0
 373 140 389 145 408 153 c 1
 408 262 l 1
 349 262 l 1
 329 415 l 1
 629 415 l 1
 629 62 l 1
 551 8 444 -22 359 -22 c 0
 112 -22 12 113 12 350 c 0
 12 587 164 719 375 719 c 0xf4
351 -59 m 0xe8
 408 -59 450 -101 450 -158 c 0
 450 -192 439 -215 423 -248 c 2
 371 -352 l 1
 268 -352 l 1
 292 -239 l 1
 268 -221 251 -195 251 -158 c 0
 251 -105 293 -59 351 -59 c 0xe8
EndSplineSet
Substitution2: "'c2sc' Capitals to Small Capitals lookup 23 subtable" gcommaaccent.sc
Substitution2: "'aalt' Access All Alternates lookup 0 subtable" gcommaaccent.sc
Position2: "'cpsp' Capital Spacing lookup 0 subtable" dx=5 dy=0 dh=10 dv=0
EndChar

StartChar: gcommaaccent
Encoding: 291 291 171
Width: 581
GlyphClass: 2
Flags: MW
HStem: -230 137<238.5 313 238.5 369> -230 182<154.5 186 -12 369> -24 146<166.5 351 276 308> 154 141<280.5 298.5 269.5 366.5> 415 142<269.5 275 195 299.5>
VStem: -12 198<-65 -48 -65 -48> 13 220<334 377.5 334 419> 194 199<667.5 711> 332 204<337.5 367.5 279 381> 353 223<-62.5 -49>
AnchorPoint: "Anchor-11" 0 0 basechar 0
AnchorPoint: "Anchor-10" 0 0 basechar 0
AnchorPoint: "Anchor-9" 293 536 basechar 0
AnchorPoint: "Anchor-8" 0 0 basechar 0
LayerCount: 2
Fore
SplineSet
293 595 m 0xb9
 236 595 194 637 194 694 c 0
 194 728 205 751 221 784 c 2
 273 888 l 1
 376 888 l 1
 352 775 l 1
 376 757 393 731 393 694 c 0
 393 641 351 595 293 595 c 0xb9
581 497 m 1
 551 482 502 471 430 471 c 1
 502 442 536 406 536 329 c 0xba80
 536 229 442 154 291 154 c 0
 270 154 254 153 236 156 c 1
 230 153 228 149 228 143 c 0
 228 137 228 122 276 122 c 2
 351 122 l 2
 491 122 576 56 576 -40 c 0
 576 -155 469 -230 269 -230 c 0xbc40
 40 -230 -12 -151 -12 -48 c 1
 186 -48 l 1x7c80
 186 -82 200 -93 277 -93 c 0
 349 -93 353 -70 353 -55 c 0
 353 -43 347 -24 308 -24 c 2
 236 -24 l 2
 97 -24 46 24 46 84 c 0
 46 128 76 171 115 195 c 1
 40 235 13 284 13 353 c 0xba40
 13 485 115 557 275 557 c 1
 382 553 468 598 535 647 c 1
 581 497 l 1
283 415 m 0xba80
 256 415 233 398 233 357 c 0
 233 311 257 295 282 295 c 0
 315 295 332 314 332 361 c 0
 332 401 316 415 283 415 c 0xba80
EndSplineSet
Substitution2: "'smcp' Lowercase to Small Capitals lookup 24 subtable" gcommaaccent.sc
Substitution2: "'aalt' Access All Alternates lookup 0 subtable" gcommaaccent.sc
EndChar

StartChar: Hcircumflex
Encoding: 292 292 42
Width: 652
GlyphClass: 2
Flags: MW
HStem: 0 21G<30 261 30 30 391 391 391 622> 271 177<261 391 261 391> 678 20G<30 261 261 261 391 622 622 622>
VStem: 30 231<0 271 0 448 448 698> 391 231<0 271 271 271 448 698 0 698>
AnchorPoint: "Anchor-11" 0 0 basechar 0
AnchorPoint: "Anchor-10" 32 698 basechar 0
AnchorPoint: "Anchor-9" 327 698 basechar 0
AnchorPoint: "Anchor-8" 0 0 basechar 0
LayerCount: 2
Fore
SplineSet
327 838 m 1
 187 750 l 1
 114 835 l 1
 261 983 l 1
 392 983 l 1
 539 835 l 1
 466 750 l 1
 327 838 l 1
391 271 m 1
 261 271 l 1
 261 0 l 1
 30 0 l 1
 30 698 l 1
 261 698 l 1
 261 448 l 1
 391 448 l 1
 391 698 l 1
 622 698 l 1
 622 0 l 1
 391 0 l 1
 391 271 l 1
EndSplineSet
Substitution2: "'c2sc' Capitals to Small Capitals lookup 23 subtable" hcircumflex.sc
Substitution2: "'aalt' Access All Alternates lookup 0 subtable" hcircumflex.sc
Position2: "'cpsp' Capital Spacing lookup 0 subtable" dx=5 dy=0 dh=10 dv=0
EndChar

StartChar: hcircumflex
Encoding: 293 293 175
Width: 569
GlyphClass: 2
Flags: MW
HStem: 0 21G<30 252 30 30 322 544 322 322> 537 20G<373 445.5> 725 20G<30 30>
VStem: 30 222<0 353 0 494 494 745 745 745> 322 222<0 356 356 373>
AnchorPoint: "Anchor-11" 0 0 basechar 0
AnchorPoint: "Anchor-10" 0 0 basechar 0
AnchorPoint: "Anchor-9" 285 745 basechar 0
AnchorPoint: "Anchor-8" 0 0 basechar 0
LayerCount: 2
Fore
SplineSet
145 798 m 1
 72 883 l 1
 219 1031 l 1
 350 1031 l 1
 497 883 l 1
 424 798 l 1
 285 886 l 1
 145 798 l 1
402 557 m 0
 489 557 544 500 544 398 c 2
 544 0 l 1
 322 0 l 1
 322 356 l 2
 322 390 315 397 304 397 c 0
 291 397 272 385 252 353 c 1
 252 0 l 1
 30 0 l 1
 30 745 l 1
 252 768 l 1
 252 494 l 1
 299 540 344 557 402 557 c 0
EndSplineSet
Substitution2: "'smcp' Lowercase to Small Capitals lookup 24 subtable" hcircumflex.sc
Substitution2: "'aalt' Access All Alternates lookup 0 subtable" hcircumflex.sc
EndChar

StartChar: Hbar
Encoding: 294 294 41
Width: 667
GlyphClass: 2
Flags: MW
HStem: 0 21G<38 269 38 38 398 629 398 398> 271 177<269 398 269 398> 492 114<-8 38 -8 38 269 398 629 675> 492 206<-8 269 -8 269 38 269 38 398>
VStem: 38 231<0 271 0 448 448 492 0 492 606 698> 398 231<0 271 271 271 448 492 0 492 606 698 0 698>
AnchorPoint: "Anchor-11" 0 0 basechar 0
AnchorPoint: "Anchor-10" 40 698 basechar 0
AnchorPoint: "Anchor-9" 334 698 basechar 0
AnchorPoint: "Anchor-8" 0 0 basechar 0
LayerCount: 2
Fore
SplineSet
675 492 m 1xdc
 629 492 l 1
 629 0 l 1
 398 0 l 1
 398 271 l 1
 269 271 l 1
 269 0 l 1
 38 0 l 1
 38 492 l 1
 -8 492 l 1xdc
 -8 606 l 1
 38 606 l 1xec
 38 698 l 1
 269 698 l 1xdc
 269 606 l 1
 398 606 l 1xec
 398 698 l 1
 629 698 l 1xdc
 629 606 l 1
 675 606 l 1xec
 675 492 l 1xdc
398 492 m 1
 269 492 l 1
 269 448 l 1
 398 448 l 1
 398 492 l 1
EndSplineSet
Substitution2: "'c2sc' Capitals to Small Capitals lookup 23 subtable" hbar.sc
Substitution2: "'aalt' Access All Alternates lookup 0 subtable" hbar.sc
Position2: "'cpsp' Capital Spacing lookup 0 subtable" dx=5 dy=0 dh=10 dv=0
EndChar
StartChar: hbar
Encoding: 295 295 470
Width: 580
GlyphClass: 2
Flags: MW
HStem: 0 21G<41 263 41 41 333 555 333 333> 537 20G<384 456.5> 586 115<-6 41 -6 41 263 378> 725 20G<41 41>
VStem: 41 222<0 353 0 494 494 586 701 745 745 745> 333 222<0 356 356 373>
AnchorPoint: "Anchor-14" 296 268 basechar 0
AnchorPoint: "Anchor-13" 0 0 basechar 0
AnchorPoint: "Anchor-12" 296 745 basechar 0
AnchorPoint: "Anchor-11" 0 0 basechar 0
AnchorPoint: "Anchor-10" 298 0 basechar 0
LayerCount: 2
Back
Fore
SplineSet
413 557 m 0
 500 557 555 500 555 398 c 2
 555 0 l 1
 333 0 l 1
 333 356 l 2
 333 390 326 397 315 397 c 0
 302 397 283 385 263 353 c 1
 263 0 l 1
 41 0 l 1
 41 586 l 1
 -6 586 l 1
 -6 701 l 1
 41 701 l 1
 41 745 l 1
 263 768 l 1
 263 701 l 1
 378 701 l 1
 378 586 l 1
 263 586 l 1xbc
 263 494 l 1
 310 540 355 557 413 557 c 0
EndSplineSet
Substitution2: "'smcp' Lowercase to Small Capitals lookup 27 subtable" hbar.sc
Substitution2: "'aalt' Access All Alternates lookup 0 subtable" hbar.sc
EndChar

StartChar: Itilde
Encoding: 296 296 53
Width: 291
GlyphClass: 2
Flags: MW
HStem: 0 21G<30 261 30 30> 678 20G<30 261 261 261> 740 154<38 213.5 186.5 213.5 186.5 242> 782 154<78.5 106>
VStem: 30 231<0 698>
AnchorPoint: "Anchor-11" 0 0 basechar 0
AnchorPoint: "Anchor-10" 32 698 basechar 0
AnchorPoint: "Anchor-9" 146 698 basechar 0
AnchorPoint: "Anchor-8" 215 0 basechar 0
LayerCount: 2
Fore
SplineSet
207 740 m 0xe8
 138 740 121 782 91 782 c 0
 66 782 54 767 38 740 c 1
 -63 789 l 1
 -36 867 16 936 85 936 c 0xd8
 155 936 172 894 201 894 c 0
 226 894 237 909 253 936 c 1
 354 888 l 1
 328 811 277 740 207 740 c 0xe8
261 0 m 1xd8
 30 0 l 1
 30 698 l 1
 261 698 l 1
 261 0 l 1xd8
EndSplineSet
Substitution2: "'c2sc' Capitals to Small Capitals lookup 23 subtable" itilde.sc
Substitution2: "'aalt' Access All Alternates lookup 0 subtable" itilde.sc
Position2: "'cpsp' Capital Spacing lookup 0 subtable" dx=5 dy=0 dh=10 dv=0
EndChar

StartChar: itilde
Encoding: 297 297 187
Width: 282
GlyphClass: 2
Flags: MW
HStem: 0 21G<30 252 30 30> 516 20G<30 252 252 252> 614 154<33 208.5 181.5 208.5 181.5 237> 656 154<73.5 101> 742 20G<349 349>
VStem: 30 222<0 536>
AnchorPoint: "Anchor-11" 0 0 basechar 0
AnchorPoint: "Anchor-10" 0 0 basechar 0
AnchorPoint: "Anchor-9" 141 536 basechar 0
AnchorPoint: "Anchor-8" 213 0 basechar 0
LayerCount: 2
Fore
SplineSet
202 614 m 0xe4
 133 614 116 656 86 656 c 0
 61 656 49 641 33 614 c 1
 -68 663 l 1
 -41 741 11 810 80 810 c 0xd4
 150 810 167 768 196 768 c 0
 221 768 232 783 248 810 c 1xe4
 349 762 l 1xcc
 323 685 272 614 202 614 c 0xe4
252 0 m 1xcc
 30 0 l 1
 30 536 l 1
 252 536 l 1
 252 0 l 1xcc
EndSplineSet
Substitution2: "'smcp' Lowercase to Small Capitals lookup 24 subtable" itilde.sc
Substitution2: "'aalt' Access All Alternates lookup 0 subtable" itilde.sc
EndChar
StartChar: Imacron
Encoding: 298 298 132
Width: 291
GlyphClass: 2
Flags: MW
HStem: 0 21G<30 261 30 30> 678 20G<30 261 261 261> 770 148<-23 314 -23 314>
VStem: 30 231<0 698 0 698>
AnchorPoint: "Anchor-14" 0 0 basechar 0
AnchorPoint: "Anchor-13" 0 0 basechar 0
AnchorPoint: "Anchor-12" 148 918 basechar 0
AnchorPoint: "Anchor-11" 215 0 basechar 0
AnchorPoint: "Anchor-10" 146 0 basechar 0
LayerCount: 2
Back
Fore
SplineSet
314 770 m 1
 -23 770 l 1
 -23 918 l 1
 314 918 l 1
 314 770 l 1
261 698 m 1
 261 0 l 1
 30 0 l 1
 30 698 l 1
 261 698 l 1
EndSplineSet
Substitution2: "'c2sc' Capitals to Small Capitals lookup 26 subtable" imacron.sc
Substitution2: "'aalt' Access All Alternates lookup 0 subtable" imacron.sc
Position2: "'cpsp' Capital Spacing lookup 0 subtable" dx=5 dy=0 dh=10 dv=0
EndChar

StartChar: imacron
Encoding: 299 299 185
Width: 282
GlyphClass: 2
Flags: MW
HStem: 0 21G<30 252 30 30> 516 20G<30 252 252 252> 644 148<-28 309 -28 309>
VStem: 30 222<0 536>
AnchorPoint: "Anchor-11" 0 0 basechar 0
AnchorPoint: "Anchor-10" 0 0 basechar 0
AnchorPoint: "Anchor-9" 141 536 basechar 0
AnchorPoint: "Anchor-8" 213 0 basechar 0
LayerCount: 2
Fore
SplineSet
-28 644 m 1
 -28 792 l 1
 309 792 l 1
 309 644 l 1
 -28 644 l 1
252 0 m 1
 30 0 l 1
 30 536 l 1
 252 536 l 1
 252 0 l 1
EndSplineSet
Substitution2: "'smcp' Lowercase to Small Capitals lookup 24 subtable" imacron.sc
Substitution2: "'aalt' Access All Alternates lookup 0 subtable" imacron.sc
EndChar

StartChar: ibreve
Encoding: 301 301 179
Width: 282
GlyphClass: 2
Flags: MW
HStem: 0 21G<30 252 30 30> 516 20G<30 252 252 252> 622 149<119.5 164 119.5 206.5>
VStem: 30 222<0 536>
AnchorPoint: "Anchor-11" 0 0 basechar 0
AnchorPoint: "Anchor-10" 0 0 basechar 0
AnchorPoint: "Anchor-9" 141 536 basechar 0
AnchorPoint: "Anchor-8" 213 0 basechar 0
LayerCount: 2
Fore
SplineSet
142 622 m 0
 13 622 -43 726 -51 832 c 1
 62 850 l 1
 72 804 97 771 142 771 c 0
 186 771 211 804 222 850 c 1
 334 832 l 1
 326 726 271 622 142 622 c 0
252 0 m 1
 30 0 l 1
 30 536 l 1
 252 536 l 1
 252 0 l 1
EndSplineSet
Substitution2: "'smcp' Lowercase to Small Capitals lookup 24 subtable" ibreve.sc
Substitution2: "'aalt' Access All Alternates lookup 0 subtable" ibreve.sc
EndChar
StartChar: Iogonek
Encoding: 302 302 133
Width: 291
GlyphClass: 2
Flags: MW
HStem: -259 125<127 127.5> 0 21G<205 261 205 205> 678 20G<30 261 261 261>
VStem: 30 231<12 698 0 698>
AnchorPoint: "Anchor-14" 0 0 basechar 0
AnchorPoint: "Anchor-13" 0 0 basechar 0
AnchorPoint: "Anchor-12" 146 698 basechar 0
AnchorPoint: "Anchor-11" 215 0 basechar 0
AnchorPoint: "Anchor-10" 146 0 basechar 0
LayerCount: 2
Back
Fore
SplineSet
30 698 m 1
 261 698 l 1
 261 0 l 1
 205 0 l 1
 110 -29 92 -69 92 -91 c 0
 92 -121 112 -134 142 -134 c 0
 160 -134 181 -131 203 -126 c 1
 190 -251 l 1
 168 -256 141 -259 114 -259 c 0
 21 -259 -54 -212 -54 -127 c 0
 -54 -65 -21 -21 30 12 c 1
 30 698 l 1
EndSplineSet
Substitution2: "'c2sc' Capitals to Small Capitals lookup 26 subtable" iogonek.sc
Substitution2: "'aalt' Access All Alternates lookup 0 subtable" iogonek.sc
Position2: "'cpsp' Capital Spacing lookup 0 subtable" dx=5 dy=0 dh=10 dv=0
EndChar
StartChar: iogonek
Encoding: 303 303 494
Width: 282
GlyphClass: 2
Flags: MW
HStem: -259 125<125 125.5> 0 21G<203 252 203 203> 516 20G<30 252 252 252> 608 232<106.5 177.5>
VStem: 20 243<691.5 757> 30 222<13 536 0 536>
AnchorPoint: "Anchor-14" 0 0 basechar 0
AnchorPoint: "Anchor-13" 0 0 basechar 0
AnchorPoint: "Anchor-12" 143 840 basechar 0
AnchorPoint: "Anchor-11" 213 0 basechar 0
AnchorPoint: "Anchor-10" 141 0 basechar 0
LayerCount: 2
Back
Fore
SplineSet
142 608 m 0xf8
 71 608 20 659 20 724 c 0
 20 790 71 840 142 840 c 0
 213 840 263 790 263 724 c 0
 263 659 213 608 142 608 c 0xf8
30 13 m 1xf4
 30 536 l 1
 252 536 l 1
 252 0 l 1
 203 0 l 1
 108 -29 90 -69 90 -91 c 0
 90 -121 110 -134 140 -134 c 0
 158 -134 179 -131 201 -126 c 1
 188 -251 l 1
 166 -256 139 -259 112 -259 c 0
 19 -259 -56 -212 -56 -127 c 0
 -56 -64 -22 -20 30 13 c 1xf4
EndSplineSet
Substitution2: "'smcp' Lowercase to Small Capitals lookup 27 subtable" iogonek.sc
Substitution2: "'aalt' Access All Alternates lookup 0 subtable" iogonek.sc
EndChar

StartChar: Idotaccent
Encoding: 304 304 49
Width: 291
GlyphClass: 2
Flags: MW
HStem: 0 21G<30 261 30 30> 678 20G<30 261 261 261> 734 232<110.5 181.5>
VStem: 24 243<817.5 883> 30 231<0 698>
AnchorPoint: "Anchor-11" 0 0 basechar 0
AnchorPoint: "Anchor-10" 32 698 basechar 0
AnchorPoint: "Anchor-9" 146 698 basechar 0
AnchorPoint: "Anchor-8" 215 0 basechar 0
LayerCount: 2
Fore
SplineSet
146 966 m 0xf0
 217 966 267 916 267 850 c 0
 267 785 217 734 146 734 c 0
 75 734 24 785 24 850 c 0
 24 916 75 966 146 966 c 0xf0
261 0 m 1xe8
 30 0 l 1
 30 698 l 1
 261 698 l 1
 261 0 l 1xe8
EndSplineSet
Substitution2: "'c2sc' Capitals to Small Capitals lookup 23 subtable" i.sc.loclTRK
Substitution2: "'aalt' Access All Alternates lookup 0 subtable" i.sc.loclTRK
Position2: "'cpsp' Capital Spacing lookup 0 subtable" dx=5 dy=0 dh=10 dv=0
EndChar

StartChar: dotlessi
Encoding: 305 305 177
Width: 282
GlyphClass: 2
Flags: MW
HStem: 0 21G<30 252 30 30> 516 20G<30 252 252 252>
VStem: 30 222<0 536>
AnchorPoint: "Anchor-11" 0 0 basechar 0
AnchorPoint: "Anchor-10" 0 0 basechar 0
AnchorPoint: "Anchor-9" 141 536 basechar 0
AnchorPoint: "Anchor-8" 213 0 basechar 0
LayerCount: 2
Fore
SplineSet
252 0 m 1
 30 0 l 1
 30 536 l 1
 252 536 l 1
 252 0 l 1
EndSplineSet
Substitution2: "'smcp' Lowercase to Small Capitals lookup 24 subtable" dotlessi.sc
Substitution2: "'aalt' Access All Alternates lookup 0 subtable" dotlessi.sc
EndChar

StartChar: IJ
Encoding: 306 306 44
Width: 620
GlyphClass: 2
Flags: MW
HStem: 0 21G<30 261 30 30> 678 20G<30 261 261 261 361 592 592 592>
VStem: 30 231<0 698> 361 231<122 698>
AnchorPoint: "Anchor-11" 0 0 basechar 0
AnchorPoint: "Anchor-10" 32 698 basechar 0
AnchorPoint: "Anchor-9" 476 698 basechar 0
AnchorPoint: "Anchor-8" 215 0 basechar 0
LayerCount: 2
Fore
SplineSet
261 0 m 1
 30 0 l 1
 30 698 l 1
 261 698 l 1
 261 0 l 1
592 114 m 2
 592 -91 450 -160 327 -201 c 1
 265 -39 l 1
 354 -5 361 48 361 122 c 2
 361 698 l 1
 592 698 l 1
 592 114 l 2
EndSplineSet
Substitution2: "'c2sc' Capitals to Small Capitals lookup 23 subtable" ij.sc
Substitution2: "'aalt' Access All Alternates lookup 0 subtable" ij.sc
Position2: "'cpsp' Capital Spacing lookup 0 subtable" dx=5 dy=0 dh=10 dv=0
EndChar

StartChar: ij
Encoding: 307 307 184
Width: 564
GlyphClass: 2
Flags: MW
HStem: -230 21G<275 275> 0 21G<30 252 30 30> 516 20G<30 252 252 252 312 534 534 534> 608 232<106.5 177.5 388.5 459.5>
VStem: 20 243<691.5 757> 30 222<0 536> 302 243<691.5 757> 312 222<74 87 87 536>
AnchorPoint: "Anchor-11" 0 0 basechar 0
AnchorPoint: "Anchor-10" 0 0 basechar 0
AnchorPoint: "Anchor-9" 423 536 basechar 0
AnchorPoint: "Anchor-8" 213 0 basechar 0
LayerCount: 2
Fore
SplineSet
142 840 m 0xfa
 213 840 263 790 263 724 c 0
 263 659 213 608 142 608 c 0
 71 608 20 659 20 724 c 0
 20 790 71 840 142 840 c 0xfa
424 840 m 0
 495 840 545 790 545 724 c 0
 545 659 495 608 424 608 c 0
 353 608 302 659 302 724 c 0
 302 790 353 840 424 840 c 0
252 0 m 1xf5
 30 0 l 1
 30 536 l 1
 252 536 l 1
 252 0 l 1xf5
534 87 m 2
 534 -110 412 -189 275 -230 c 1
 198 -69 l 1
 265 -38 312 -7 312 74 c 2
 312 536 l 1
 534 536 l 1
 534 87 l 2
EndSplineSet
Substitution2: "'smcp' Lowercase to Small Capitals lookup 24 subtable" ij.sc
Substitution2: "'aalt' Access All Alternates lookup 0 subtable" ij.sc
EndChar
StartChar: Jcircumflex
Encoding: 308 308 138
Width: 329
GlyphClass: 2
Flags: MW
HStem: 678 20G<70 301 301 301>
VStem: 70 231<122 698>
AnchorPoint: "Anchor-14" 0 0 basechar 0
AnchorPoint: "Anchor-13" 288 872 basechar 0
AnchorPoint: "Anchor-12" 185 983 basechar 0
AnchorPoint: "Anchor-11" 0 0 basechar 0
AnchorPoint: "Anchor-10" 0 0 basechar 0
LayerCount: 2
Back
Fore
SplineSet
325 750 m 1
 186 838 l 1
 46 750 l 1
 -27 835 l 1
 120 983 l 1
 251 983 l 1
 398 835 l 1
 325 750 l 1
301 698 m 1
 301 114 l 2
 301 -91 159 -160 36 -201 c 1
 -26 -39 l 1
 63 -5 70 48 70 122 c 2
 70 698 l 1
 301 698 l 1
EndSplineSet
Substitution2: "'c2sc' Capitals to Small Capitals lookup 26 subtable" jcircumflex.sc
Substitution2: "'aalt' Access All Alternates lookup 0 subtable" jcircumflex.sc
Position2: "'cpsp' Capital Spacing lookup 0 subtable" dx=5 dy=0 dh=10 dv=0
EndChar

StartChar: jcircumflex
Encoding: 309 309 190
Width: 282
GlyphClass: 2
Flags: MW
HStem: -230 21G<-7 -7> 516 20G<30 252 252 252>
VStem: 30 222<74 87 87 536>
AnchorPoint: "Anchor-11" 0 0 basechar 0
AnchorPoint: "Anchor-10" 0 0 basechar 0
AnchorPoint: "Anchor-9" 141 536 basechar 0
AnchorPoint: "Anchor-8" 0 0 basechar 0
LayerCount: 2
Fore
SplineSet
-71 691 m 1
 76 851 l 1
 207 851 l 1
 354 691 l 1
 281 607 l 1
 142 706 l 1
 2 607 l 1
 -71 691 l 1
252 87 m 2
 252 -110 130 -189 -7 -230 c 1
 -84 -69 l 1
 -17 -38 30 -7 30 74 c 2
 30 536 l 1
 252 536 l 1
 252 87 l 2
EndSplineSet
Substitution2: "'smcp' Lowercase to Small Capitals lookup 24 subtable" jcircumflex.sc
Substitution2: "'aalt' Access All Alternates lookup 0 subtable" jcircumflex.sc
EndChar

StartChar: Kcommaaccent
Encoding: 310 310 57
Width: 675
GlyphClass: 2
Flags: MW
HStem: 0 21G<30 261 30 30 439 439 439 699> 678 20G<30 261 261 261 446 682 682 682>
VStem: 30 231<0 698> 233 199<-175 -131.5>
AnchorPoint: "Anchor-11" 333 0 basechar 0
AnchorPoint: "Anchor-10" 0 0 basechar 0
AnchorPoint: "Anchor-9" 330 698 basechar 0
AnchorPoint: "Anchor-8" 0 0 basechar 0
LayerCount: 2
Fore
SplineSet
261 0 m 1xe0
 30 0 l 1
 30 698 l 1
 261 698 l 1
 261 0 l 1xe0
499 390 m 1
 699 0 l 1
 439 0 l 1
 267 372 l 1
 446 698 l 1
 682 698 l 1
 499 390 l 1
333 -59 m 0xd0
 390 -59 432 -101 432 -158 c 0
 432 -192 421 -215 405 -248 c 2
 353 -352 l 1
 250 -352 l 1
 274 -239 l 1
 250 -221 233 -195 233 -158 c 0
 233 -105 275 -59 333 -59 c 0xd0
EndSplineSet
Substitution2: "'c2sc' Capitals to Small Capitals lookup 23 subtable" kcommaaccent.sc
Substitution2: "'aalt' Access All Alternates lookup 0 subtable" kcommaaccent.sc
Position2: "'cpsp' Capital Spacing lookup 0 subtable" dx=5 dy=0 dh=10 dv=0
EndChar

StartChar: kcommaaccent
Encoding: 311 311 192
Width: 590
GlyphClass: 2
Flags: MW
HStem: 0 21G<30 252 30 30 365 365 365 609> 516 20G<387 604 604 604> 725 20G<30 30> 747 20G<252 252>
VStem: 30 222<0 745 745 745> 195 199<-175 -131.5>
AnchorPoint: "Anchor-11" 295 0 basechar 0
AnchorPoint: "Anchor-10" 0 0 basechar 0
AnchorPoint: "Anchor-9" 0 0 basechar 0
AnchorPoint: "Anchor-8" 0 0 basechar 0
LayerCount: 2
Fore
SplineSet
252 0 m 1xd8
 30 0 l 1
 30 745 l 1xe8
 252 767 l 1
 252 0 l 1xd8
475 301 m 1
 609 0 l 1
 365 0 l 1
 256 293 l 1
 387 536 l 1
 604 536 l 1
 475 301 l 1
295 -59 m 0xd4
 352 -59 394 -101 394 -158 c 0
 394 -192 383 -215 367 -248 c 2
 315 -352 l 1
 212 -352 l 1
 236 -239 l 1
 212 -221 195 -195 195 -158 c 0
 195 -105 237 -59 295 -59 c 0xd4
EndSplineSet
Substitution2: "'smcp' Lowercase to Small Capitals lookup 24 subtable" kcommaaccent.sc
Substitution2: "'aalt' Access All Alternates lookup 0 subtable" kcommaaccent.sc
EndChar

StartChar: kgreenlandic
Encoding: 312 312 193
Width: 591
GlyphClass: 2
Flags: MW
HStem: 0 21G<30 252 30 30 366 366 366 610> 516 20G<30 252 252 252 388 605 605 605>
VStem: 30 222<0 536>
LayerCount: 2
Fore
SplineSet
252 0 m 1
 30 0 l 1
 30 536 l 1
 252 536 l 1
 252 0 l 1
476 291 m 1
 610 0 l 1
 366 0 l 1
 256 283 l 1
 388 536 l 1
 605 536 l 1
 476 291 l 1
EndSplineSet
Substitution2: "'smcp' Lowercase to Small Capitals lookup 24 subtable" kgreenlandic.sc
Substitution2: "'aalt' Access All Alternates lookup 0 subtable" kgreenlandic.sc
EndChar

StartChar: Lacute
Encoding: 313 313 59
Width: 527
GlyphClass: 2
Flags: MW
HStem: 0 175<261 496> 678 20G<30 261 261 261>
VStem: 30 231<175 175 175 698>
AnchorPoint: "Anchor-11" 263 0 basechar 0
AnchorPoint: "Anchor-10" 0 0 basechar 0
AnchorPoint: "Anchor-9" 146 698 basechar 0
AnchorPoint: "Anchor-8" 0 0 basechar 0
LayerCount: 2
Fore
SplineSet
298 841 m 1
 36 748 l 1
 -20 858 l 1
 218 1001 l 1
 298 841 l 1
261 175 m 1
 520 175 l 1
 496 0 l 1
 30 0 l 1
 30 698 l 1
 261 698 l 1
 261 175 l 1
EndSplineSet
Substitution2: "'c2sc' Capitals to Small Capitals lookup 23 subtable" lacute.sc
Substitution2: "'aalt' Access All Alternates lookup 0 subtable" lacute.sc
Position2: "'cpsp' Capital Spacing lookup 0 subtable" dx=5 dy=0 dh=10 dv=0
EndChar
StartChar: lacute
Encoding: 314 314 513
Width: 302
GlyphClass: 2
Flags: MW
HStem: -4 21G<325 325> 725 20G<25 25>
VStem: 25 222<167 175 175 745 745 745>
AnchorPoint: "Anchor-14" 410 371 basechar 0
AnchorPoint: "Anchor-13" 257 745 basechar 0
AnchorPoint: "Anchor-12" 138 1049 basechar 0
AnchorPoint: "Anchor-11" 0 0 basechar 0
AnchorPoint: "Anchor-10" 188 0 basechar 0
LayerCount: 2
Back
Fore
SplineSet
215 1049 m 1
 295 889 l 1
 33 796 l 1
 -23 906 l 1
 215 1049 l 1
206 -22 m 0
 89 -22 25 46 25 165 c 2
 25 745 l 1
 247 767 l 1
 247 175 l 2
 247 159 255 151 269 151 c 0
 277 151 283 153 287 155 c 1
 325 -4 l 1
 297 -14 255 -22 206 -22 c 0
EndSplineSet
Substitution2: "'smcp' Lowercase to Small Capitals lookup 27 subtable" lacute.sc
Substitution2: "'aalt' Access All Alternates lookup 0 subtable" lacute.sc
EndChar

StartChar: Lcommaaccent
Encoding: 315 315 61
Width: 527
GlyphClass: 2
Flags: MW
HStem: 0 175<261 496> 678 20G<30 261 261 261>
VStem: 30 231<175 175 175 698> 163 199<-175 -131.5>
AnchorPoint: "Anchor-11" 263 0 basechar 0
AnchorPoint: "Anchor-10" 0 0 basechar 0
AnchorPoint: "Anchor-9" 146 698 basechar 0
AnchorPoint: "Anchor-8" 0 0 basechar 0
LayerCount: 2
Fore
SplineSet
261 175 m 1xe0
 520 175 l 1
 496 0 l 1
 30 0 l 1
 30 698 l 1
 261 698 l 1
 261 175 l 1xe0
263 -59 m 0xd0
 320 -59 362 -101 362 -158 c 0
 362 -192 351 -215 335 -248 c 2
 283 -352 l 1
 180 -352 l 1
 204 -239 l 1
 180 -221 163 -195 163 -158 c 0
 163 -105 205 -59 263 -59 c 0xd0
EndSplineSet
Substitution2: "'c2sc' Capitals to Small Capitals lookup 23 subtable" lcommaaccent.sc
Substitution2: "'aalt' Access All Alternates lookup 0 subtable" lcommaaccent.sc
Position2: "'cpsp' Capital Spacing lookup 0 subtable" dx=5 dy=0 dh=10 dv=0
EndChar

StartChar: lcommaaccent
Encoding: 316 316 197
Width: 302
GlyphClass: 2
Flags: MW
HStem: -22 21G<145 223.5> -4 21G<325 325> 725 20G<25 25> 747 20G<247 247>
VStem: 25 222<175 191 191 745 745 745> 95 199<-175 -131.5>
AnchorPoint: "Anchor-11" 195 0 basechar 0
AnchorPoint: "Anchor-10" 0 0 basechar 0
AnchorPoint: "Anchor-9" 136 745 basechar 0
AnchorPoint: "Anchor-8" 0 0 basechar 0
LayerCount: 2
Fore
SplineSet
247 191 m 2x58
 247 159 257 151 268 151 c 0
 272 151 282 153 287 155 c 1
 325 -4 l 1
 296 -13 247 -22 200 -22 c 0
 90 -22 25 43 25 162 c 2
 25 745 l 1xa8
 247 767 l 1
 247 191 l 2x58
195 -59 m 0x54
 252 -59 294 -101 294 -158 c 0
 294 -192 283 -215 267 -248 c 2
 215 -352 l 1
 112 -352 l 1
 136 -239 l 1
 112 -221 95 -195 95 -158 c 0
 95 -105 137 -59 195 -59 c 0x54
EndSplineSet
Substitution2: "'smcp' Lowercase to Small Capitals lookup 24 subtable" lcommaaccent.sc
Substitution2: "'aalt' Access All Alternates lookup 0 subtable" lcommaaccent.sc
EndChar

StartChar: Lcaron
Encoding: 317 317 60
Width: 527
GlyphClass: 2
Flags: MW
HStem: 0 175<261 496> 678 20G<30 261 261 261> 695 20G<341 341>
VStem: 30 231<175 175 175 698>
AnchorPoint: "Anchor-11" 263 0 basechar 0
AnchorPoint: "Anchor-10" 0 0 basechar 0
AnchorPoint: "Anchor-9" 146 698 basechar 0
AnchorPoint: "Anchor-8" 0 0 basechar 0
LayerCount: 2
Fore
SplineSet
496 696 m 1xb0
 447 451 l 1
 339 459 l 1
 341 715 l 1
 496 696 l 1xb0
261 175 m 1
 520 175 l 1
 496 0 l 1
 30 0 l 1
 30 698 l 1
 261 698 l 1xd0
 261 175 l 1
EndSplineSet
Substitution2: "'c2sc' Capitals to Small Capitals lookup 23 subtable" lcaron.sc
Substitution2: "'aalt' Access All Alternates lookup 0 subtable" lcaron.sc
Position2: "'cpsp' Capital Spacing lookup 0 subtable" dx=5 dy=0 dh=10 dv=0
EndChar

StartChar: lcaron
Encoding: 318 318 196
Width: 527
GlyphClass: 2
Flags: MW
HStem: -22 21G<145 223.5> -4 21G<325 325> 725 20G<25 25> 743 20G<327 327> 747 20G<247 247>
VStem: 25 222<175 191 191 745 745 745>
AnchorPoint: "Anchor-11" 195 0 basechar 0
AnchorPoint: "Anchor-10" 0 0 basechar 0
AnchorPoint: "Anchor-9" 136 745 basechar 0
AnchorPoint: "Anchor-8" 0 0 basechar 0
LayerCount: 2
Fore
SplineSet
247 191 m 2x4c
 247 159 257 151 268 151 c 0
 272 151 282 153 287 155 c 1
 325 -4 l 1
 296 -13 247 -22 200 -22 c 0
 90 -22 25 43 25 162 c 2
 25 745 l 1xa4
 247 767 l 1
 247 191 l 2x4c
482 744 m 1x54
 433 499 l 1
 325 507 l 1
 327 763 l 1
 482 744 l 1x54
EndSplineSet
Substitution2: "'smcp' Lowercase to Small Capitals lookup 24 subtable" lcaron.sc
Substitution2: "'aalt' Access All Alternates lookup 0 subtable" lcaron.sc
EndChar

StartChar: Ldot
Encoding: 319 319 62
Width: 527
GlyphClass: 2
Flags: MW
HStem: 0 175<261 496> 678 20G<30 261 261 261>
VStem: 30 231<175 175 175 698> 284 243<374.5 440>
AnchorPoint: "Anchor-11" 263 0 basechar 0
AnchorPoint: "Anchor-10" 0 0 basechar 0
AnchorPoint: "Anchor-9" 146 698 basechar 0
AnchorPoint: "Anchor-8" 0 0 basechar 0
LayerCount: 2
Fore
SplineSet
261 175 m 1
 520 175 l 1
 496 0 l 1
 30 0 l 1
 30 698 l 1
 261 698 l 1
 261 175 l 1
406 523 m 0xf0
 477 523 527 473 527 407 c 0
 527 342 477 291 406 291 c 0
 335 291 284 342 284 407 c 0
 284 473 335 523 406 523 c 0xf0
EndSplineSet
Ligature2: "Ligature Substitution lookup 29 subtable" L periodcentered
Substitution2: "'c2sc' Capitals to Small Capitals lookup 23 subtable" ldot.sc
Substitution2: "'aalt' Access All Alternates lookup 0 subtable" ldot.sc
Position2: "'cpsp' Capital Spacing lookup 0 subtable" dx=5 dy=0 dh=10 dv=0
EndChar

StartChar: ldot
Encoding: 320 320 198
Width: 553
GlyphClass: 2
Flags: MW
HStem: -22 21G<145 223.5> -4 21G<325 325> 725 20G<25 25> 747 20G<247 247>
VStem: 25 222<175 191 191 745 745 745> 292 243<339.5 405>
AnchorPoint: "Anchor-11" 195 0 basechar 0
AnchorPoint: "Anchor-10" 0 0 basechar 0
AnchorPoint: "Anchor-9" 136 745 basechar 0
AnchorPoint: "Anchor-8" 0 0 basechar 0
LayerCount: 2
Fore
SplineSet
247 191 m 2x58
 247 159 257 151 268 151 c 0
 272 151 282 153 287 155 c 1
 325 -4 l 1
 296 -13 247 -22 200 -22 c 0
 90 -22 25 43 25 162 c 2
 25 745 l 1xa8
 247 767 l 1
 247 191 l 2x58
414 488 m 0x5c
 485 488 535 438 535 372 c 0
 535 307 485 256 414 256 c 0
 343 256 292 307 292 372 c 0
 292 438 343 488 414 488 c 0x5c
EndSplineSet
Ligature2: "Ligature Substitution lookup 29 subtable" l periodcentered
Substitution2: "'smcp' Lowercase to Small Capitals lookup 24 subtable" ldot.sc
Substitution2: "'aalt' Access All Alternates lookup 0 subtable" ldot.sc
EndChar
StartChar: Lslash
Encoding: 321 321 154
Width: 590
GlyphClass: 2
Flags: MW
HStem: 0 175<324 559 64 93> 531 20G<420 420> 678 20G<93 324 324 324>
VStem: 93 231<175 175 175 194 194 194 491 698>
AnchorPoint: "Anchor-14" 469 407 basechar 0
AnchorPoint: "Anchor-13" 332 698 basechar 0
AnchorPoint: "Anchor-12" 208 698 basechar 0
AnchorPoint: "Anchor-11" 0 0 basechar 0
AnchorPoint: "Anchor-10" 326 0 basechar 0
LayerCount: 2
Back
Fore
SplineSet
324 175 m 1
 582 175 l 1
 559 0 l 1
 93 0 l 1
 93 194 l 1
 64 175 l 1
 -5 288 l 1
 93 349 l 1
 93 698 l 1
 324 698 l 1
 324 491 l 1
 420 551 l 1
 490 439 l 1
 324 337 l 1
 324 175 l 1
EndSplineSet
Substitution2: "'c2sc' Capitals to Small Capitals lookup 26 subtable" lslash.sc
Substitution2: "'aalt' Access All Alternates lookup 0 subtable" lslash.sc
Position2: "'cpsp' Capital Spacing lookup 0 subtable" dx=5 dy=0 dh=10 dv=0
EndChar

StartChar: lslash
Encoding: 322 322 199
Width: 387
GlyphClass: 2
Flags: MW
HStem: -22 21G<189 267> -4 21G<368 368> 515 20G<291 291> 725 20G<69 69> 747 20G<291 291>
VStem: 69 222<175 191 191 241 241 241 535 745 745 745>
AnchorPoint: "Anchor-11" 239 0 basechar 0
AnchorPoint: "Anchor-10" 0 0 basechar 0
AnchorPoint: "Anchor-9" 180 745 basechar 0
AnchorPoint: "Anchor-8" 0 0 basechar 0
LayerCount: 2
Fore
SplineSet
312 151 m 0x6c
 316 151 326 153 331 155 c 1
 368 -4 l 1
 340 -13 290 -22 244 -22 c 0
 134 -22 69 43 69 162 c 2
 69 241 l 1
 29 216 l 1
 -19 343 l 1
 69 397 l 1
 69 745 l 1xb4
 291 767 l 1
 291 535 l 1
 345 568 l 1
 389 437 l 1
 291 377 l 1
 291 191 l 2
 291 159 301 151 312 151 c 0x6c
EndSplineSet
Substitution2: "'smcp' Lowercase to Small Capitals lookup 24 subtable" lslash.sc
Substitution2: "'aalt' Access All Alternates lookup 0 subtable" lslash.sc
EndChar

StartChar: Nacute
Encoding: 323 323 66
Width: 644
GlyphClass: 2
Flags: MW
HStem: 0 21G<30 233 30 30 326 614 326 326> 678 20G<30 312 312 312 411 614 614 614>
VStem: 30 203<0 193 0 698> 411 203<509 698>
AnchorPoint: "Anchor-11" 322 0 basechar 0
AnchorPoint: "Anchor-10" 0 0 basechar 0
AnchorPoint: "Anchor-9" 320 698 basechar 0
AnchorPoint: "Anchor-8" 0 0 basechar 0
LayerCount: 2
Fore
SplineSet
472 841 m 1
 210 748 l 1
 154 858 l 1
 392 1001 l 1
 472 841 l 1
614 0 m 1
 326 0 l 1
 203 491 l 1
 214 421 233 323 233 193 c 2
 233 0 l 1
 30 0 l 1
 30 698 l 1
 312 698 l 1
 442 205 l 1
 427 301 411 374 411 509 c 2
 411 698 l 1
 614 698 l 1
 614 0 l 1
EndSplineSet
Substitution2: "'c2sc' Capitals to Small Capitals lookup 23 subtable" nacute.sc
Substitution2: "'locl' Localized Forms in Latin lookup 7 subtable" Nacute.loclPLK
AlternateSubs2: "'aalt' Access All Alternates lookup 1 subtable" Nacute.loclPLK nacute.sc
Position2: "'cpsp' Capital Spacing lookup 0 subtable" dx=5 dy=0 dh=10 dv=0
EndChar
StartChar: Ncommaaccent
Encoding: 325 325 165
Width: 644
GlyphClass: 2
Flags: MW
HStem: 0 21G<30 233 30 30 326 614 326 326> 678 20G<30 312 312 312 411 614 614 614>
VStem: 30 203<0 193 0 698> 222 199<-175 -131.5> 411 203<509 698 0 698>
AnchorPoint: "Anchor-14" 0 0 basechar 0
AnchorPoint: "Anchor-13" 0 0 basechar 0
AnchorPoint: "Anchor-12" 320 698 basechar 0
AnchorPoint: "Anchor-11" 0 0 basechar 0
AnchorPoint: "Anchor-10" 322 0 basechar 0
LayerCount: 2
Back
Fore
SplineSet
614 698 m 1xe8
 614 0 l 1
 326 0 l 1
 203 491 l 1
 214 421 233 323 233 193 c 2
 233 0 l 1
 30 0 l 1
 30 698 l 1
 312 698 l 1
 442 205 l 1
 427 301 411 374 411 509 c 2
 411 698 l 1
 614 698 l 1xe8
322 -59 m 0xd0
 381 -59 421 -101 421 -158 c 0
 421 -192 410 -215 394 -248 c 2
 342 -352 l 1
 239 -352 l 1
 263 -239 l 1
 239 -221 222 -195 222 -158 c 0
 222 -105 263 -59 322 -59 c 0xd0
EndSplineSet
Substitution2: "'c2sc' Capitals to Small Capitals lookup 26 subtable" ncommaaccent.sc
Substitution2: "'aalt' Access All Alternates lookup 0 subtable" ncommaaccent.sc
Position2: "'cpsp' Capital Spacing lookup 0 subtable" dx=5 dy=0 dh=10 dv=0
EndChar

StartChar: ncommaaccent
Encoding: 326 326 205
Width: 569
GlyphClass: 2
Flags: MW
HStem: 0 21G<30 252 30 30 322 544 322 322> 397 139<30 309> 516 20G<30 224 224 224> 537 20G<370 445.5>
VStem: 30 222<0 353 0 536 0 536> 184 199<-175 -131.5> 322 222<0 356 356 373>
AnchorPoint: "Anchor-11" 284 0 basechar 0
AnchorPoint: "Anchor-10" 0 0 basechar 0
AnchorPoint: "Anchor-9" 289 536 basechar 0
AnchorPoint: "Anchor-8" 0 0 basechar 0
LayerCount: 2
Fore
SplineSet
402 557 m 0x9a
 489 557 544 500 544 398 c 2
 544 0 l 1
 322 0 l 1
 322 356 l 2
 322 390 314 397 304 397 c 0
 291 397 272 385 252 353 c 1xca
 252 0 l 1
 30 0 l 1
 30 536 l 1
 224 536 l 1xaa
 239 485 l 1
 292 537 338 557 402 557 c 0x9a
284 -59 m 0
 341 -59 383 -101 383 -158 c 0
 383 -192 372 -215 356 -248 c 2
 304 -352 l 1x94
 201 -352 l 1
 225 -239 l 1
 201 -221 184 -195 184 -158 c 0
 184 -105 226 -59 284 -59 c 0
EndSplineSet
Substitution2: "'smcp' Lowercase to Small Capitals lookup 24 subtable" ncommaaccent.sc
Substitution2: "'aalt' Access All Alternates lookup 0 subtable" ncommaaccent.sc
EndChar
StartChar: Ncaron
Encoding: 327 327 163
Width: 644
GlyphClass: 2
Flags: MW
HStem: 0 21G<30 233 30 30 326 614 326 326> 678 20G<30 312 312 312 411 614 614 614>
VStem: 30 203<0 193 0 698> 411 203<509 698 0 698>
AnchorPoint: "Anchor-14" 0 0 basechar 0
AnchorPoint: "Anchor-13" 0 0 basechar 0
AnchorPoint: "Anchor-12" 322 978 basechar 0
AnchorPoint: "Anchor-11" 0 0 basechar 0
AnchorPoint: "Anchor-10" 322 0 basechar 0
LayerCount: 2
Back
Fore
SplineSet
459 978 m 1
 532 893 l 1
 385 745 l 1
 254 745 l 1
 107 893 l 1
 180 978 l 1
 320 891 l 1
 459 978 l 1
614 698 m 1
 614 0 l 1
 326 0 l 1
 203 491 l 1
 214 421 233 323 233 193 c 2
 233 0 l 1
 30 0 l 1
 30 698 l 1
 312 698 l 1
 442 205 l 1
 427 301 411 374 411 509 c 2
 411 698 l 1
 614 698 l 1
EndSplineSet
Substitution2: "'c2sc' Capitals to Small Capitals lookup 26 subtable" ncaron.sc
Substitution2: "'aalt' Access All Alternates lookup 0 subtable" ncaron.sc
Position2: "'cpsp' Capital Spacing lookup 0 subtable" dx=5 dy=0 dh=10 dv=0
EndChar

StartChar: ncaron
Encoding: 328 328 204
Width: 569
GlyphClass: 2
Flags: MW
HStem: 0 21G<30 252 30 30 322 544 322 322> 397 139<30 309> 516 20G<30 224 224 224> 537 20G<370 445.5> 736 20G<77 77 502 502>
VStem: 30 222<0 353 0 536 0 536> 322 222<0 356 356 373>
AnchorPoint: "Anchor-11" 284 0 basechar 0
AnchorPoint: "Anchor-10" 0 0 basechar 0
AnchorPoint: "Anchor-9" 289 536 basechar 0
AnchorPoint: "Anchor-8" 0 0 basechar 0
LayerCount: 2
Fore
SplineSet
224 596 m 1x9e
 77 756 l 1
 150 840 l 1
 290 741 l 1
 429 840 l 1
 502 756 l 1
 355 596 l 1
 224 596 l 1x9e
402 557 m 0
 489 557 544 500 544 398 c 2
 544 0 l 1
 322 0 l 1
 322 356 l 2
 322 390 314 397 304 397 c 0
 291 397 272 385 252 353 c 1xce
 252 0 l 1
 30 0 l 1
 30 536 l 1
 224 536 l 1xae
 239 485 l 1
 292 537 338 557 402 557 c 0
EndSplineSet
Substitution2: "'smcp' Lowercase to Small Capitals lookup 24 subtable" ncaron.sc
Substitution2: "'aalt' Access All Alternates lookup 0 subtable" ncaron.sc
EndChar
StartChar: napostrophe
Encoding: 329 329 539
Width: 708
GlyphClass: 2
Flags: MW
HStem: 0 21G<170 392 170 170 461 683 461 461> 397 139<170 448.5> 516 20G<170 364 364 364> 537 20G<510 585.5> 746 20G<78.5 125>
VStem: 20 163<673 708> 170 222<0 353 0 536 0 536> 461 222<0 356 356 373>
AnchorPoint: "Anchor-14" 0 0 basechar 0
AnchorPoint: "Anchor-13" 0 0 basechar 0
AnchorPoint: "Anchor-12" 429 536 basechar 0
AnchorPoint: "Anchor-11" 0 0 basechar 0
AnchorPoint: "Anchor-10" 424 0 basechar 0
LayerCount: 2
Back
Fore
SplineSet
102 766 m 0x9d
 148 766 183 733 183 687 c 0
 183 659 175 639 161 614 c 2
 120 535 l 1
 35 535 l 1
 54 621 l 1
 35 635 20 656 20 687 c 0
 20 729 55 766 102 766 c 0x9d
542 557 m 0
 629 557 683 500 683 398 c 2
 683 0 l 1
 461 0 l 1
 461 356 l 2
 461 390 454 397 443 397 c 0
 431 397 412 385 392 353 c 1xcb
 392 0 l 1
 170 0 l 1
 170 536 l 1
 364 536 l 1xab
 379 485 l 1
 432 537 478 557 542 557 c 0
EndSplineSet
Substitution2: "'smcp' Lowercase to Small Capitals lookup 27 subtable" napostrophe.sc
Ligature2: "'locl' Localized Forms in Latin lookup 11 subtable" quoteright n
Ligature2: "'locl' Localized Forms in Latin lookup 11 subtable" quotesingle n
Substitution2: "'aalt' Access All Alternates lookup 0 subtable" napostrophe.sc
EndChar

StartChar: Eng
Encoding: 330 330 69
Width: 644
GlyphClass: 2
Flags: MW
HStem: -230 21G<355 355> 0 21G<30 233 30 30 326 395 326 326> 479 219<197 201 197 197> 678 20G<30 312 312 312 411 614 614 614>
VStem: 30 203<0 193 0 698> 411 203<509 698>
AnchorPoint: "Anchor-11" 400 0 basechar 0
AnchorPoint: "Anchor-10" 0 0 basechar 0
AnchorPoint: "Anchor-9" 400 854 basechar 0
AnchorPoint: "Anchor-8" 0 0 basechar 0
LayerCount: 2
Fore
SplineSet
614 698 m 1xdc
 614 87 l 2
 614 -110 491 -189 355 -230 c 1
 286 -83 l 1
 344 -60 379 -39 395 0 c 1
 326 0 l 1
 201 479 l 1
 197 479 l 1xec
 213 422 233 323 233 193 c 2
 233 0 l 1
 30 0 l 1
 30 698 l 1
 312 698 l 1
 443 220 l 1
 447 220 l 1
 427 301 411 374 411 509 c 2
 411 698 l 1
 614 698 l 1xdc
EndSplineSet
Substitution2: "'c2sc' Capitals to Small Capitals lookup 23 subtable" eng.sc
Substitution2: "'aalt' Access All Alternates lookup 0 subtable" eng.sc
Position2: "'cpsp' Capital Spacing lookup 0 subtable" dx=5 dy=0 dh=10 dv=0
EndChar
StartChar: eng
Encoding: 331 331 547
Width: 569
GlyphClass: 2
Flags: MW
HStem: -230 155<263.5 288.5 259.5 373.5> 0 21G<30 252 30 30> 397 139<30 309> 516 20G<30 224 224 224> 537 20G<370.5 445.5>
VStem: 30 222<0 353 0 536 0 536> 322 222<-27 -7 -7 356 356 373>
AnchorPoint: "Anchor-14" 0 0 basechar 0
AnchorPoint: "Anchor-13" 0 0 basechar 0
AnchorPoint: "Anchor-12" 289 536 basechar 0
AnchorPoint: "Anchor-11" 0 0 basechar 0
AnchorPoint: "Anchor-10" 299 -218 basechar 0
LayerCount: 2
Back
Fore
SplineSet
544 -7 m 2xce
 544 -156 446 -230 301 -230 c 0
 226 -230 174 -211 136 -184 c 1
 206 -56 l 1
 230 -67 246 -75 273 -75 c 0
 304 -75 322 -58 322 -27 c 2
 322 356 l 2
 322 390 314 397 304 397 c 0
 291 397 272 385 252 353 c 1xe6
 252 0 l 1
 30 0 l 1
 30 536 l 1
 224 536 l 1xd6
 239 485 l 1
 292 538 339 557 402 557 c 0
 489 557 544 500 544 398 c 2
 544 -7 l 2xce
EndSplineSet
Substitution2: "'smcp' Lowercase to Small Capitals lookup 27 subtable" eng.sc
Substitution2: "'aalt' Access All Alternates lookup 0 subtable" eng.sc
EndChar

StartChar: Omacron
Encoding: 332 332 78
Width: 690
GlyphClass: 2
Flags: MW
HStem: -22 162<309.5 381 309.5 453.5> 558 161<310 379.5> 771 148<175 512 175 512>
VStem: 12 240<274 426.5 274 463> 175 337<771 919 771 919> 438 239<274 426.5>
AnchorPoint: "Anchor-11" 0 0 basechar 0
AnchorPoint: "Anchor-10" 101 698 basechar 0
AnchorPoint: "Anchor-9" 344 698 basechar 0
AnchorPoint: "Anchor-8" 0 0 basechar 0
LayerCount: 2
Fore
SplineSet
175 771 m 1xe8
 175 919 l 1
 512 919 l 1
 512 771 l 1
 175 771 l 1xe8
345 719 m 0xf4
 562 719 677 581 677 350 c 0
 677 125 562 -22 345 -22 c 0
 127 -22 12 119 12 350 c 0
 12 576 127 719 345 719 c 0xf4
345 558 m 0
 275 558 252 503 252 350 c 0
 252 198 274 140 345 140 c 0
 417 140 438 198 438 350 c 0
 438 503 414 558 345 558 c 0
EndSplineSet
Substitution2: "'c2sc' Capitals to Small Capitals lookup 23 subtable" omacron.sc
Substitution2: "'aalt' Access All Alternates lookup 0 subtable" omacron.sc
Position2: "'cpsp' Capital Spacing lookup 0 subtable" dx=5 dy=0 dh=10 dv=0
EndChar
StartChar: omacron
Encoding: 333 333 582
Width: 584
GlyphClass: 2
Flags: MW
HStem: -22 158<271.5 312.5 271.5 379.5> 400 157<271 312.5> 644 148<123 460 123 460>
VStem: 8 226<219.5 315.5 219.5 357.5> 123 337<644 792 644 792> 350 226<220 315.5>
AnchorPoint: "Anchor-14" 0 0 basechar 0
AnchorPoint: "Anchor-13" 516 536 basechar 0
AnchorPoint: "Anchor-12" 291 753 basechar 0
AnchorPoint: "Anchor-11" 423 0 basechar 0
AnchorPoint: "Anchor-10" 292 0 basechar 0
LayerCount: 2
Back
Fore
SplineSet
460 644 m 1x68
 123 644 l 1
 123 792 l 1
 460 792 l 1
 460 644 l 1x68
292 557 m 0xf4
 464 557 576 457 576 266 c 0
 576 90 467 -22 292 -22 c 0
 120 -22 8 79 8 269 c 0
 8 446 117 557 292 557 c 0xf4
292 400 m 0
 250 400 234 362 234 269 c 0
 234 170 251 136 292 136 c 0
 333 136 350 174 350 266 c 0
 350 365 333 400 292 400 c 0
EndSplineSet
Substitution2: "'smcp' Lowercase to Small Capitals lookup 27 subtable" omacron.sc
Substitution2: "'aalt' Access All Alternates lookup 0 subtable" omacron.sc
EndChar

StartChar: Obreve
Encoding: 334 334 73
Width: 690
GlyphClass: 2
Flags: MW
HStem: -22 162<309.5 381 309.5 453.5> 558 161<310 379.5> 743 149<321.5 366 321.5 408.5>
VStem: 12 240<274 426.5 274 463> 438 239<274 426.5>
AnchorPoint: "Anchor-11" 0 0 basechar 0
AnchorPoint: "Anchor-10" 101 698 basechar 0
AnchorPoint: "Anchor-9" 344 698 basechar 0
AnchorPoint: "Anchor-8" 0 0 basechar 0
LayerCount: 2
Fore
SplineSet
344 743 m 0
 215 743 159 847 151 944 c 1
 264 961 l 1
 274 925 299 892 344 892 c 0
 388 892 413 925 424 961 c 1
 536 944 l 1
 528 847 473 743 344 743 c 0
345 719 m 0xd8
 562 719 677 581 677 350 c 0
 677 125 562 -22 345 -22 c 0
 127 -22 12 119 12 350 c 0
 12 576 127 719 345 719 c 0xd8
345 558 m 0
 275 558 252 503 252 350 c 0
 252 198 274 140 345 140 c 0
 417 140 438 198 438 350 c 0
 438 503 414 558 345 558 c 0
EndSplineSet
Substitution2: "'c2sc' Capitals to Small Capitals lookup 23 subtable" obreve.sc
Substitution2: "'aalt' Access All Alternates lookup 0 subtable" obreve.sc
Position2: "'cpsp' Capital Spacing lookup 0 subtable" dx=5 dy=0 dh=10 dv=0
EndChar

StartChar: obreve
Encoding: 335 335 210
Width: 584
GlyphClass: 2
Flags: MW
HStem: -22 158<271.5 312.5 271.5 379.5> 400 157<271 312.5> 622 149<270.5 315 270.5 357.5>
VStem: 8 226<219.5 315.5 219.5 357.5> 350 226<220 315.5>
AnchorPoint: "Anchor-11" 0 0 basechar 0
AnchorPoint: "Anchor-10" 0 0 basechar 0
AnchorPoint: "Anchor-9" 292 536 basechar 0
AnchorPoint: "Anchor-8" 0 0 basechar 0
LayerCount: 2
Fore
SplineSet
293 622 m 0
 164 622 108 726 100 832 c 1
 213 850 l 1
 223 804 248 771 293 771 c 0
 337 771 362 804 373 850 c 1
 485 832 l 1
 477 726 422 622 293 622 c 0
292 557 m 0
 464 557 576 457 576 266 c 0
 576 90 467 -22 292 -22 c 0
 120 -22 8 79 8 269 c 0
 8 446 117 557 292 557 c 0
292 400 m 0
 250 400 234 362 234 269 c 0
 234 170 251 136 292 136 c 0
 333 136 350 174 350 266 c 0
 350 365 333 400 292 400 c 0
EndSplineSet
Substitution2: "'smcp' Lowercase to Small Capitals lookup 24 subtable" obreve.sc
Substitution2: "'aalt' Access All Alternates lookup 0 subtable" obreve.sc
EndChar

StartChar: Ohungarumlaut
Encoding: 336 336 77
Width: 690
GlyphClass: 2
Flags: MW
HStem: -22 162<309.5 381 309.5 453.5> 558 161<310 379.5>
VStem: 12 240<274 426.5 274 463> 438 239<274 426.5>
AnchorPoint: "Anchor-11" 0 0 basechar 0
AnchorPoint: "Anchor-10" 101 698 basechar 0
AnchorPoint: "Anchor-9" 344 698 basechar 0
AnchorPoint: "Anchor-8" 0 0 basechar 0
LayerCount: 2
Fore
SplineSet
428 954 m 1
 299 747 l 1
 192 789 l 1
 293 1013 l 1
 428 954 l 1
624 948 m 1
 488 743 l 1
 383 794 l 1
 491 1013 l 1
 624 948 l 1
345 719 m 0
 562 719 677 581 677 350 c 0
 677 125 562 -22 345 -22 c 0
 127 -22 12 119 12 350 c 0
 12 576 127 719 345 719 c 0
345 558 m 0
 275 558 252 503 252 350 c 0
 252 198 274 140 345 140 c 0
 417 140 438 198 438 350 c 0
 438 503 414 558 345 558 c 0
EndSplineSet
Substitution2: "'c2sc' Capitals to Small Capitals lookup 23 subtable" ohungarumlaut.sc
Substitution2: "'aalt' Access All Alternates lookup 0 subtable" ohungarumlaut.sc
Position2: "'cpsp' Capital Spacing lookup 0 subtable" dx=5 dy=0 dh=10 dv=0
EndChar

StartChar: OE
Encoding: 338 338 82
Width: 910
GlyphClass: 2
Flags: MW
HStem: -22 162<304.5 347.5> 0 140<304.5 895 304.5 443> 0 159<610 895 610 895> 278 153<652 853 652 853> 539 159<611 879 611 611> 558 161<305 348 226.5 364.5>
VStem: 12 240<274 426.5 274 463> 418 234<278 284 416 426.5> 652 201<278 284 284 284 416 431 278 431>
LayerCount: 2
Fore
SplineSet
652 284 m 1x3a80
 645 240 631 196 610 159 c 1
 895 159 l 1
 895 0 l 1
 443 0 l 1x3a80
 408 -15 369 -22 326 -22 c 0
 127 -22 12 119 12 350 c 0
 12 576 127 719 326 719 c 0x97
 370 719 410 712 444 698 c 1
 902 698 l 1
 879 539 l 1
 611 539 l 1x3b
 632 501 645 459 652 416 c 1
 652 431 l 1
 853 431 l 1
 853 278 l 1
 652 278 l 1
 652 284 l 1x3a80
335 140 m 0x57
 397 140 418 198 418 350 c 0
 418 503 394 558 335 558 c 0
 275 558 252 503 252 350 c 0
 252 198 274 140 335 140 c 0x57
EndSplineSet
Substitution2: "'c2sc' Capitals to Small Capitals lookup 23 subtable" oe.sc
Substitution2: "'aalt' Access All Alternates lookup 0 subtable" oe.sc
Position2: "'cpsp' Capital Spacing lookup 0 subtable" dx=5 dy=0 dh=10 dv=0
EndChar

StartChar: oe
Encoding: 339 339 219
Width: 898
GlyphClass: 2
Flags: MW
HStem: -22 155<642.5 686.5 642.5 696.5> -22 158<271 311 271 326> 206 122<571 677 569 891 571 571> 400 157<270.5 311> 421 136<610 650>
VStem: 8 226<219.5 315.5 219.5 356> 347 222<220 328> 677 219<328 335 335 335>
AnchorPoint: "Anchor-11" 0 0 basechar 0
AnchorPoint: "Anchor-10" 0 0 basechar 0
AnchorPoint: "Anchor-9" 456 536 basechar 0
AnchorPoint: "Anchor-8" 0 0 basechar 0
LayerCount: 2
Fore
SplineSet
896 273 m 0x6f
 896 256 894 227 891 206 c 1
 571 206 l 1
 582 141 616 133 669 133 c 0
 704 133 741 148 787 180 c 1xaf
 876 60 l 1
 822 17 745 -22 648 -22 c 0
 567 -22 508 2 463 43 c 1
 418 0 361 -22 291 -22 c 0
 117 -22 8 79 8 269 c 0
 8 443 117 557 291 557 c 0
 357 557 414 534 459 494 c 1
 501 533 556 557 624 557 c 0
 785 557 896 456 896 273 c 0x6f
677 328 m 1
 677 335 l 1
 676 378 672 421 628 421 c 0
 592 421 575 401 569 328 c 1
 677 328 l 1
291 136 m 0
 331 136 347 171 347 269 c 0
 347 362 331 400 291 400 c 0x77
 250 400 234 362 234 269 c 0
 234 170 251 136 291 136 c 0
EndSplineSet
Substitution2: "'smcp' Lowercase to Small Capitals lookup 24 subtable" oe.sc
Substitution2: "'aalt' Access All Alternates lookup 0 subtable" oe.sc
EndChar

StartChar: Racute
Encoding: 340 340 87
Width: 628
GlyphClass: 2
Flags: MW
HStem: 0 21G<30 261 30 30 404 404 404 658> 238 153<261 284 261 306> 541 157<261 296 261 261>
VStem: 30 231<0 238 391 541> 375 234<444 495>
AnchorPoint: "Anchor-11" 313 0 basechar 0
AnchorPoint: "Anchor-10" 0 0 basechar 0
AnchorPoint: "Anchor-9" 315 698 basechar 0
AnchorPoint: "Anchor-8" 0 0 basechar 0
LayerCount: 2
Fore
SplineSet
205 748 m 1
 149 858 l 1
 387 1001 l 1
 467 841 l 1
 205 748 l 1
284 238 m 1
 261 238 l 1
 261 0 l 1
 30 0 l 1
 30 698 l 1
 302 698 l 2
 507 698 609 629 609 471 c 0
 609 385 574 334 492 280 c 1
 658 0 l 1
 404 0 l 1
 284 238 l 1
261 391 m 1
 306 391 l 2
 353 391 375 417 375 471 c 0
 375 519 345 541 296 541 c 2
 261 541 l 1
 261 391 l 1
EndSplineSet
Substitution2: "'c2sc' Capitals to Small Capitals lookup 23 subtable" racute.sc
Substitution2: "'aalt' Access All Alternates lookup 0 subtable" racute.sc
Position2: "'cpsp' Capital Spacing lookup 0 subtable" dx=5 dy=0 dh=10 dv=0
EndChar

StartChar: racute
Encoding: 341 341 224
Width: 415
GlyphClass: 2
Flags: MW
HStem: 0 21G<30 252 30 30> 339 197<30 354.5> 516 20G<30 224 224 224> 524 20G<430 430> 534 20G<346.5 386.5>
VStem: 30 222<0 230 0 536>
AnchorPoint: "Anchor-11" 141 0 basechar 0
AnchorPoint: "Anchor-10" 0 0 basechar 0
AnchorPoint: "Anchor-9" 229 536 basechar 0
AnchorPoint: "Anchor-8" 0 0 basechar 0
LayerCount: 2
Fore
SplineSet
119 607 m 1x8c
 60 718 l 1
 297 868 l 1
 378 709 l 1
 119 607 l 1x8c
376 554 m 0
 397 554 410 550 430 544 c 1x94
 396 330 l 1
 379 335 363 339 346 339 c 0xc4
 283 339 265 291 252 230 c 1
 252 0 l 1
 30 0 l 1
 30 536 l 1
 224 536 l 1xa4
 242 436 l 1
 262 505 317 554 376 554 c 0
EndSplineSet
Substitution2: "'smcp' Lowercase to Small Capitals lookup 24 subtable" racute.sc
Substitution2: "'aalt' Access All Alternates lookup 0 subtable" racute.sc
EndChar

StartChar: Rcommaaccent
Encoding: 342 342 89
Width: 628
GlyphClass: 2
Flags: MW
HStem: 0 21G<30 261 30 30 404 404 404 658> 238 153<261 284 261 306> 541 157<261 261 261 296>
VStem: 30 231<0 238 391 541> 212 199<-175 -131.5> 375 234<444 495>
AnchorPoint: "Anchor-11" 313 0 basechar 0
AnchorPoint: "Anchor-10" 0 0 basechar 0
AnchorPoint: "Anchor-9" 315 698 basechar 0
AnchorPoint: "Anchor-8" 0 0 basechar 0
LayerCount: 2
Fore
SplineSet
261 0 m 1xf4
 30 0 l 1
 30 698 l 1
 302 698 l 2
 507 698 609 629 609 471 c 0
 609 385 574 334 492 280 c 1
 658 0 l 1
 404 0 l 1
 284 238 l 1
 261 238 l 1
 261 0 l 1xf4
261 541 m 1
 261 391 l 1
 306 391 l 2
 353 391 375 417 375 471 c 0
 375 519 345 541 296 541 c 2
 261 541 l 1
312 -59 m 0xe8
 369 -59 411 -101 411 -158 c 0
 411 -192 400 -215 384 -248 c 2
 332 -352 l 1
 229 -352 l 1
 253 -239 l 1
 229 -221 212 -195 212 -158 c 0
 212 -105 254 -59 312 -59 c 0xe8
EndSplineSet
Substitution2: "'c2sc' Capitals to Small Capitals lookup 23 subtable" rcommaaccent.sc
Substitution2: "'aalt' Access All Alternates lookup 0 subtable" rcommaaccent.sc
Position2: "'cpsp' Capital Spacing lookup 0 subtable" dx=5 dy=0 dh=10 dv=0
EndChar
StartChar: rcommaaccent
Encoding: 343 343 611
Width: 415
GlyphClass: 2
Flags: MW
HStem: 0 21G<30 252 30 30> 339 197<30 354.5> 516 20G<30 224 224 224> 524 20G<430 430> 534 20G<346.5 386.5>
VStem: 30 222<0 230 0 536> 41 199<-175 -131.5>
AnchorPoint: "Anchor-14" 0 0 basechar 0
AnchorPoint: "Anchor-13" 0 0 basechar 0
AnchorPoint: "Anchor-12" 229 536 basechar 0
AnchorPoint: "Anchor-11" 0 0 basechar 0
AnchorPoint: "Anchor-10" 141 0 basechar 0
LayerCount: 2
Back
Fore
SplineSet
376 554 m 0x8c
 397 554 410 550 430 544 c 1x94
 396 330 l 1
 379 335 363 339 346 339 c 0xc4
 283 339 265 290 252 230 c 1
 252 0 l 1
 30 0 l 1
 30 536 l 1
 224 536 l 1xa4
 242 438 l 1
 262 505 317 554 376 554 c 0x8c
141 -59 m 0x8a
 200 -59 240 -101 240 -158 c 0
 240 -192 229 -215 213 -248 c 2
 161 -352 l 1
 58 -352 l 1
 82 -239 l 1
 58 -221 41 -195 41 -158 c 0
 41 -105 82 -59 141 -59 c 0x8a
EndSplineSet
Substitution2: "'smcp' Lowercase to Small Capitals lookup 27 subtable" rcommaaccent.sc
Substitution2: "'aalt' Access All Alternates lookup 0 subtable" rcommaaccent.sc
EndChar
StartChar: Rcaron
Encoding: 344 344 227
Width: 628
GlyphClass: 2
Flags: MW
HStem: 0 21G<30 261 30 30 404 658 404 404> 238 153<261 284 261 306> 541 157<261 261 261 296>
VStem: 30 231<0 238 0 391 391 541> 375 234<444 495>
AnchorPoint: "Anchor-14" 0 0 basechar 0
AnchorPoint: "Anchor-13" 0 0 basechar 0
AnchorPoint: "Anchor-12" 317 978 basechar 0
AnchorPoint: "Anchor-11" 0 0 basechar 0
AnchorPoint: "Anchor-10" 313 0 basechar 0
LayerCount: 2
Back
Fore
SplineSet
380 745 m 1
 249 745 l 1
 102 893 l 1
 175 978 l 1
 315 891 l 1
 454 978 l 1
 527 893 l 1
 380 745 l 1
404 0 m 1
 284 238 l 1
 261 238 l 1
 261 0 l 1
 30 0 l 1
 30 698 l 1
 302 698 l 2
 507 698 609 629 609 471 c 0
 609 385 574 334 493 280 c 1
 658 0 l 1
 404 0 l 1
261 541 m 1
 261 391 l 1
 306 391 l 2
 353 391 375 417 375 471 c 0
 375 519 345 541 296 541 c 2
 261 541 l 1
EndSplineSet
Substitution2: "'c2sc' Capitals to Small Capitals lookup 26 subtable" rcaron.sc
Substitution2: "'aalt' Access All Alternates lookup 0 subtable" rcaron.sc
Position2: "'cpsp' Capital Spacing lookup 0 subtable" dx=5 dy=0 dh=10 dv=0
EndChar

StartChar: rcaron
Encoding: 345 345 225
Width: 415
GlyphClass: 2
Flags: MW
HStem: 0 21G<30 252 30 30> 339 197<30 354.5> 516 20G<30 224 224 224> 524 20G<430 430> 534 20G<346.5 386.5> 736 20G<17 17 442 442>
VStem: 30 222<0 230 0 536>
AnchorPoint: "Anchor-11" 141 0 basechar 0
AnchorPoint: "Anchor-10" 0 0 basechar 0
AnchorPoint: "Anchor-9" 229 536 basechar 0
AnchorPoint: "Anchor-8" 0 0 basechar 0
LayerCount: 2
Fore
SplineSet
164 596 m 1x8e
 17 756 l 1
 90 840 l 1
 230 741 l 1
 369 840 l 1
 442 756 l 1
 295 596 l 1
 164 596 l 1x8e
242 436 m 1
 262 505 317 554 376 554 c 0x8e
 397 554 410 550 430 544 c 1x96
 396 330 l 1
 379 335 363 339 346 339 c 0xc6
 283 339 265 291 252 230 c 1
 252 0 l 1
 30 0 l 1
 30 536 l 1
 224 536 l 1xa6
 242 436 l 1
EndSplineSet
Substitution2: "'smcp' Lowercase to Small Capitals lookup 24 subtable" rcaron.sc
Substitution2: "'aalt' Access All Alternates lookup 0 subtable" rcaron.sc
EndChar

StartChar: Sacute
Encoding: 346 346 91
Width: 598
GlyphClass: 2
Flags: MW
HStem: -22 164<243.5 302.5 243.5 379.5> 558 161<303 353>
VStem: 24 238<503.5 530.5 503.5 568> 348 240<178.5 209>
AnchorPoint: "Anchor-11" 299 0 basechar 0
AnchorPoint: "Anchor-10" 0 0 basechar 0
AnchorPoint: "Anchor-9" 314 698 basechar 0
AnchorPoint: "Anchor-8" 0 0 basechar 0
LayerCount: 2
Fore
SplineSet
466 841 m 1
 204 748 l 1
 148 858 l 1
 386 1001 l 1
 466 841 l 1
306 719 m 0
 421 719 508 684 573 621 c 1
 473 503 l 1
 428 539 380 558 326 558 c 0
 280 558 262 542 262 519 c 0
 262 488 287 481 381 450 c 0
 531 401 588 335 588 212 c 0
 588 74 474 -22 285 -22 c 0
 144 -22 51 32 -6 87 c 1
 106 209 l 1
 156 167 212 142 275 142 c 0
 330 142 348 166 348 191 c 0
 348 227 329 242 244 268 c 0
 68 324 24 399 24 499 c 0
 24 637 145 719 306 719 c 0
EndSplineSet
Substitution2: "'c2sc' Capitals to Small Capitals lookup 23 subtable" sacute.sc
Substitution2: "'locl' Localized Forms in Latin lookup 7 subtable" Sacute.loclPLK
AlternateSubs2: "'aalt' Access All Alternates lookup 1 subtable" Sacute.loclPLK sacute.sc
Position2: "'cpsp' Capital Spacing lookup 0 subtable" dx=5 dy=0 dh=10 dv=0
EndChar
StartChar: scircumflex
Encoding: 349 349 630
Width: 499
GlyphClass: 2
Flags: MW
HStem: -22 150<202 239.5 202 310> 406 151<255.5 290>
VStem: -12 507<67 217> 17 219<386 396 386 427.5>
AnchorPoint: "Anchor-14" 0 0 basechar 0
AnchorPoint: "Anchor-13" 0 0 basechar 0
AnchorPoint: "Anchor-12" 255 851 basechar 0
AnchorPoint: "Anchor-11" 0 0 basechar 0
AnchorPoint: "Anchor-10" 248 0 basechar 0
LayerCount: 2
Back
Fore
SplineSet
113 607 m 1xe0
 40 691 l 1
 187 851 l 1
 318 851 l 1
 465 691 l 1
 392 607 l 1
 253 706 l 1
 113 607 l 1xe0
260 557 m 0
 340 557 422 529 471 486 c 1
 394 368 l 1
 358 391 311 406 269 406 c 0
 242 406 236 400 236 392 c 0
 236 380 237 374 342 341 c 0
 440 310 495 266 495 168 c 0
 495 58 389 -22 231 -22 c 0
 136 -22 45 12 -12 67 c 1
 92 182 l 1
 129 152 178 128 226 128 c 0
 253 128 269 135 269 151 c 0
 269 171 261 172 171 201 c 0
 75 231 17 289 17 378 c 0xd0
 17 477 101 557 260 557 c 0
EndSplineSet
Substitution2: "'smcp' Lowercase to Small Capitals lookup 27 subtable" scircumflex.sc
Substitution2: "'aalt' Access All Alternates lookup 0 subtable" scircumflex.sc
EndChar
StartChar: Scedilla
Encoding: 350 350 240
Width: 598
GlyphClass: 2
Flags: MW
HStem: -283 112<265.5 285 259.5 349.5> -19 21G<233 233> -17 21G<352 352> 558 161<303 353>
VStem: 24 238<503.5 530.5 503.5 568> 315 151<-158.5 -140.5> 348 240<178.5 209>
AnchorPoint: "Anchor-14" 0 0 basechar 0
AnchorPoint: "Anchor-13" 0 0 basechar 0
AnchorPoint: "Anchor-12" 314 698 basechar 0
AnchorPoint: "Anchor-11" 0 0 basechar 0
AnchorPoint: "Anchor-10" 315 -283 basechar 0
LayerCount: 2
Back
Fore
SplineSet
588 212 m 0xba
 588 92 501 3 352 -17 c 1
 352 -40 l 1xbc
 426 -50 466 -87 466 -153 c 0
 466 -223 406 -283 293 -283 c 0
 238 -283 190 -265 160 -246 c 1
 207 -153 l 1
 227 -164 248 -171 271 -171 c 0
 299 -171 315 -166 315 -151 c 0
 315 -130 285 -125 220 -125 c 1
 233 -19 l 1xdc
 121 -8 44 39 -6 87 c 1
 106 210 l 1
 156 167 212 142 275 142 c 0
 330 142 348 166 348 191 c 0
 348 227 329 242 244 268 c 0
 68 324 24 399 24 499 c 0
 24 637 145 719 306 719 c 0
 421 719 508 684 573 621 c 1
 473 503 l 1
 428 539 380 558 326 558 c 0
 280 558 262 542 262 519 c 0
 262 488 287 481 381 450 c 0
 531 401 588 335 588 212 c 0xba
EndSplineSet
Substitution2: "'c2sc' Capitals to Small Capitals lookup 26 subtable" scedilla.sc
Substitution2: "'locl' Localized Forms in Latin lookup 5 subtable" Scommaaccent
Substitution2: "'locl' Localized Forms in Latin lookup 4 subtable" Scommaaccent
AlternateSubs2: "'aalt' Access All Alternates lookup 1 subtable" Scommaaccent scedilla.sc
Position2: "'cpsp' Capital Spacing lookup 0 subtable" dx=5 dy=0 dh=10 dv=0
EndChar

StartChar: scedilla
Encoding: 351 351 230
Width: 499
GlyphClass: 2
Flags: MW
HStem: -283 112<225.5 245 219.5 309.5> -20 21G<193 193> -14 21G<312 312> 406 151<260.5 295>
VStem: 17 219<386 396 386 427.5> 269 226<143 161> 275 151<-158.5 -140.5>
AnchorPoint: "Anchor-11" 248 0 basechar 0
AnchorPoint: "Anchor-10" 0 0 basechar 0
AnchorPoint: "Anchor-9" 252 536 basechar 0
AnchorPoint: "Anchor-8" 0 0 basechar 0
LayerCount: 2
Fore
SplineSet
495 168 m 0xdc
 495 78 424 8 312 -14 c 1
 312 -40 l 1xba
 386 -50 426 -87 426 -153 c 0
 426 -223 366 -283 253 -283 c 0
 198 -283 150 -265 120 -246 c 1
 167 -153 l 1
 187 -164 208 -171 231 -171 c 0
 259 -171 275 -166 275 -151 c 0
 275 -130 245 -125 180 -125 c 1
 193 -20 l 1xda
 112 -13 37 19 -12 67 c 1
 92 181 l 1
 129 152 178 128 223 128 c 0
 253 128 269 135 269 151 c 0
 269 171 261 172 171 201 c 0
 75 231 17 289 17 378 c 0
 17 477 101 557 260 557 c 0
 340 557 422 529 471 486 c 1
 394 369 l 1
 358 391 311 406 279 406 c 0
 242 406 236 400 236 392 c 0
 236 380 237 374 342 341 c 0
 440 310 495 266 495 168 c 0xdc
EndSplineSet
Substitution2: "'smcp' Lowercase to Small Capitals lookup 24 subtable" scedilla.sc
Substitution2: "'locl' Localized Forms in Latin lookup 5 subtable" scommaaccent
Substitution2: "'locl' Localized Forms in Latin lookup 4 subtable" scommaaccent
AlternateSubs2: "'aalt' Access All Alternates lookup 1 subtable" scommaaccent scedilla.sc
EndChar

StartChar: scaron
Encoding: 353 353 229
Width: 499
GlyphClass: 2
Flags: MW
HStem: -22 150<200.5 238 200.5 310> 406 151<260.5 295> 736 20G<40 40 465 465>
VStem: -12 507<67 217> 17 219<386 396 386 427.5> 269 226<143 161>
AnchorPoint: "Anchor-11" 248 0 basechar 0
AnchorPoint: "Anchor-10" 0 0 basechar 0
AnchorPoint: "Anchor-9" 252 536 basechar 0
AnchorPoint: "Anchor-8" 0 0 basechar 0
LayerCount: 2
Fore
SplineSet
465 756 m 1xf0
 318 596 l 1
 187 596 l 1
 40 756 l 1
 113 840 l 1
 253 741 l 1
 392 840 l 1
 465 756 l 1xf0
260 557 m 0
 340 557 422 529 471 486 c 1
 394 369 l 1
 358 391 311 406 279 406 c 0
 242 406 236 400 236 392 c 0
 236 380 237 374 342 341 c 0
 440 310 495 266 495 168 c 0
 495 58 389 -22 231 -22 c 0
 136 -22 45 12 -12 67 c 1
 92 181 l 1
 129 152 178 128 223 128 c 0
 253 128 269 135 269 151 c 0
 269 171 261 172 171 201 c 0
 75 231 17 289 17 378 c 0xec
 17 477 101 557 260 557 c 0
EndSplineSet
Substitution2: "'smcp' Lowercase to Small Capitals lookup 24 subtable" scaron.sc
Substitution2: "'aalt' Access All Alternates lookup 0 subtable" scaron.sc
EndChar

StartChar: Tcedilla
Encoding: 354 354 99
Width: 562
GlyphClass: 2
Flags: MW
HStem: -283 112<310 329 303 394.5> 0 21G<166 280 166 166> 527 171<3 166 3 571 397 397 397 547>
VStem: 166 231<0 527> 359 151<-158 -140>
AnchorPoint: "Anchor-11" 281 0 basechar 0
AnchorPoint: "Anchor-10" 0 0 basechar 0
AnchorPoint: "Anchor-9" 281 698 basechar 0
AnchorPoint: "Anchor-8" 0 0 basechar 0
LayerCount: 2
Fore
SplineSet
397 -40 m 1xf0
 471 -50 510 -87 510 -153 c 0
 510 -223 451 -283 338 -283 c 0
 282 -283 233 -264 204 -246 c 1
 251 -153 l 1
 271 -164 292 -171 314 -171 c 0
 344 -171 359 -166 359 -150 c 0
 359 -130 329 -125 264 -125 c 1
 280 0 l 1xe8
 166 0 l 1
 166 527 l 1
 3 527 l 1
 3 698 l 1
 571 698 l 1
 547 527 l 1
 397 527 l 1
 397 -40 l 1xf0
EndSplineSet
Substitution2: "'c2sc' Capitals to Small Capitals lookup 23 subtable" tcedilla.sc
Substitution2: "'locl' Localized Forms in Latin lookup 5 subtable" uni021A
Substitution2: "'locl' Localized Forms in Latin lookup 4 subtable" uni021A
AlternateSubs2: "'aalt' Access All Alternates lookup 1 subtable" uni021A tcedilla.sc
Position2: "'cpsp' Capital Spacing lookup 0 subtable" dx=5 dy=0 dh=10 dv=0
EndChar
StartChar: uni0162
Encoding: 354 354 250
Width: 562
GlyphClass: 2
Flags: MW
HStem: -283 112<310 329 303 394.5> 0 21G<166 280 166 166> 527 171<3 166 3 571 397 547 397 397>
VStem: 166 231<0 527 -40 527> 359 151<-158 -140>
AnchorPoint: "Anchor-14" 281 349 basechar 0
AnchorPoint: "Anchor-13" 0 0 basechar 0
AnchorPoint: "Anchor-12" 281 698 basechar 0
AnchorPoint: "Anchor-11" 0 0 basechar 0
AnchorPoint: "Anchor-10" 281 0 basechar 0
LayerCount: 2
Back
Fore
SplineSet
547 527 m 1xf0
 397 527 l 1
 397 -40 l 1xf0
 471 -50 510 -87 510 -153 c 0
 510 -223 451 -283 338 -283 c 0
 282 -283 233 -264 204 -246 c 1
 251 -153 l 1
 271 -164 292 -171 314 -171 c 0
 344 -171 359 -166 359 -150 c 0
 359 -130 329 -125 264 -125 c 1
 280 0 l 1xe8
 166 0 l 1
 166 527 l 1
 3 527 l 1
 3 698 l 1
 571 698 l 1
 547 527 l 1xf0
EndSplineSet
Substitution2: "'c2sc' Capitals to Small Capitals lookup 26 subtable" uni0163.sc
Substitution2: "'locl' Localized Forms in Latin lookup 5 subtable" uni021A
Substitution2: "'locl' Localized Forms in Latin lookup 4 subtable" uni021A
AlternateSubs2: "'aalt' Access All Alternates lookup 1 subtable" uni021A uni0163.sc
Position2: "'cpsp' Capital Spacing lookup 0 subtable" dx=5 dy=0 dh=10 dv=0
EndChar
